<mxfile modified="2023-03-07T08:44:12.412Z" host="app.diagrams.net" agent="5.0 (Windows NT 10.0; Win64; x64) AppleWebKit/537.36 (KHTML, like Gecko) Chrome/110.0.0.0 Safari/537.36" etag="HzsE2JvcAAiSOxMzwQKO" version="21.0.2" type="github">
  <diagram id="WI9T0HZ2pTsCkuznbFz-" name="Page-1">
    <mxGraphModel dx="184" dy="112" grid="1" gridSize="10" guides="1" tooltips="1" connect="1" arrows="1" fold="1" page="1" pageScale="1" pageWidth="827" pageHeight="1169" math="0" shadow="0">
      <root>
        <mxCell id="0" />
        <mxCell id="1" parent="0" />
        <mxCell id="28heIlWIprtDJxRmpmQK-6" value="" style="rounded=0;whiteSpace=wrap;html=1;fillColor=#f5f5f5;strokeColor=none;fontColor=#333333;labelBackgroundColor=none;" parent="1" vertex="1">
          <mxGeometry x="520" y="183.5" width="150" height="460" as="geometry" />
        </mxCell>
        <mxCell id="28heIlWIprtDJxRmpmQK-2" value="" style="rounded=0;whiteSpace=wrap;html=1;fillColor=#f5f5f5;strokeColor=none;fontColor=#333333;labelBackgroundColor=none;" parent="1" vertex="1">
          <mxGeometry x="40" y="343.5" width="150" height="300" as="geometry" />
        </mxCell>
        <mxCell id="28heIlWIprtDJxRmpmQK-13" style="edgeStyle=elbowEdgeStyle;rounded=0;orthogonalLoop=1;jettySize=auto;elbow=vertical;html=1;strokeColor=#808080;entryX=0.01;entryY=0.49;entryDx=0;entryDy=0;entryPerimeter=0;startArrow=classic;startFill=1;" parent="1" source="eWjkR0wsdmifyLcniZH0-7" target="eWjkR0wsdmifyLcniZH0-11" edge="1">
          <mxGeometry relative="1" as="geometry" />
        </mxCell>
        <mxCell id="28heIlWIprtDJxRmpmQK-11" style="edgeStyle=elbowEdgeStyle;rounded=0;orthogonalLoop=1;jettySize=auto;elbow=vertical;html=1;strokeColor=#808080;startArrow=classic;startFill=1;" parent="1" source="eWjkR0wsdmifyLcniZH0-8" target="eWjkR0wsdmifyLcniZH0-9" edge="1">
          <mxGeometry relative="1" as="geometry" />
        </mxCell>
        <mxCell id="28heIlWIprtDJxRmpmQK-12" style="edgeStyle=elbowEdgeStyle;rounded=0;orthogonalLoop=1;jettySize=auto;elbow=vertical;html=1;strokeColor=#808080;startArrow=classic;startFill=1;" parent="1" source="eWjkR0wsdmifyLcniZH0-9" target="eWjkR0wsdmifyLcniZH0-10" edge="1">
          <mxGeometry relative="1" as="geometry" />
        </mxCell>
        <mxCell id="28heIlWIprtDJxRmpmQK-14" style="edgeStyle=elbowEdgeStyle;rounded=0;orthogonalLoop=1;jettySize=auto;elbow=vertical;html=1;entryX=0.018;entryY=0.503;entryDx=0;entryDy=0;strokeColor=#808080;exitX=1.023;exitY=0.503;exitDx=0;exitDy=0;exitPerimeter=0;entryPerimeter=0;startArrow=classic;startFill=1;" parent="1" source="eWjkR0wsdmifyLcniZH0-11" target="eWjkR0wsdmifyLcniZH0-12" edge="1">
          <mxGeometry relative="1" as="geometry" />
        </mxCell>
        <mxCell id="28heIlWIprtDJxRmpmQK-8" style="edgeStyle=elbowEdgeStyle;rounded=0;orthogonalLoop=1;jettySize=auto;elbow=vertical;html=1;strokeColor=#808080;startArrow=classic;startFill=1;" parent="1" source="eWjkR0wsdmifyLcniZH0-2" edge="1">
          <mxGeometry relative="1" as="geometry">
            <mxPoint x="283" y="361.5" as="sourcePoint" />
            <mxPoint x="370" y="408.5" as="targetPoint" />
          </mxGeometry>
        </mxCell>
        <mxCell id="28heIlWIprtDJxRmpmQK-9" style="edgeStyle=orthogonalEdgeStyle;rounded=0;orthogonalLoop=1;jettySize=auto;elbow=vertical;html=1;strokeColor=#808080;startArrow=classic;startFill=1;" parent="1" edge="1">
          <mxGeometry relative="1" as="geometry">
            <mxPoint x="154" y="408.5" as="sourcePoint" />
            <mxPoint x="370" y="408.5" as="targetPoint" />
            <Array as="points">
              <mxPoint x="210" y="408.5" />
              <mxPoint x="210" y="453.5" />
              <mxPoint x="310" y="453.5" />
              <mxPoint x="310" y="408.5" />
            </Array>
          </mxGeometry>
        </mxCell>
        <mxCell id="28heIlWIprtDJxRmpmQK-10" style="edgeStyle=elbowEdgeStyle;rounded=0;orthogonalLoop=1;jettySize=auto;elbow=vertical;html=1;strokeColor=#808080;entryX=0;entryY=0.5;entryDx=0;entryDy=0;entryPerimeter=0;exitX=1;exitY=0.524;exitDx=0;exitDy=0;exitPerimeter=0;" parent="1" source="eWjkR0wsdmifyLcniZH0-5" target="eWjkR0wsdmifyLcniZH0-8" edge="1">
          <mxGeometry relative="1" as="geometry">
            <mxPoint x="174" y="428.5" as="sourcePoint" />
            <mxPoint x="415" y="428" as="targetPoint" />
          </mxGeometry>
        </mxCell>
        <mxCell id="eWjkR0wsdmifyLcniZH0-4" value="Consumer, PC,&#xa;Mobile Cloud" style="shape=image;verticalLabelPosition=bottom;labelBackgroundColor=none;verticalAlign=top;aspect=fixed;imageAspect=0;image=data:image/svg+xml,PHN2ZyB4bWxuczpjYz0iaHR0cDovL2NyZWF0aXZlY29tbW9ucy5vcmcvbnMjIiB4bWxuczpkYz0iaHR0cDovL3B1cmwub3JnL2RjL2VsZW1lbnRzLzEuMS8iIHhtbG5zOmlua3NjYXBlPSJodHRwOi8vd3d3Lmlua3NjYXBlLm9yZy9uYW1lc3BhY2VzL2lua3NjYXBlIiB4bWxuczpyZGY9Imh0dHA6Ly93d3cudzMub3JnLzE5OTkvMDIvMjItcmRmLXN5bnRheC1ucyMiIHhtbG5zOnNvZGlwb2RpPSJodHRwOi8vc29kaXBvZGkuc291cmNlZm9yZ2UubmV0L0RURC9zb2RpcG9kaS0wLmR0ZCIgeG1sbnM6c3ZnPSJodHRwOi8vd3d3LnczLm9yZy8yMDAwL3N2ZyIgeG1sbnM9Imh0dHA6Ly93d3cudzMub3JnLzIwMDAvc3ZnIiB4bWxuczp4bGluaz0iaHR0cDovL3d3dy53My5vcmcvMTk5OS94bGluayIgdmVyc2lvbj0iMS4xIiBpZD0ic3ZnMzE5NiIgaW5rc2NhcGU6dmVyc2lvbj0iMC45Mi4zICgyNDA1NTQ2LCAyMDE4LTAzLTExKSIgc29kaXBvZGk6ZG9jbmFtZT0iZGV2aWNlX2Rlc2t0b3BfMS5zdmciIHg9IjBweCIgeT0iMHB4IiB2aWV3Qm94PSIwIDAgNjYuNzUgNDMuNjMiIHN0eWxlPSJlbmFibGUtYmFja2dyb3VuZDpuZXcgMCAwIDY2Ljc1IDQzLjYzOyIgeG1sOnNwYWNlPSJwcmVzZXJ2ZSI+JiN4YTs8c29kaXBvZGk6bmFtZWR2aWV3IGJvcmRlcmNvbG9yPSIjNjY2NjY2IiBib3JkZXJvcGFjaXR5PSIxIiBmaXQtbWFyZ2luLWJvdHRvbT0iMCIgZml0LW1hcmdpbi1sZWZ0PSIwIiBmaXQtbWFyZ2luLXJpZ2h0PSIwIiBmaXQtbWFyZ2luLXRvcD0iMCIgZ3JpZHRvbGVyYW5jZT0iMTAiIGd1aWRldG9sZXJhbmNlPSIxMCIgaWQ9Im5hbWVkdmlldzMxOTgiIGlua3NjYXBlOmN1cnJlbnQtbGF5ZXI9InN2ZzMxOTYiIGlua3NjYXBlOmN4PSI0NC41MDAwMTUiIGlua3NjYXBlOmN5PSIyOS4wNzk0NCIgaW5rc2NhcGU6cGFnZW9wYWNpdHk9IjAiIGlua3NjYXBlOnBhZ2VzaGFkb3c9IjIiIGlua3NjYXBlOndpbmRvdy1oZWlnaHQ9IjEwMTciIGlua3NjYXBlOndpbmRvdy1tYXhpbWl6ZWQ9IjEiIGlua3NjYXBlOndpbmRvdy13aWR0aD0iMTkyMCIgaW5rc2NhcGU6d2luZG93LXg9Ii04IiBpbmtzY2FwZTp3aW5kb3cteT0iLTgiIGlua3NjYXBlOnpvb209IjE0LjQxMDQxMiIgb2JqZWN0dG9sZXJhbmNlPSIxMCIgcGFnZWNvbG9yPSIjZmZmZmZmIiBzaG93Z3JpZD0iZmFsc2UiPiYjeGE7CTwvc29kaXBvZGk6bmFtZWR2aWV3PiYjeGE7PGcgaWQ9ImczMTk0IiB0cmFuc2Zvcm09InRyYW5zbGF0ZSgtMC43NSwtMC43NDYzNzkpIj4mI3hhOwk8dGl0bGUgaWQ9InRpdGxlMzE1OSI+UGFnZS0xPC90aXRsZT4mI3hhOwk8ZyBpZD0iZ3JvdXAzNTA5LTEiIHRyYW5zZm9ybT0idHJhbnNsYXRlKDAuNzUsLTAuNDAxMTIxKSI+JiN4YTsJCTx0aXRsZSBpZD0idGl0bGUzMTYxIj5EZXZpY2U6IERlc2t0b3AgIzE8L3RpdGxlPiYjeGE7CQk8ZyBpZD0ic2hhcGUzNTEwLTIiIHRyYW5zZm9ybT0idHJhbnNsYXRlKDEuNSwtOS4yODUpIj4mI3hhOwkJCTx0aXRsZSBpZD0idGl0bGUzMTYzIj5yZWN0MjM1MDwvdGl0bGU+JiN4YTsJCQk8cmVjdCBpZD0icmVjdDMxNjUiIHk9IjEwLjYyIiBzdHlsZT0iZmlsbDojNTVBNUU0OyIgd2lkdGg9IjYzIiBoZWlnaHQ9IjM0LjUiLz4mI3hhOwkJPC9nPiYjeGE7CQk8ZyBpZD0ic2hhcGUzNTExLTQiIHRyYW5zZm9ybT0idHJhbnNsYXRlKDQ1LjYzNzUsLTI1LjEwMjUpIj4mI3hhOwkJCTx0aXRsZSBpZD0idGl0bGUzMTY4Ij5wb2x5Z29uMjM1MjwvdGl0bGU+JiN4YTsJCQk8cGF0aCBpZD0icGF0aDMxNzAiIGlua3NjYXBlOmNvbm5lY3Rvci1jdXJ2YXR1cmU9IjAiIHN0eWxlPSJmaWxsOiNGRkZGRkY7ZmlsbC1vcGFjaXR5OjAuMjsiIGQ9Ik0wLDI2LjI1bDE4Ljg2LDE4Ljg3VjI2LjI1SDB6Ii8+JiN4YTsJCTwvZz4mI3hhOwkJPGcgaWQ9InNoYXBlMzUxMi02IiB0cmFuc2Zvcm09InRyYW5zbGF0ZSgxOS44NTI1LC0xLjIyMjUpIj4mI3hhOwkJCTx0aXRsZSBpZD0idGl0bGUzMTczIj5wb2x5Z29uMjM1NDwvdGl0bGU+JiN4YTsJCQk8cGF0aCBpZD0icGF0aDMxNzUiIGlua3NjYXBlOmNvbm5lY3Rvci1jdXJ2YXR1cmU9IjAiIHN0eWxlPSJmaWxsOiM1RTVFNUU7IiBkPSJNMS42LDQzLjYyaDI0LjAzbDEuNTksMS41SDBMMS42LDQzLjYyeiIvPiYjeGE7CQk8L2c+JiN4YTsJCTxnIGlkPSJzaGFwZTM1MTMtOCIgdHJhbnNmb3JtPSJ0cmFuc2xhdGUoMTkuODIyNSkiPiYjeGE7CQkJPHRpdGxlIGlkPSJ0aXRsZTMxNzgiPnBhdGgyMzU2PC90aXRsZT4mI3hhOwkJCTxwYXRoIGlkPSJwYXRoMzE4MCIgaW5rc2NhcGU6Y29ubmVjdG9yLWN1cnZhdHVyZT0iMCIgc3R5bGU9ImZpbGw6IzJFMkUyRTsiIGQ9Ik0yNi4xNyw0NC42NUgxLjE4QzAuMDIsNDUuMTIsMCw0NC4xLDAsNDMuOSAgICAgaDI3LjI4QzI3LjI1LDQ0LjEsMjcuNDMsNDUuMTIsMjYuMTcsNDQuNjV6Ii8+JiN4YTsJCTwvZz4mI3hhOwkJPGcgaWQ9InNoYXBlMzUxNC0xMCIgdHJhbnNmb3JtPSJ0cmFuc2xhdGUoMjcuNzUsLTEuOTcyNSkiPiYjeGE7CQkJPHRpdGxlIGlkPSJ0aXRsZTMxODMiPnBvbHlnb24yMzU4PC90aXRsZT4mI3hhOwkJCTxwYXRoIGlkPSJwYXRoMzE4NSIgaW5rc2NhcGU6Y29ubmVjdG9yLWN1cnZhdHVyZT0iMCIgc3R5bGU9ImZpbGw6IzJFMkUyRTsiIGQ9Ik0wLjkzLDM5Ljg3aDkuNTdsMC45Myw1LjI1SDBMMC45MywzOS44N3oiLz4mI3hhOwkJPC9nPiYjeGE7CQk8ZyBpZD0ic2hhcGUzNTE1LTEyIiB0cmFuc2Zvcm09InRyYW5zbGF0ZSgwLC03LjIyMjUpIj4mI3hhOwkJCTx0aXRsZSBpZD0idGl0bGUzMTg4Ij5wYXRoMjM2MDwvdGl0bGU+JiN4YTsJCQk8cGF0aCBpZD0icGF0aDMxOTAiIGlua3NjYXBlOmNvbm5lY3Rvci1jdXJ2YXR1cmU9IjAiIHN0eWxlPSJmaWxsOiMyMjFGMUY7IiBkPSJNNjUuMjUsOC4zN0gxLjVDMC42Nyw4LjM3LDAsOS4wNCwwLDkuODd2MzMuNzUgICAgIGMwLDAuODMsMC42NywxLjUsMS41LDEuNWg2My43NWMwLjgzLDAsMS41LTAuNjcsMS41LTEuNVY5Ljg3QzY2Ljc1LDkuMDQsNjYuMDgsOC4zNyw2NS4yNSw4LjM3eiBNNjQuNSw0Mi44N0gyLjI1VjEwLjYySDY0LjUgICAgIFY0Mi44N3oiLz4mI3hhOwkJPC9nPiYjeGE7CTwvZz4mI3hhOzwvZz4mI3hhOzwvc3ZnPg==;" parent="1" vertex="1">
          <mxGeometry x="81" y="533.5" width="67" height="44" as="geometry" />
        </mxCell>
        <mxCell id="eWjkR0wsdmifyLcniZH0-5" value="Active&lt;br&gt;Directory" style="aspect=fixed;html=1;perimeter=none;align=center;shadow=0;dashed=0;image;fontSize=12;image=img/lib/mscae/Active_Directory.svg;labelBackgroundColor=none;" parent="1" vertex="1">
          <mxGeometry x="370" y="383" width="50" height="50" as="geometry" />
        </mxCell>
        <mxCell id="eWjkR0wsdmifyLcniZH0-6" value="Azure App&lt;br&gt;Insights" style="aspect=fixed;html=1;perimeter=none;align=center;shadow=0;dashed=0;image;fontSize=12;image=img/lib/mscae/Application_Insights.svg;labelBackgroundColor=none;" parent="1" vertex="1">
          <mxGeometry x="578" y="213.5" width="39" height="60" as="geometry" />
        </mxCell>
        <mxCell id="eWjkR0wsdmifyLcniZH0-7" value="App Service" style="shape=image;verticalLabelPosition=bottom;labelBackgroundColor=none;verticalAlign=top;aspect=fixed;imageAspect=0;image=data:image/svg+xml,PHN2ZyB4bWxuczpjYz0iaHR0cDovL2NyZWF0aXZlY29tbW9ucy5vcmcvbnMjIiB4bWxuczpkYz0iaHR0cDovL3B1cmwub3JnL2RjL2VsZW1lbnRzLzEuMS8iIHhtbG5zOmlua3NjYXBlPSJodHRwOi8vd3d3Lmlua3NjYXBlLm9yZy9uYW1lc3BhY2VzL2lua3NjYXBlIiB4bWxuczpyZGY9Imh0dHA6Ly93d3cudzMub3JnLzE5OTkvMDIvMjItcmRmLXN5bnRheC1ucyMiIHhtbG5zOnNvZGlwb2RpPSJodHRwOi8vc29kaXBvZGkuc291cmNlZm9yZ2UubmV0L0RURC9zb2RpcG9kaS0wLmR0ZCIgeG1sbnM6c3ZnPSJodHRwOi8vd3d3LnczLm9yZy8yMDAwL3N2ZyIgeG1sbnM9Imh0dHA6Ly93d3cudzMub3JnLzIwMDAvc3ZnIiB4bWxuczp4bGluaz0iaHR0cDovL3d3dy53My5vcmcvMTk5OS94bGluayIgdmVyc2lvbj0iMS4xIiBpZD0ic3ZnNjAyNDAiIGlua3NjYXBlOnZlcnNpb249IjAuOTIuMyAoMjQwNTU0NiwgMjAxOC0wMy0xMSkiIHNvZGlwb2RpOmRvY25hbWU9ImF6dXJlX3BvcnRhbF9hcHBfc2VydmljZXNfZW52aXJvbm1lbnRzLnN2ZyIgeD0iMHB4IiB5PSIwcHgiIHZpZXdCb3g9IjAgMCAyNy4yMSAyNy4xNCIgc3R5bGU9ImVuYWJsZS1iYWNrZ3JvdW5kOm5ldyAwIDAgMjcuMjEgMjcuMTQ7IiB4bWw6c3BhY2U9InByZXNlcnZlIj4mI3hhOzxzb2RpcG9kaTpuYW1lZHZpZXcgYm9yZGVyY29sb3I9IiM2NjY2NjYiIGJvcmRlcm9wYWNpdHk9IjEiIGZpdC1tYXJnaW4tYm90dG9tPSIwIiBmaXQtbWFyZ2luLWxlZnQ9IjAiIGZpdC1tYXJnaW4tcmlnaHQ9IjAiIGZpdC1tYXJnaW4tdG9wPSIwIiBncmlkdG9sZXJhbmNlPSIxMCIgZ3VpZGV0b2xlcmFuY2U9IjEwIiBpZD0ibmFtZWR2aWV3NjAyNDIiIGlua3NjYXBlOmN1cnJlbnQtbGF5ZXI9InN2ZzYwMjQwIiBpbmtzY2FwZTpjeD0iMTkuMzcxMzk1IiBpbmtzY2FwZTpjeT0iMTMuMzQ4NDkxIiBpbmtzY2FwZTpwYWdlb3BhY2l0eT0iMCIgaW5rc2NhcGU6cGFnZXNoYWRvdz0iMiIgaW5rc2NhcGU6d2luZG93LWhlaWdodD0iMTAxNyIgaW5rc2NhcGU6d2luZG93LW1heGltaXplZD0iMSIgaW5rc2NhcGU6d2luZG93LXdpZHRoPSIxOTIwIiBpbmtzY2FwZTp3aW5kb3cteD0iLTgiIGlua3NjYXBlOndpbmRvdy15PSItOCIgaW5rc2NhcGU6em9vbT0iMTUuOTQxNjkxIiBvYmplY3R0b2xlcmFuY2U9IjEwIiBwYWdlY29sb3I9IiNmZmZmZmYiIHNob3dncmlkPSJmYWxzZSI+JiN4YTsJPC9zb2RpcG9kaTpuYW1lZHZpZXc+JiN4YTs8ZyBpZD0iZzYwMjM4IiB0cmFuc2Zvcm09InRyYW5zbGF0ZSgtMjAuMDM4MiwtMy42MjcpIj4mI3hhOwk8dGl0bGUgaWQ9InRpdGxlNjAyMDUiPlBhZ2UtMTwvdGl0bGU+JiN4YTsJPGcgaWQ9Imdyb3VwNDM3Mi0xIiB0cmFuc2Zvcm09InRyYW5zbGF0ZSgyMC4wMzgyLC0yNi45MTU3KSI+JiN4YTsJCTx0aXRsZSBpZD0idGl0bGU2MDIwNyI+QXp1cmUgUG9ydGFsIC0gQXBwIFNlcnZpY2VzIEVudmlyb25tZW50czwvdGl0bGU+JiN4YTsJCTxnIGlkPSJncm91cDQzNzMtMiI+JiN4YTsJCQk8dGl0bGUgaWQ9InRpdGxlNjAyMDkiPlNoZWV0LjQzNzM8L3RpdGxlPiYjeGE7CQkJPGcgaWQ9InNoYXBlNDM3NC0zIj4mI3hhOwkJCQk8dGl0bGUgaWQ9InRpdGxlNjAyMTEiPlNoZWV0LjQzNzQ8L3RpdGxlPiYjeGE7CQkJCTxwYXRoIGlkPSJwYXRoNjAyMTMiIGlua3NjYXBlOmNvbm5lY3Rvci1jdXJ2YXR1cmU9IjAiIHN0eWxlPSJmaWxsOiNBMEExQTI7IiBkPSJNMTAuOTksNTUuODNIMS45MnYtOWgxLjc5ICAgICAgYy0wLjItMC41My0wLjMzLTEuMTMtMC4zMy0xLjc5YzAsMCwwLTAuMDcsMC0wLjEzSDB2MTIuNzdoMTIuODR2LTcuNTRoLTEuODVWNTUuODN6Ii8+JiN4YTsJCQk8L2c+JiN4YTsJCQk8ZyBpZD0ic2hhcGU0Mzc1LTUiIHRyYW5zZm9ybT0idHJhbnNsYXRlKDE0LjM2NzMpIj4mI3hhOwkJCQk8dGl0bGUgaWQ9InRpdGxlNjAyMTYiPlNoZWV0LjQzNzU8L3RpdGxlPiYjeGE7CQkJCTxwYXRoIGlkPSJwYXRoNjAyMTgiIGlua3NjYXBlOmNvbm5lY3Rvci1jdXJ2YXR1cmU9IjAiIHN0eWxlPSJmaWxsOiNBMEExQTI7IiBkPSJNOS4yNyw0Ni44M2gxLjY1djlIMS44NXYtNS42OUgwdjcuNTRoMTIuODQgICAgICBWNDQuOTFIOC44MWMwLjMzLDAuNTMsMC40NiwxLjEyLDAuNDYsMS43OEM5LjI3LDQ2Ljc2LDkuMjcsNDYuNzYsOS4yNyw0Ni44M3oiLz4mI3hhOwkJCTwvZz4mI3hhOwkJCTxnIGlkPSJzaGFwZTQzNzYtNyIgdHJhbnNmb3JtPSJ0cmFuc2xhdGUoMC4wNjYyMDg4LC0xNC4zMDExKSI+JiN4YTsJCQkJPHRpdGxlIGlkPSJ0aXRsZTYwMjIxIj5TaGVldC40Mzc2PC90aXRsZT4mI3hhOwkJCQk8cGF0aCBpZD0icGF0aDYwMjIzIiBpbmtzY2FwZTpjb25uZWN0b3ItY3VydmF0dXJlPSIwIiBzdHlsZT0iZmlsbDojQTBBMUEyOyIgZD0iTTEuODUsNTUuNzZ2LTloOS4wN3Y1LjIzICAgICAgYzAuNi0wLjQsMS4yLTAuNzMsMS44Ni0wLjkzdi02LjE1SDB2MTIuNzdoMy43MWMwLjI2LTAuNzIsMC42Ni0xLjMyLDEuMTktMS44NUwxLjg1LDU1Ljc2eiIvPiYjeGE7CQkJPC9nPiYjeGE7CQkJPGcgaWQ9InNoYXBlNDM3Ny05IiB0cmFuc2Zvcm09InRyYW5zbGF0ZSgxNC4zNjczLC0xNC4zNjczKSI+JiN4YTsJCQkJPHRpdGxlIGlkPSJ0aXRsZTYwMjI2Ij5TaGVldC40Mzc3PC90aXRsZT4mI3hhOwkJCQk8cGF0aCBpZD0icGF0aDYwMjI4IiBpbmtzY2FwZTpjb25uZWN0b3ItY3VydmF0dXJlPSIwIiBzdHlsZT0iZmlsbDojQTBBMUEyOyIgZD0iTTEuODUsNTF2LTQuMTdoOS4wN3Y5aC0zLjkgICAgICBjMC4xMywwLjYsMC4yNiwxLjE5LDAuMjYsMS43OXYwLjA2aDUuNTZWNDQuOTFIMHY1Ljg5YzAuMTMsMCwwLjMzLDAsMC40NiwwQzAuOTMsNTAuOCwxLjM5LDUwLjg3LDEuODUsNTF6Ii8+JiN4YTsJCQk8L2c+JiN4YTsJCTwvZz4mI3hhOwkJPGcgaWQ9InNoYXBlNDM3OC0xMSIgdHJhbnNmb3JtPSJ0cmFuc2xhdGUoNC44OTk0NSwtOS4wMDQ0KSI+JiN4YTsJCQk8dGl0bGUgaWQ9InRpdGxlNjAyMzIiPlNoZWV0LjQzNzg8L3RpdGxlPiYjeGE7CQkJPHBhdGggaWQ9InBhdGg2MDIzNCIgaW5rc2NhcGU6Y29ubmVjdG9yLWN1cnZhdHVyZT0iMCIgc3R5bGU9ImZpbGw6IzdBQzNFMDsiIGQ9Ik0xNy4zNSw1NS43YzAtMS4xMy0wLjkzLTIuMDUtMS45OS0yLjA1ICAgICBjLTAuMDcsMC0wLjEzLDAtMC4yNiwwYzAuMTMtMC40NywwLjE5LTAuOTMsMC4xOS0xLjQ2YzAtMi45OC0yLjM4LTUuNDMtNS4zNi01LjQzYy0yLjM4LDAtNC4zNywxLjUyLTUuMSwzLjcxICAgICBjLTAuMzktMC4xMy0wLjc5LTAuMi0xLjE5LTAuMkMxLjU5LDUwLjI3LDAsNTEuOTIsMCw1My45OGMwLDIuMDUsMS42NiwzLjcsMy42NCwzLjdoMTEuOTJDMTYuNTUsNTcuNjIsMTcuMzUsNTYuNzYsMTcuMzUsNTUuN3oiLz4mI3hhOwkJPC9nPiYjeGE7CTwvZz4mI3hhOzwvZz4mI3hhOzwvc3ZnPg==;" parent="1" vertex="1">
          <mxGeometry x="567.5" y="525.5" width="60" height="60" as="geometry" />
        </mxCell>
        <mxCell id="eWjkR0wsdmifyLcniZH0-8" value="Bot Service" style="pointerEvents=1;shadow=0;dashed=0;html=1;strokeColor=none;labelPosition=center;verticalLabelPosition=bottom;verticalAlign=top;align=center;shape=mxgraph.mscae.deprecated.bot;fillColor=#00188D;aspect=fixed;labelBackgroundColor=none;" parent="1" vertex="1">
          <mxGeometry x="570" y="382" width="55" height="55" as="geometry" />
        </mxCell>
        <mxCell id="eWjkR0wsdmifyLcniZH0-9" value="Language&#xa;Understanding" style="shape=image;verticalLabelPosition=bottom;labelBackgroundColor=none;verticalAlign=top;aspect=fixed;imageAspect=0;image=data:image/svg+xml,PHN2ZyB4bWxuczpjYz0iaHR0cDovL2NyZWF0aXZlY29tbW9ucy5vcmcvbnMjIiB4bWxuczpkYz0iaHR0cDovL3B1cmwub3JnL2RjL2VsZW1lbnRzLzEuMS8iIHhtbG5zOmlua3NjYXBlPSJodHRwOi8vd3d3Lmlua3NjYXBlLm9yZy9uYW1lc3BhY2VzL2lua3NjYXBlIiB4bWxuczpyZGY9Imh0dHA6Ly93d3cudzMub3JnLzE5OTkvMDIvMjItcmRmLXN5bnRheC1ucyMiIHhtbG5zOnNvZGlwb2RpPSJodHRwOi8vc29kaXBvZGkuc291cmNlZm9yZ2UubmV0L0RURC9zb2RpcG9kaS0wLmR0ZCIgeG1sbnM6c3ZnPSJodHRwOi8vd3d3LnczLm9yZy8yMDAwL3N2ZyIgeG1sbnM9Imh0dHA6Ly93d3cudzMub3JnLzIwMDAvc3ZnIiB4bWxuczp4bGluaz0iaHR0cDovL3d3dy53My5vcmcvMTk5OS94bGluayIgdmVyc2lvbj0iMS4xIiBpZD0ic3ZnMjQ3OTciIGlua3NjYXBlOnZlcnNpb249IjAuOTIuMyAoMjQwNTU0NiwgMjAxOC0wMy0xMSkiIHNvZGlwb2RpOmRvY25hbWU9Imxhbmd1YWdlX3VuZGVyc3RhbmRpbmdfbHVpcy5zdmciIHg9IjBweCIgeT0iMHB4IiB2aWV3Qm94PSIwIDAgNzEuMDEgNzEuMDEiIHN0eWxlPSJlbmFibGUtYmFja2dyb3VuZDpuZXcgMCAwIDcxLjAxIDcxLjAxOyIgeG1sOnNwYWNlPSJwcmVzZXJ2ZSI+JiN4YTs8c29kaXBvZGk6bmFtZWR2aWV3IGJvcmRlcmNvbG9yPSIjNjY2NjY2IiBib3JkZXJvcGFjaXR5PSIxIiBmaXQtbWFyZ2luLWJvdHRvbT0iMCIgZml0LW1hcmdpbi1sZWZ0PSIwIiBmaXQtbWFyZ2luLXJpZ2h0PSIwIiBmaXQtbWFyZ2luLXRvcD0iMCIgZ3JpZHRvbGVyYW5jZT0iMTAiIGd1aWRldG9sZXJhbmNlPSIxMCIgaWQ9Im5hbWVkdmlldzI0Nzk5IiBpbmtzY2FwZTpjdXJyZW50LWxheWVyPSJzdmcyNDc5NyIgaW5rc2NhcGU6Y3g9IjQ3LjM0MzIwNSIgaW5rc2NhcGU6Y3k9IjQ3LjM0MzIwMSIgaW5rc2NhcGU6cGFnZW9wYWNpdHk9IjAiIGlua3NjYXBlOnBhZ2VzaGFkb3c9IjIiIGlua3NjYXBlOndpbmRvdy1oZWlnaHQ9IjEwMTciIGlua3NjYXBlOndpbmRvdy1tYXhpbWl6ZWQ9IjEiIGlua3NjYXBlOndpbmRvdy13aWR0aD0iMTkyMCIgaW5rc2NhcGU6d2luZG93LXg9Ii04IiBpbmtzY2FwZTp3aW5kb3cteT0iLTgiIGlua3NjYXBlOnpvb209IjguOTY3MTM0NSIgb2JqZWN0dG9sZXJhbmNlPSIxMCIgcGFnZWNvbG9yPSIjZmZmZmZmIiBzaG93Z3JpZD0iZmFsc2UiPiYjeGE7CTwvc29kaXBvZGk6bmFtZWR2aWV3PiYjeGE7PGcgaWQ9ImcyNDc5NSIgdHJhbnNmb3JtPSJ0cmFuc2xhdGUoLTAuNzUsLTAuNzUpIj4mI3hhOwk8dGl0bGUgaWQ9InRpdGxlMjQ3NzUiPlBhZ2UtMTwvdGl0bGU+JiN4YTsJPGcgaWQ9Imdyb3VwMTI0LTEiIHRyYW5zZm9ybT0idHJhbnNsYXRlKDAuNzUsLTAuNzUpIj4mI3hhOwkJPHRpdGxlIGlkPSJ0aXRsZTI0Nzc3Ij5MYW5ndWFnZSBVbmRlcnN0YW5kaW5nIChMVUlTKTwvdGl0bGU+JiN4YTsJCTxkZXNjIGlkPSJkZXNjMjQ3NzkiPkNyZWF0ZWQgd2l0aCBTa2V0Y2guPC9kZXNjPiYjeGE7CQk8ZyBpZD0iZ3JvdXAxMjUtMiI+JiN4YTsJCQk8dGl0bGUgaWQ9InRpdGxlMjQ3ODEiPkxVSVM8L3RpdGxlPiYjeGE7CQkJPGcgaWQ9InNoYXBlMTI2LTMiPiYjeGE7CQkJCTx0aXRsZSBpZD0idGl0bGUyNDc4MyI+UmVjdGFuZ2xlLTMtQ29weS0xMzwvdGl0bGU+JiN4YTsJCQkJPHJlY3QgaWQ9InJlY3QyNDc4NSIgeT0iMS41IiBzdHlsZT0iZmlsbDojMDA2M0IxOyIgd2lkdGg9IjcxLjAxIiBoZWlnaHQ9IjcxLjAxIi8+JiN4YTsJCQk8L2c+JiN4YTsJCQk8ZyBpZD0ic2hhcGUxMjctNSIgdHJhbnNmb3JtPSJ0cmFuc2xhdGUoMTQuOTkxNywtMTcuNDk5OCkiPiYjeGE7CQkJCTx0aXRsZSBpZD0idGl0bGUyNDc4OCI+Q29tYmluZWQtU2hhcGU8L3RpdGxlPiYjeGE7CQkJCTxwYXRoIGlkPSJwYXRoMjQ3OTAiIGlua3NjYXBlOmNvbm5lY3Rvci1jdXJ2YXR1cmU9IjAiIHN0eWxlPSJmaWxsOiNGRkZGRkY7IiBkPSJNMzkuODYsNTMuNTNsMC42LDAuMDh2Mi40NGwtMC41OSwwLjA4ICAgICAgYy0xLjcsMC4yNC0yLjU1LDEuNTktMi41NSw0LjMzdjUuNzNjMCwyLjEyLTAuNDksMy43LTEuNTEsNC43MWMtMSwxLTIuNDUsMS41Mi00LjMyLDEuNTlsLTAuNzIsMC4wM3YtM2wwLjY2LTAuMDMgICAgICBjMC45OS0wLjA2LDEuNjMtMC4zNCwxLjk3LTAuODJjMC4zOC0wLjUyLDAuNi0xLjU0LDAuNi0zLjA0di01LjMyYzAtMi41NywwLjY5LTQuNDEsMi4wOC01LjQ2QzM0LjY5LDUzLjg4LDM0LDUyLjEzLDM0LDQ5LjY4ICAgICAgdi01LjY0YzAtMS41LTAuMjItMi41My0wLjYtMy4wNWMtMC4zNC0wLjQ4LTAuOTgtMC43Ni0xLjk3LTAuODFsLTAuNjYtMC4wNHYtMi45OWwwLjcyLDAuMDJjMS44NywwLjA4LDMuMzIsMC42LDQuMzIsMS41OSAgICAgIGMxLjAyLDEuMDEsMS41MSwyLjYsMS41MSw0LjcydjYuMDVDMzcuMzIsNTIuMDUsMzguMTUsNTMuMywzOS44Niw1My41M3ogTTQuNjUsMzguNzZjMS0wLjk5LDIuNDUtMS41MSw0LjMyLTEuNTlsMC43Mi0wLjAyICAgICAgdjIuOTlsLTAuNjUsMC4wNGMtMSwwLjA1LTEuNjMsMC4zMy0xLjk4LDAuODFjLTAuMzgsMC41Mi0wLjYsMS41NS0wLjYsMy4wNXY1LjY0YzAsMi40Ni0wLjcsNC4yMi0yLjEsNS4xOCAgICAgIGMxLjQxLDEuMDEsMi4xLDIuODYsMi4xLDUuNDV2NS4zMmMwLDEuNSwwLjIyLDIuNTIsMC42LDMuMDRjMC4zNSwwLjQ4LDAuOTgsMC43NiwxLjk4LDAuODJsMC42NSwwLjAzdjIuOTlsLTAuNzItMC4wMiAgICAgIEM3LjEsNzIuNDIsNS42NSw3MS45LDQuNjUsNzAuOWMtMS4wMi0xLjAxLTEuNS0yLjU5LTEuNS00Ljcxdi01LjczYzAtMi43NC0wLjg1LTQuMDktMi41NS00LjMzTDAsNTYuMDV2LTIuNDRsMC42LTAuMDggICAgICBjMS43MS0wLjIzLDIuNTUtMS40OCwyLjU1LTR2LTYuMDVDMy4xNSw0MS4zNiwzLjYzLDM5Ljc3LDQuNjUsMzguNzZ6Ii8+JiN4YTsJCQk8L2c+JiN4YTsJCTwvZz4mI3hhOwk8L2c+JiN4YTs8L2c+JiN4YTs8L3N2Zz4=;" parent="1" vertex="1">
          <mxGeometry x="770" y="378" width="60" height="60" as="geometry" />
        </mxCell>
        <mxCell id="eWjkR0wsdmifyLcniZH0-10" value="Q&amp;amp;A Maker" style="html=1;verticalLabelPosition=bottom;align=center;labelBackgroundColor=none;verticalAlign=top;strokeWidth=2;strokeColor=#0080F0;fillColor=#ffffff;shadow=0;dashed=0;shape=mxgraph.ios7.icons.chat;aspect=fixed;" parent="1" vertex="1">
          <mxGeometry x="960" y="387" width="75" height="45" as="geometry" />
        </mxCell>
        <mxCell id="eWjkR0wsdmifyLcniZH0-11" value="Azure Search" style="aspect=fixed;html=1;perimeter=none;align=center;shadow=0;dashed=0;image;fontSize=12;image=img/lib/mscae/Search.svg;labelBackgroundColor=none;" parent="1" vertex="1">
          <mxGeometry x="770" y="525.5" width="60" height="60" as="geometry" />
        </mxCell>
        <mxCell id="eWjkR0wsdmifyLcniZH0-12" value="Structured" style="aspect=fixed;html=1;perimeter=none;align=center;shadow=0;dashed=0;image;fontSize=12;image=img/lib/mscae/SQL_Database_generic.svg;labelBackgroundColor=none;" parent="1" vertex="1">
          <mxGeometry x="975" y="525.5" width="45" height="60" as="geometry" />
        </mxCell>
        <mxCell id="28heIlWIprtDJxRmpmQK-1" value="Customer Mobile" style="text;html=1;resizable=0;points=[];autosize=1;align=center;verticalAlign=top;spacingTop=-4;labelBackgroundColor=none;" parent="1" vertex="1">
          <mxGeometry x="59.5" y="458.5" width="110" height="20" as="geometry" />
        </mxCell>
        <mxCell id="28heIlWIprtDJxRmpmQK-5" value="" style="group" parent="1" vertex="1" connectable="0">
          <mxGeometry x="75" y="378.5" width="79" height="59" as="geometry" />
        </mxCell>
        <mxCell id="eWjkR0wsdmifyLcniZH0-1" value="" style="shape=image;verticalLabelPosition=bottom;labelBackgroundColor=none;verticalAlign=top;aspect=fixed;imageAspect=0;image=data:image/svg+xml,PHN2ZyB4bWxuczpjYz0iaHR0cDovL2NyZWF0aXZlY29tbW9ucy5vcmcvbnMjIiB4bWxuczpkYz0iaHR0cDovL3B1cmwub3JnL2RjL2VsZW1lbnRzLzEuMS8iIHhtbG5zOmlua3NjYXBlPSJodHRwOi8vd3d3Lmlua3NjYXBlLm9yZy9uYW1lc3BhY2VzL2lua3NjYXBlIiB4bWxuczpyZGY9Imh0dHA6Ly93d3cudzMub3JnLzE5OTkvMDIvMjItcmRmLXN5bnRheC1ucyMiIHhtbG5zOnNvZGlwb2RpPSJodHRwOi8vc29kaXBvZGkuc291cmNlZm9yZ2UubmV0L0RURC9zb2RpcG9kaS0wLmR0ZCIgeG1sbnM6c3ZnPSJodHRwOi8vd3d3LnczLm9yZy8yMDAwL3N2ZyIgeG1sbnM9Imh0dHA6Ly93d3cudzMub3JnLzIwMDAvc3ZnIiB4bWxuczp4bGluaz0iaHR0cDovL3d3dy53My5vcmcvMTk5OS94bGluayIgdmVyc2lvbj0iMS4xIiBpZD0ic3ZnMjQzMyIgaW5rc2NhcGU6dmVyc2lvbj0iMC45Mi4zICgyNDA1NTQ2LCAyMDE4LTAzLTExKSIgc29kaXBvZGk6ZG9jbmFtZT0iZGV2aWNlX2FuZHJvaWQuc3ZnIiB4PSIwcHgiIHk9IjBweCIgdmlld0JveD0iMCAwIDI4LjY5IDU5LjIiIHN0eWxlPSJlbmFibGUtYmFja2dyb3VuZDpuZXcgMCAwIDI4LjY5IDU5LjI7IiB4bWw6c3BhY2U9InByZXNlcnZlIj4mI3hhOzxzb2RpcG9kaTpuYW1lZHZpZXcgYm9yZGVyY29sb3I9IiM2NjY2NjYiIGJvcmRlcm9wYWNpdHk9IjEiIGZpdC1tYXJnaW4tYm90dG9tPSIwIiBmaXQtbWFyZ2luLWxlZnQ9IjAiIGZpdC1tYXJnaW4tcmlnaHQ9IjAiIGZpdC1tYXJnaW4tdG9wPSIwIiBncmlkdG9sZXJhbmNlPSIxMCIgZ3VpZGV0b2xlcmFuY2U9IjEwIiBpZD0ibmFtZWR2aWV3MjQzNSIgaW5rc2NhcGU6Y3VycmVudC1sYXllcj0ic3ZnMjQzMyIgaW5rc2NhcGU6Y3g9IjE5LjEyODg2NCIgaW5rc2NhcGU6Y3k9IjM5LjQ2OTkyOCIgaW5rc2NhcGU6cGFnZW9wYWNpdHk9IjAiIGlua3NjYXBlOnBhZ2VzaGFkb3c9IjIiIGlua3NjYXBlOndpbmRvdy1oZWlnaHQ9IjEwMTciIGlua3NjYXBlOndpbmRvdy1tYXhpbWl6ZWQ9IjEiIGlua3NjYXBlOndpbmRvdy13aWR0aD0iMTkyMCIgaW5rc2NhcGU6d2luZG93LXg9Ii04IiBpbmtzY2FwZTp3aW5kb3cteT0iLTgiIGlua3NjYXBlOnpvb209IjEwLjk4NDg1MSIgb2JqZWN0dG9sZXJhbmNlPSIxMCIgcGFnZWNvbG9yPSIjZmZmZmZmIiBzaG93Z3JpZD0iZmFsc2UiPiYjeGE7CTwvc29kaXBvZGk6bmFtZWR2aWV3PiYjeGE7PGcgaWQ9ImcyNDMxIiB0cmFuc2Zvcm09InRyYW5zbGF0ZSgwLC0zLjM2MzU5OTFlLTUpIj4mI3hhOwk8dGl0bGUgaWQ9InRpdGxlMjM3NyI+UGFnZS0xPC90aXRsZT4mI3hhOwk8ZyBpZD0iZ3JvdXAzNDgxLTEiPiYjeGE7CQk8dGl0bGUgaWQ9InRpdGxlMjM3OSI+RGV2aWNlOiBBbmRyb2lkPC90aXRsZT4mI3hhOwkJPGcgaWQ9InNoYXBlMzQ4Mi0yIj4mI3hhOwkJCTx0aXRsZSBpZD0idGl0bGUyMzgxIj5TaGVldC4zNDgyPC90aXRsZT4mI3hhOwkJCTxwYXRoIGlkPSJwYXRoMjM4MyIgaW5rc2NhcGU6Y29ubmVjdG9yLWN1cnZhdHVyZT0iMCIgc3R5bGU9ImZpbGw6IzNGNTc2NTsiIGQ9Ik0yOC42OSw1NS4wNGMwLDIuMjctMS44OSw0LjE2LTQuMjIsNC4xNiAgICAgYy0yMC4yOCwwLTIwLjI4LDAtMjAuMjgsMEMxLjg1LDU5LjIsMCw1Ny4zMSwwLDU1LjA0QzAsNC4yMiwwLDQuMjIsMCw0LjIyQzAsMS44OSwxLjg1LDAsNC4xOSwwYzIwLjI4LDAsMjAuMjgsMCwyMC4yOCwwICAgICBjMi4zMywwLDQuMjIsMS44OSw0LjIyLDQuMjJWNTUuMDR6Ii8+JiN4YTsJCTwvZz4mI3hhOwkJPGcgaWQ9InNoYXBlMzQ4My00IiB0cmFuc2Zvcm09InRyYW5zbGF0ZSg3LjI3NDYzLC0zMS44MTgyKSI+JiN4YTsJCQk8dGl0bGUgaWQ9InRpdGxlMjM4NiI+U2hlZXQuMzQ4MzwvdGl0bGU+JiN4YTsJCQk8ZGVzYyBpZD0iZGVzYzIzODgiPlY8L2Rlc2M+JiN4YTsJCQk8cGF0aCBpZD0icGF0aDIzOTAiIGlua3NjYXBlOmNvbm5lY3Rvci1jdXJ2YXR1cmU9IjAiIHN0eWxlPSJmaWxsOm5vbmU7IiBkPSJNMTYuNDEsMzcuNjJIMFY1OS4yaDE2LjQxVjM3LjYyIi8+JiN4YTsJCQk8dGV4dCBpZD0idGV4dDIzOTIiIHRyYW5zZm9ybT0ibWF0cml4KDEgMCAwIDEgMy4xIDUzLjgpIiBzdHlsZT0iZmlsbDojNTA1MDUwOyBmb250LWZhbWlseTonQ2FsaWJyaSc7IGZvbnQtc2l6ZToxNy45NzQycHg7Ij5WPC90ZXh0PiYjeGE7CQk8L2c+JiN4YTsJCTxnIGlkPSJzaGFwZTM0ODQtOCIgdHJhbnNmb3JtPSJ0cmFuc2xhdGUoMS41NjA3MiwtOC4xNDgzMikiPiYjeGE7CQkJPHRpdGxlIGlkPSJ0aXRsZTIzOTUiPlNoZWV0LjM0ODQ8L3RpdGxlPiYjeGE7CQkJPHBhdGggaWQ9InBhdGgyMzk3IiBpbmtzY2FwZTpjb25uZWN0b3ItY3VydmF0dXJlPSIwIiBzdHlsZT0iZmlsbDojOEQ5RkIwOyIgZD0iTTAsMTQuNjJWNTkuMmgyNS41N1YxNC42MkgweiIvPiYjeGE7CQk8L2c+JiN4YTsJCTxnIGlkPSJzaGFwZTM0ODUtMTAiIHRyYW5zZm9ybT0idHJhbnNsYXRlKDYuMjQyODksLTU1LjQ4MDUpIj4mI3hhOwkJCTx0aXRsZSBpZD0idGl0bGUyNDAwIj5TaGVldC4zNDg1PC90aXRsZT4mI3hhOwkJCTxwYXRoIGlkPSJwYXRoMjQwMiIgaW5rc2NhcGU6Y29ubmVjdG9yLWN1cnZhdHVyZT0iMCIgc3R5bGU9ImZpbGw6IzhFOUZCMDsiIGQ9Ik0xMi45Nyw1OC42YzAsMC4zMy0wLjMsMC42LTAuNjMsMC42ICAgICBjLTExLjcsMC0xMS43LDAtMTEuNywwQzAuMyw1OS4yLDAsNTguOTMsMCw1OC42bDAsMEMwLDU4LjI3LDAuMyw1OCwwLjY0LDU4YzExLjcsMCwxMS43LDAsMTEuNywwICAgICBDMTIuNjcsNTgsMTIuOTcsNTguMjcsMTIuOTcsNTguNnoiLz4mI3hhOwkJPC9nPiYjeGE7CQk8ZyBpZD0ic2hhcGUzNDg2LTEyIiB0cmFuc2Zvcm09InRyYW5zbGF0ZSgyMS4wMDk3LC01NS4zNjA2KSI+JiN4YTsJCQk8dGl0bGUgaWQ9InRpdGxlMjQwNSI+U2hlZXQuMzQ4NjwvdGl0bGU+JiN4YTsJCQk8cGF0aCBpZD0icGF0aDI0MDciIGlua3NjYXBlOmNvbm5lY3Rvci1jdXJ2YXR1cmU9IjAiIHN0eWxlPSJmaWxsOiM4RTlGQjA7IiBkPSJNMCw1OC40OGMwLTAuNCwwLjMyLTAuNzIsMC43Mi0wLjcyICAgICBzMC43MiwwLjMyLDAuNzIsMC43MmMwLDAuMzktMC4zMiwwLjcyLTAuNzIsMC43MlMwLDU4Ljg3LDAsNTguNDh6Ii8+JiN4YTsJCTwvZz4mI3hhOwkJPGcgaWQ9InNoYXBlMzQ4Ny0xNCIgdHJhbnNmb3JtPSJ0cmFuc2xhdGUoNi4yNDI4OSwtMi4wMzcwOCkiPiYjeGE7CQkJPHRpdGxlIGlkPSJ0aXRsZTI0MTAiPlNoZWV0LjM0ODc8L3RpdGxlPiYjeGE7CQkJPHBhdGggaWQ9InBhdGgyNDEyIiBpbmtzY2FwZTpjb25uZWN0b3ItY3VydmF0dXJlPSIwIiBzdHlsZT0iZmlsbDojOEU5RkIwOyIgZD0iTTE2LjIxLDU4LjY5YzAsMC4zLTAuMiwwLjUxLTAuNDksMC41MSAgICAgYy0xNS4xOCwwLTE1LjE4LDAtMTUuMTgsMEMwLjI1LDU5LjIsMCw1OC45OSwwLDU4LjY5bDAsMGMwLTAuMzEsMC4yNS0wLjU3LDAuNTQtMC41N2MxNS4xOCwwLDE1LjE4LDAsMTUuMTgsMCAgICAgQzE2LjAxLDU4LjEyLDE2LjIxLDU4LjM4LDE2LjIxLDU4LjY5eiIvPiYjeGE7CQk8L2c+JiN4YTsJCTxnIGlkPSJzaGFwZTM0ODgtMTYiIHRyYW5zZm9ybT0idHJhbnNsYXRlKDcuOTIzNjcsLTI2Ljg0MTUpIj4mI3hhOwkJCTx0aXRsZSBpZD0idGl0bGUyNDE1Ij5TaGVldC4zNDg4PC90aXRsZT4mI3hhOwkJCTxwYXRoIGlkPSJwYXRoMjQxNyIgaW5rc2NhcGU6Y29ubmVjdG9yLWN1cnZhdHVyZT0iMCIgc3R5bGU9ImZpbGw6I0ZGRkZGRjsiIGQ9Ik0xMS45NCw1My42OGMtMC41LDAtMC45MiwwLjQyLTAuOTIsMC45NSAgICAgYzAsMy42MywwLDMuNjMsMCwzLjYzYzAsMC41MiwwLjQyLDAuOTQsMC45MiwwLjk0YzAuNDksMCwwLjkxLTAuNDIsMC45MS0wLjk0YzAtMy42MywwLTMuNjMsMC0zLjYzICAgICBDMTIuODUsNTQuMSwxMi40Myw1My42OCwxMS45NCw1My42OHogTTAuOTIsNTMuNjhDMC40Miw1My42OCwwLDU0LjEsMCw1NC42M2MwLDMuNjMsMCwzLjYzLDAsMy42M2MwLDAuNTIsMC40MiwwLjk0LDAuOTIsMC45NCAgICAgczAuOTEtMC40MiwwLjkxLTAuOTRjMC0zLjYzLDAtMy42MywwLTMuNjNDMS44Myw1NC4xLDEuNDIsNTMuNjgsMC45Miw1My42OHoiLz4mI3hhOwkJPC9nPiYjeGE7CQk8ZyBpZD0ic2hhcGUzNDg5LTE4IiB0cmFuc2Zvcm09InRyYW5zbGF0ZSgxMC4zMjQ4LC0yMi4wNDg0KSI+JiN4YTsJCQk8dGl0bGUgaWQ9InRpdGxlMjQyMCI+U2hlZXQuMzQ4OTwvdGl0bGU+JiN4YTsJCQk8cGF0aCBpZD0icGF0aDI0MjIiIGlua3NjYXBlOmNvbm5lY3Rvci1jdXJ2YXR1cmU9IjAiIHN0eWxlPSJmaWxsOiNGRkZGRkY7IiBkPSJNMCw0OC44OWMwLDYuNjQsMCw2LjY0LDAsNi42NCAgICAgYzAsMC40LDAuMzIsMC43MSwwLjcxLDAuNzFjMC44MiwwLDAuODIsMCwwLjgyLDBjMCwyLjAyLDAsMi4wMiwwLDIuMDJjMCwwLjUyLDAuNDIsMC45NCwwLjkyLDAuOTRjMC41MSwwLDAuOTMtMC40MiwwLjkzLTAuOTQgICAgIGMwLTIuMDIsMC0yLjAyLDAtMi4wMmMxLjQxLDAsMS40MSwwLDEuNDEsMGMwLDIuMDIsMCwyLjAyLDAsMi4wMmMwLDAuNTIsMC40MiwwLjk0LDAuOTMsMC45NGMwLjUsMCwwLjkyLTAuNDIsMC45Mi0wLjk0ICAgICBjMC0yLjAyLDAtMi4wMiwwLTIuMDJjMC44MiwwLDAuODIsMCwwLjgyLDBjMC40LDAsMC43LTAuMzEsMC43LTAuNzFjMC02LjY0LDAtNi42NCwwLTYuNjRIMHoiLz4mI3hhOwkJPC9nPiYjeGE7CQk8ZyBpZD0ic2hhcGUzNDkwLTIwIiB0cmFuc2Zvcm09InRyYW5zbGF0ZSgxMC4zMjQ4LC0zMi45NTI4KSI+JiN4YTsJCQk8dGl0bGUgaWQ9InRpdGxlMjQyNSI+U2hlZXQuMzQ5MDwvdGl0bGU+JiN4YTsJCQk8cGF0aCBpZD0icGF0aDI0MjciIGlua3NjYXBlOmNvbm5lY3Rvci1jdXJ2YXR1cmU9IjAiIHN0eWxlPSJmaWxsOiNGRkZGRkY7IiBkPSJNNS45NCw1Ni40MWMwLjc1LTEuMDYsMC43NS0xLjA2LDAuNzUtMS4wNiAgICAgYzAuMDQtMC4wNiwwLjAyLTAuMTUtMC4wMy0wLjE4Yy0wLjA2LTAuMDUtMC4xNC0wLjAzLTAuMTgsMC4wM0M1LjcsNTYuMzMsNS43LDU2LjMzLDUuNyw1Ni4zM0M1LjE4LDU2LjEyLDQuNjIsNTYsNC4wMiw1NiAgICAgYy0wLjU5LDAtMS4xNSwwLjEyLTEuNjYsMC4zM0MxLjU3LDU1LjIsMS41Nyw1NS4yLDEuNTcsNTUuMmMtMC4wNC0wLjA2LTAuMTItMC4wOC0wLjE4LTAuMDNjLTAuMDUsMC4wMy0wLjA3LDAuMTItMC4wMiwwLjE4ICAgICBjMC43NCwxLjA2LDAuNzQsMS4wNiwwLjc0LDEuMDZDMC45Myw1Ni45NiwwLjExLDU4LDAsNTkuMmM4LjA0LDAsOC4wNCwwLDguMDQsMEM3Ljk1LDU4LDcuMTIsNTYuOTYsNS45NCw1Ni40MXogTTIuMzMsNTguMSAgICAgYy0wLjI0LDAtMC40NS0wLjIxLTAuNDUtMC40NWMwLTAuMjIsMC4yMS0wLjQyLDAuNDUtMC40MmMwLjI1LDAsMC40NCwwLjIsMC40NCwwLjQyQzIuNzcsNTcuODksMi41OCw1OC4xLDIuMzMsNTguMXogTTUuNzgsNTguMSAgICAgYy0wLjI1LDAtMC40NC0wLjIxLTAuNDQtMC40NWMwLTAuMjIsMC4xOS0wLjQyLDAuNDQtMC40MnMwLjQ2LDAuMiwwLjQ2LDAuNDJDNi4yNCw1Ny44OSw2LjAzLDU4LjEsNS43OCw1OC4xeiIvPiYjeGE7CQk8L2c+JiN4YTsJPC9nPiYjeGE7PC9nPiYjeGE7PC9zdmc+;" parent="28heIlWIprtDJxRmpmQK-5" vertex="1">
          <mxGeometry width="29" height="59" as="geometry" />
        </mxCell>
        <mxCell id="eWjkR0wsdmifyLcniZH0-2" value="" style="shape=image;verticalLabelPosition=bottom;labelBackgroundColor=none;verticalAlign=top;aspect=fixed;imageAspect=0;image=data:image/svg+xml,PHN2ZyB4bWxuczpjYz0iaHR0cDovL2NyZWF0aXZlY29tbW9ucy5vcmcvbnMjIiB4bWxuczpkYz0iaHR0cDovL3B1cmwub3JnL2RjL2VsZW1lbnRzLzEuMS8iIHhtbG5zOmlua3NjYXBlPSJodHRwOi8vd3d3Lmlua3NjYXBlLm9yZy9uYW1lc3BhY2VzL2lua3NjYXBlIiB4bWxuczpyZGY9Imh0dHA6Ly93d3cudzMub3JnLzE5OTkvMDIvMjItcmRmLXN5bnRheC1ucyMiIHhtbG5zOnNvZGlwb2RpPSJodHRwOi8vc29kaXBvZGkuc291cmNlZm9yZ2UubmV0L0RURC9zb2RpcG9kaS0wLmR0ZCIgeG1sbnM6c3ZnPSJodHRwOi8vd3d3LnczLm9yZy8yMDAwL3N2ZyIgeG1sbnM9Imh0dHA6Ly93d3cudzMub3JnLzIwMDAvc3ZnIiB4bWxuczp4bGluaz0iaHR0cDovL3d3dy53My5vcmcvMTk5OS94bGluayIgdmVyc2lvbj0iMS4xIiBpZD0ic3ZnNDE2OSIgaW5rc2NhcGU6dmVyc2lvbj0iMC45Mi4zICgyNDA1NTQ2LCAyMDE4LTAzLTExKSIgc29kaXBvZGk6ZG9jbmFtZT0iZGV2aWNlX2lwaG9uZS5zdmciIHg9IjBweCIgeT0iMHB4IiB2aWV3Qm94PSIwIDAgMjguODEgNTguMTIiIHN0eWxlPSJlbmFibGUtYmFja2dyb3VuZDpuZXcgMCAwIDI4LjgxIDU4LjEyOyIgeG1sOnNwYWNlPSJwcmVzZXJ2ZSI+JiN4YTs8c29kaXBvZGk6bmFtZWR2aWV3IGJvcmRlcmNvbG9yPSIjNjY2NjY2IiBib3JkZXJvcGFjaXR5PSIxIiBmaXQtbWFyZ2luLWJvdHRvbT0iMCIgZml0LW1hcmdpbi1sZWZ0PSIwIiBmaXQtbWFyZ2luLXJpZ2h0PSIwIiBmaXQtbWFyZ2luLXRvcD0iMCIgZ3JpZHRvbGVyYW5jZT0iMTAiIGd1aWRldG9sZXJhbmNlPSIxMCIgaWQ9Im5hbWVkdmlldzQxNzEiIGlua3NjYXBlOmN1cnJlbnQtbGF5ZXI9InN2ZzQxNjkiIGlua3NjYXBlOmN4PSIxOS4yMDg4NTYiIGlua3NjYXBlOmN5PSIzOC43NDg4NDQiIGlua3NjYXBlOnBhZ2VvcGFjaXR5PSIwIiBpbmtzY2FwZTpwYWdlc2hhZG93PSIyIiBpbmtzY2FwZTp3aW5kb3ctaGVpZ2h0PSIxMDE3IiBpbmtzY2FwZTp3aW5kb3ctbWF4aW1pemVkPSIxIiBpbmtzY2FwZTp3aW5kb3ctd2lkdGg9IjE5MjAiIGlua3NjYXBlOndpbmRvdy14PSItOCIgaW5rc2NhcGU6d2luZG93LXk9Ii04IiBpbmtzY2FwZTp6b29tPSIxMS4xODg3IiBvYmplY3R0b2xlcmFuY2U9IjEwIiBwYWdlY29sb3I9IiNmZmZmZmYiIHNob3dncmlkPSJmYWxzZSI+JiN4YTsJPC9zb2RpcG9kaTpuYW1lZHZpZXc+JiN4YTs8ZyBpZD0iZzQxNjciIHRyYW5zZm9ybT0idHJhbnNsYXRlKC0xLjczNjE4NDllLTUpIj4mI3hhOwk8dGl0bGUgaWQ9InRpdGxlNDEyMiI+UGFnZS0xPC90aXRsZT4mI3hhOwk8ZyBpZD0iZ3JvdXAzNDU4LTEiPiYjeGE7CQk8dGl0bGUgaWQ9InRpdGxlNDEyNCI+RGV2aWNlOiBpUGhvbmU8L3RpdGxlPiYjeGE7CQk8ZyBpZD0ic2hhcGUzNDU5LTIiPiYjeGE7CQkJPHRpdGxlIGlkPSJ0aXRsZTQxMjYiPlNoZWV0LjM0NTk8L3RpdGxlPiYjeGE7CQkJPHBhdGggaWQ9InBhdGg0MTI4IiBpbmtzY2FwZTpjb25uZWN0b3ItY3VydmF0dXJlPSIwIiBzdHlsZT0iZmlsbDojM0Y1NzY1OyIgZD0iTTI4LjgxLDUzLjhjMCwyLjQyLTEuOSw0LjMyLTQuMzQsNC4zMiAgICAgYy0yMC4wNywwLTIwLjA3LDAtMjAuMDcsMGMtMi40MywwLTQuNC0xLjktNC40LTQuMzJDMCw0LjM3LDAsNC4zNywwLDQuMzdDMCwxLjk1LDEuOTcsMCw0LjQsMGMyMC4wNywwLDIwLjA3LDAsMjAuMDcsMCAgICAgYzIuNDQsMCw0LjM0LDEuOTUsNC4zNCw0LjM3VjUzLjh6Ii8+JiN4YTsJCTwvZz4mI3hhOwkJPGcgaWQ9InNoYXBlMzQ2MC00IiB0cmFuc2Zvcm09InRyYW5zbGF0ZSgxMi42MDU4LC01NC40MDIpIj4mI3hhOwkJCTx0aXRsZSBpZD0idGl0bGU0MTMxIj5TaGVldC4zNDYwPC90aXRsZT4mI3hhOwkJCTxwYXRoIGlkPSJwYXRoNDEzMyIgaW5rc2NhcGU6Y29ubmVjdG9yLWN1cnZhdHVyZT0iMCIgc3R5bGU9ImZpbGw6IzhFOUZCMDsiIGQ9Ik0zLjg0LDU3Ljg2YzAsMC4xNy0wLjA5LDAuMjYtMC4yNCwwLjI2ICAgICBjLTMuMzEsMC0zLjMxLDAtMy4zMSwwQzAuMTUsNTguMTIsMCw1OC4wMywwLDU3Ljg2bDAsMGMwLTAuMTMsMC4xNS0wLjIyLDAuMjktMC4yMmMzLjMxLDAsMy4zMSwwLDMuMzEsMCAgICAgQzMuNzUsNTcuNjQsMy44NCw1Ny43MywzLjg0LDU3Ljg2eiIvPiYjeGE7CQk8L2c+JiN4YTsJCTxnIGlkPSJzaGFwZTM0NjEtNiIgdHJhbnNmb3JtPSJ0cmFuc2xhdGUoMTIuNjA1OCwtMS43OTc0MikiPiYjeGE7CQkJPHRpdGxlIGlkPSJ0aXRsZTQxMzYiPlNoZWV0LjM0NjE8L3RpdGxlPiYjeGE7CQkJPHBhdGggaWQ9InBhdGg0MTM4IiBpbmtzY2FwZTpjb25uZWN0b3ItY3VydmF0dXJlPSIwIiBzdHlsZT0iZmlsbDojOEU5RkIwOyIgZD0iTTAsNTYuMjZjMC0xLjAyLDAuODYtMS44NiwxLjkyLTEuODYgICAgIGMxLjA3LDAsMS45MiwwLjg0LDEuOTIsMS44NmMwLDEuMDMtMC44NSwxLjg2LTEuOTIsMS44NkMwLjg2LDU4LjEyLDAsNTcuMjksMCw1Ni4yNnoiLz4mI3hhOwkJPC9nPiYjeGE7CQk8ZyBpZD0ic2hhcGUzNDYyLTgiIHRyYW5zZm9ybT0idHJhbnNsYXRlKDEwLjA4NDcsLTU0LjE2MjMpIj4mI3hhOwkJCTx0aXRsZSBpZD0idGl0bGU0MTQxIj5TaGVldC4zNDYyPC90aXRsZT4mI3hhOwkJCTxwYXRoIGlkPSJwYXRoNDE0MyIgaW5rc2NhcGU6Y29ubmVjdG9yLWN1cnZhdHVyZT0iMCIgc3R5bGU9ImZpbGw6IzhFOUZCMDsiIGQ9Ik0wLDU3LjY0YzAtMC4yNiwwLjIyLTAuNDgsMC40OC0wLjQ4ICAgICBjMC4yNywwLDAuNDgsMC4yMiwwLjQ4LDAuNDhjMCwwLjI3LTAuMjEsMC40OC0wLjQ4LDAuNDhDMC4yMiw1OC4xMiwwLDU3LjkxLDAsNTcuNjR6Ii8+JiN4YTsJCTwvZz4mI3hhOwkJPGcgaWQ9InNoYXBlMzQ2My0xMCIgdHJhbnNmb3JtPSJ0cmFuc2xhdGUoMTQuMjg2NiwtNTYuMzE5MykiPiYjeGE7CQkJPHRpdGxlIGlkPSJ0aXRsZTQxNDYiPlNoZWV0LjM0NjM8L3RpdGxlPiYjeGE7CQkJPHBhdGggaWQ9InBhdGg0MTQ4IiBpbmtzY2FwZTpjb25uZWN0b3ItY3VydmF0dXJlPSIwIiBzdHlsZT0iZmlsbDojOEU5RkIwOyIgZD0iTTAsNTcuODhjMC0wLjEzLDAuMTQtMC4yNCwwLjMtMC4yNCAgICAgYzAuMTcsMCwwLjMsMC4xMSwwLjMsMC4yNHMtMC4xMywwLjI0LTAuMywwLjI0QzAuMTQsNTguMTIsMCw1OC4wMSwwLDU3Ljg4eiIvPiYjeGE7CQk8L2c+JiN4YTsJCTxnIGlkPSJzaGFwZTM0NjQtMTIiIHRyYW5zZm9ybT0idHJhbnNsYXRlKDEuNjgwNzgsLTYuMzUwODkpIj4mI3hhOwkJCTx0aXRsZSBpZD0idGl0bGU0MTUxIj5TaGVldC4zNDY0PC90aXRsZT4mI3hhOwkJCTxwYXRoIGlkPSJwYXRoNDE1MyIgaW5rc2NhcGU6Y29ubmVjdG9yLWN1cnZhdHVyZT0iMCIgc3R5bGU9ImZpbGw6IzhEOUZCMDsiIGQ9Ik0wLDEyLjd2NDUuNDJoMjUuNjlWMTIuN0gweiIvPiYjeGE7CQk8L2c+JiN4YTsJCTxnIGlkPSJzaGFwZTM0NjUtMTQiIHRyYW5zZm9ybT0idHJhbnNsYXRlKDguNDM4NDgsLTIzLjYwNjIpIj4mI3hhOwkJCTx0aXRsZSBpZD0idGl0bGU0MTU2Ij5TaGVldC4zNDY1PC90aXRsZT4mI3hhOwkJCTxwYXRoIGlkPSJwYXRoNDE1OCIgaW5rc2NhcGU6Y29ubmVjdG9yLWN1cnZhdHVyZT0iMCIgc3R5bGU9ImZpbGw6I0ZGRkZGRjsiIGQ9Ik0xMi4zMyw1NC4yOWMtMC4zNCwwLjczLTAuNTEsMS4wNy0wLjk0LDEuNzIgICAgIGMtMC42LDAuOTUtMS40NiwyLjA3LTIuNSwyLjExYy0wLjk0LDAtMS4yLTAuNjUtMi40NS0wLjZjLTEuMjgsMC0xLjU0LDAuNi0yLjQ5LDAuNmMtMS4wNy0wLjA0LTEuODUtMS4wNy0yLjQ1LTEuOTggICAgIGMtMS43Mi0yLjU4LTEuODktNS42LTAuODYtNy4yNGMwLjc3LTEuMTIsMS45NC0xLjgxLDMuMDEtMS44MWMxLjEyLDAsMS44NSwwLjY1LDIuNzUsMC42NXMxLjQ3LTAuNjUsMi43NS0wLjY1ICAgICBjMC45OSwwLDIuMDMsMC41NiwyLjc1LDEuNDdDOS40OSw0OS44OSw5Ljg5LDUzLjM0LDEyLjMzLDU0LjI5eiIvPiYjeGE7CQk8L2c+JiN4YTsJCTxnIGlkPSJzaGFwZTM0NjYtMTYiIHRyYW5zZm9ybT0idHJhbnNsYXRlKDEzLjU3NjYsLTM0LjUxMDUpIj4mI3hhOwkJCTx0aXRsZSBpZD0idGl0bGU0MTYxIj5TaGVldC4zNDY2PC90aXRsZT4mI3hhOwkJCTxwYXRoIGlkPSJwYXRoNDE2MyIgaW5rc2NhcGU6Y29ubmVjdG9yLWN1cnZhdHVyZT0iMCIgc3R5bGU9ImZpbGw6I0ZGRkZGRjsiIGQ9Ik0yLjIsNTYuOTZjMC40NS0wLjYsMC43OS0xLjQxLDAuNjctMi4zMiAgICAgYy0wLjcyLDAuMDktMS42LDAuNTYtMi4xNSwxLjIxYy0wLjQ3LDAuNTUtMC44NSwxLjQxLTAuNjgsMi4yN0MwLjg1LDU4LjEyLDEuNzMsNTcuNjQsMi4yLDU2Ljk2eiIvPiYjeGE7CQk8L2c+JiN4YTsJPC9nPiYjeGE7PC9nPiYjeGE7PC9zdmc+;" parent="28heIlWIprtDJxRmpmQK-5" vertex="1">
          <mxGeometry x="50" y="0.5" width="29" height="58" as="geometry" />
        </mxCell>
        <mxCell id="28heIlWIprtDJxRmpmQK-7" value="1" style="ellipse;whiteSpace=wrap;html=1;aspect=fixed;fillColor=#4D9900;strokeColor=none;labelBackgroundColor=none;" parent="1" vertex="1">
          <mxGeometry x="250.5" y="397" width="23" height="23" as="geometry" />
        </mxCell>
        <mxCell id="28heIlWIprtDJxRmpmQK-15" value="5" style="ellipse;whiteSpace=wrap;html=1;aspect=fixed;fillColor=#4D9900;strokeColor=none;labelBackgroundColor=none;" parent="1" vertex="1">
          <mxGeometry x="250" y="442" width="23" height="23" as="geometry" />
        </mxCell>
        <mxCell id="28heIlWIprtDJxRmpmQK-16" value="2" style="ellipse;whiteSpace=wrap;html=1;aspect=fixed;fillColor=#4D9900;strokeColor=none;labelBackgroundColor=none;" parent="1" vertex="1">
          <mxGeometry x="505" y="398" width="23" height="23" as="geometry" />
        </mxCell>
        <mxCell id="28heIlWIprtDJxRmpmQK-17" value="3" style="ellipse;whiteSpace=wrap;html=1;aspect=fixed;fillColor=#4D9900;strokeColor=none;labelBackgroundColor=none;" parent="1" vertex="1">
          <mxGeometry x="663" y="397.5" width="23" height="23" as="geometry" />
        </mxCell>
        <mxCell id="28heIlWIprtDJxRmpmQK-18" value="4" style="ellipse;whiteSpace=wrap;html=1;aspect=fixed;fillColor=#4D9900;strokeColor=none;labelBackgroundColor=none;" parent="1" vertex="1">
          <mxGeometry x="887" y="398.5" width="23" height="23" as="geometry" />
        </mxCell>
        <mxCell id="28heIlWIprtDJxRmpmQK-19" value="7" style="ellipse;whiteSpace=wrap;html=1;aspect=fixed;fillColor=#4D9900;strokeColor=none;labelBackgroundColor=none;" parent="1" vertex="1">
          <mxGeometry x="697" y="545" width="23" height="23" as="geometry" />
        </mxCell>
        <mxCell id="28heIlWIprtDJxRmpmQK-20" value="6" style="ellipse;whiteSpace=wrap;html=1;aspect=fixed;fillColor=#4D9900;strokeColor=none;labelBackgroundColor=none;" parent="1" vertex="1">
          <mxGeometry x="891" y="545" width="23" height="23" as="geometry" />
        </mxCell>
        <mxCell id="rI1JX8pW7Fap40Gf1UJg-1" value="" style="rounded=0;whiteSpace=wrap;html=1;fillColor=#EAEDED;fontSize=22;fontColor=#FFFFFF;strokeColor=none;labelBackgroundColor=none;" parent="1" vertex="1">
          <mxGeometry x="1073.5" y="156.5" width="539" height="855" as="geometry" />
        </mxCell>
        <mxCell id="rI1JX8pW7Fap40Gf1UJg-2" value="&lt;span&gt;Lorem ipsum dolor sit amet, consectetur adipiscing elit, sed do eiusmod tempor incididunt ut labore et dolore magna aliqua. Ut enim ad minim veniam, quis nostrud exercitation ullamco laboris nisi ut aliquip ex ea commodo consequat. Duis aute irure dolor in reprehenderit in voluptate velit esse cillum dolore eu fugiat nulla pariatur. Excepteur sint occaecat cupidatat non proident, sunt in culpa qui officia deserunt mollit anim id est laborum.&lt;/span&gt;&lt;br&gt;" style="text;html=1;align=left;verticalAlign=top;spacingTop=-4;fontSize=14;labelBackgroundColor=none;whiteSpace=wrap;" parent="1" vertex="1">
          <mxGeometry x="1143" y="167.5" width="449" height="118" as="geometry" />
        </mxCell>
        <mxCell id="rI1JX8pW7Fap40Gf1UJg-3" value="&lt;span&gt;Lorem ipsum dolor sit amet, consectetur adipiscing elit, sed do eiusmod tempor incididunt ut labore et dolore magna aliqua. Ut enim ad minim veniam, quis nostrud exercitation ullamco laboris nisi ut aliquip ex ea commodo consequat. Duis aute irure dolor in reprehenderit in voluptate velit esse cillum dolore eu fugiat nulla pariatur. Excepteur sint occaecat cupidatat non proident, sunt in culpa qui officia deserunt mollit anim id est laborum.&lt;/span&gt;&lt;br&gt;" style="text;html=1;align=left;verticalAlign=top;spacingTop=-4;fontSize=14;labelBackgroundColor=none;whiteSpace=wrap;" parent="1" vertex="1">
          <mxGeometry x="1142" y="290.5" width="450" height="115" as="geometry" />
        </mxCell>
        <mxCell id="rI1JX8pW7Fap40Gf1UJg-4" value="&lt;span&gt;Lorem ipsum dolor sit amet, consectetur adipiscing elit, sed do eiusmod tempor incididunt ut labore et dolore magna aliqua. Ut enim ad minim veniam, quis nostrud exercitation ullamco laboris nisi ut aliquip ex ea commodo consequat. Duis aute irure dolor in reprehenderit in voluptate velit esse cillum dolore eu fugiat nulla pariatur. Excepteur sint occaecat cupidatat non proident, sunt in culpa qui officia deserunt mollit anim id est laborum.&lt;/span&gt;&lt;br&gt;" style="text;html=1;align=left;verticalAlign=top;spacingTop=-4;fontSize=14;labelBackgroundColor=none;whiteSpace=wrap;" parent="1" vertex="1">
          <mxGeometry x="1142" y="408.5" width="450" height="117" as="geometry" />
        </mxCell>
        <mxCell id="rI1JX8pW7Fap40Gf1UJg-5" value="&lt;span&gt;Lorem ipsum dolor sit amet, consectetur adipiscing elit, sed do eiusmod tempor incididunt ut labore et dolore magna aliqua. Ut enim ad minim veniam, quis nostrud exercitation ullamco laboris nisi ut aliquip ex ea commodo consequat. Duis aute irure dolor in reprehenderit in voluptate velit esse cillum dolore eu fugiat nulla pariatur. Excepteur sint occaecat cupidatat non proident, sunt in culpa qui officia deserunt mollit anim id est laborum.&lt;/span&gt;&lt;br&gt;" style="text;html=1;align=left;verticalAlign=top;spacingTop=-4;fontSize=14;labelBackgroundColor=none;whiteSpace=wrap;" parent="1" vertex="1">
          <mxGeometry x="1142" y="524.5" width="450" height="121" as="geometry" />
        </mxCell>
        <mxCell id="rI1JX8pW7Fap40Gf1UJg-6" value="&lt;span&gt;Lorem ipsum dolor sit amet, consectetur adipiscing elit, sed do eiusmod tempor incididunt ut labore et dolore magna aliqua. Ut enim ad minim veniam, quis nostrud exercitation ullamco laboris nisi ut aliquip ex ea commodo consequat. Duis aute irure dolor in reprehenderit in voluptate velit esse cillum dolore eu fugiat nulla pariatur. Excepteur sint occaecat cupidatat non proident, sunt in culpa qui officia deserunt mollit anim id est laborum.&lt;/span&gt;&lt;br&gt;" style="text;html=1;align=left;verticalAlign=top;spacingTop=-4;fontSize=14;labelBackgroundColor=none;whiteSpace=wrap;" parent="1" vertex="1">
          <mxGeometry x="1143" y="641.5" width="449" height="114" as="geometry" />
        </mxCell>
        <mxCell id="rI1JX8pW7Fap40Gf1UJg-7" value="&lt;span&gt;Lorem ipsum dolor sit amet, consectetur adipiscing elit, sed do eiusmod tempor incididunt ut labore et dolore magna aliqua. Ut enim ad minim veniam, quis nostrud exercitation ullamco laboris nisi ut aliquip ex ea commodo consequat. Duis aute irure dolor in reprehenderit in voluptate velit esse cillum dolore eu fugiat nulla pariatur. Excepteur sint occaecat cupidatat non proident, sunt in culpa qui officia deserunt mollit anim id est laborum.&lt;/span&gt;&lt;br&gt;" style="text;html=1;align=left;verticalAlign=top;spacingTop=-4;fontSize=14;labelBackgroundColor=none;whiteSpace=wrap;" parent="1" vertex="1">
          <mxGeometry x="1143" y="757.5" width="450" height="118" as="geometry" />
        </mxCell>
        <mxCell id="rI1JX8pW7Fap40Gf1UJg-8" value="&lt;span&gt;Lorem ipsum dolor sit amet, consectetur adipiscing elit, sed do eiusmod tempor incididunt ut labore et dolore magna aliqua. Ut enim ad minim veniam, quis nostrud exercitation ullamco laboris nisi ut aliquip ex ea commodo consequat. Duis aute irure dolor in reprehenderit in voluptate velit esse cillum dolore eu fugiat nulla pariatur. Excepteur sint occaecat cupidatat non proident, sunt in culpa qui officia deserunt mollit anim id est laborum.&lt;/span&gt;&lt;br&gt;" style="text;html=1;align=left;verticalAlign=top;spacingTop=-4;fontSize=14;labelBackgroundColor=none;whiteSpace=wrap;" parent="1" vertex="1">
          <mxGeometry x="1143" y="872.5" width="449" height="113" as="geometry" />
        </mxCell>
        <mxCell id="rI1JX8pW7Fap40Gf1UJg-9" value="1" style="ellipse;whiteSpace=wrap;html=1;aspect=fixed;fillColor=#4D9900;strokeColor=none;labelBackgroundColor=none;" parent="1" vertex="1">
          <mxGeometry x="1093.5" y="174" width="23" height="23" as="geometry" />
        </mxCell>
        <mxCell id="rI1JX8pW7Fap40Gf1UJg-10" value="2" style="ellipse;whiteSpace=wrap;html=1;aspect=fixed;fillColor=#4D9900;strokeColor=none;labelBackgroundColor=none;" parent="1" vertex="1">
          <mxGeometry x="1093.5" y="295" width="23" height="23" as="geometry" />
        </mxCell>
        <mxCell id="rI1JX8pW7Fap40Gf1UJg-11" value="3" style="ellipse;whiteSpace=wrap;html=1;aspect=fixed;fillColor=#4D9900;strokeColor=none;labelBackgroundColor=none;" parent="1" vertex="1">
          <mxGeometry x="1093.5" y="416" width="23" height="23" as="geometry" />
        </mxCell>
        <mxCell id="rI1JX8pW7Fap40Gf1UJg-12" value="4" style="ellipse;whiteSpace=wrap;html=1;aspect=fixed;fillColor=#4D9900;strokeColor=none;labelBackgroundColor=none;" parent="1" vertex="1">
          <mxGeometry x="1093.4999999999995" y="533" width="23" height="23" as="geometry" />
        </mxCell>
        <mxCell id="rI1JX8pW7Fap40Gf1UJg-13" value="5" style="ellipse;whiteSpace=wrap;html=1;aspect=fixed;fillColor=#4D9900;strokeColor=none;labelBackgroundColor=none;" parent="1" vertex="1">
          <mxGeometry x="1093.4999999999995" y="645.5" width="23" height="23" as="geometry" />
        </mxCell>
        <mxCell id="rI1JX8pW7Fap40Gf1UJg-14" value="6" style="ellipse;whiteSpace=wrap;html=1;aspect=fixed;fillColor=#4D9900;strokeColor=none;labelBackgroundColor=none;" parent="1" vertex="1">
          <mxGeometry x="1093.4999999999995" y="767" width="23" height="23" as="geometry" />
        </mxCell>
        <mxCell id="rI1JX8pW7Fap40Gf1UJg-15" value="7" style="ellipse;whiteSpace=wrap;html=1;aspect=fixed;fillColor=#4D9900;strokeColor=none;labelBackgroundColor=none;" parent="1" vertex="1">
          <mxGeometry x="1093.5" y="875.5" width="23" height="23" as="geometry" />
        </mxCell>
        <mxCell id="D-f0g4XA8TNqZnRXPo1R-2" value="Processus" style="html=1;overflow=block;blockSpacing=1;whiteSpace=wrap;fontSize=16.7;fontColor=#333333;align=center;spacing=9;strokeColor=#5e5e5e;strokeOpacity=100;rounded=1;absoluteArcSize=1;arcSize=9;strokeWidth=2.3;lucidId=4ahDvdWDK8_l;" vertex="1" parent="1">
          <mxGeometry x="536" y="159" width="120" height="90" as="geometry" />
        </mxCell>
        <UserObject label="&lt;div style=&quot;&quot;&gt;&lt;font style=&quot;font-family: &amp;quot;Segoe UI&amp;quot;; color: rgb(0, 120, 215); direction: ltr; letter-spacing: 0px; line-height: 120%; opacity: 1; font-size: 12px;&quot;&gt;SQL database&lt;/font&gt;&lt;/div&gt;" tags="Arrière-plan" id="D-f0g4XA8TNqZnRXPo1R-3">
          <mxCell style="verticalAlign=top;align=center;vsdxID=108;fillColor=none;gradientColor=none;image;aspect=fixed;image=data:image/png,iVBORw0KGgoAAAANSUhEUgAAAbEAAAGxCAYAAADs0IixAAAAAXNSR0IArs4c6QAAAARnQU1BAACxjwv8YQUAAAAJcEhZcwAAFiUAABYlAUlSJPAAAC3LSURBVHhe7d1/rB3lnd/xqFUqqqoVVauWVVdtWq22tAoJ2kW7lFVUUP6hVSMsrYSQoCsUpIrSrgLRBiFR1WmTLDRAXSCBJWkNlCUOu1AcMDHhl2scr7EJ/nXt6x/Y+De2McbYONfGhk7nc7zjnDv+Xt/z43nmeb4z7z9eIhnb95w595x5n5l55pnPFEUBAIBL5kIAADwwFwIA4IG5EAAAD8yFAAB4YC4EAMADcyEAAB6YCwEA8MBcCACAB+ZCAAA8MBcCAOCBuRAAAA/MhQAAeGAuBADAA3MhAAAemAsBAPDAXAgAgAfmQgCz2/H+T4qN+//nWLYc/FH5o+yfD2B25kKgTT7+5Oi0cCx9+98VL2++7qyXNv9+8dz63znHixt+KwvPrf/tc5/b5FemrcOrW/5g2jpqneuvA9BG5kIgd9Ve0F/suP3shnzRxL/s29Bfagahi54vX4vqdXl+4vfOvl7Ltv1h7zVkbxCemQuBlA4cWzktUNrrqDbC1kYa4VR7fT/dePW00OlLQ/33BOTAXAjEVoWqOrTXi9Q6e8OKfFR7ddXhTAKH1MyFQCg6VFXtURGqdusPXLUHV38/AKGZC4FhHf7lZG+jpVj1zk0RK/wlnZ+szsWt23d/ob3w+vsHGJW5EDif4yf39DZG1ai+FyYYRIHh/LR8z1R7bSt3/mfChpGZC4F+Ouehw0MvbPxy71u1tVECxqXDkdqL13lSRkxiUOZCdJs2IGfOYV3OXhaS0t6a9vi158+1b7CYC9Ete4682tvT0nkLHeaxNiZADvTFShd2MyISFXMh2k3ntFbvvrt3LZAO4VgbCyB3i9Z/sXf4UaNfNbCo/j5HN5gL0T76kGtvq3cy3dggAN5pRKwOg+vIQv39j/YyF6IdNOJLJ8kJF7pGA5AIWjeYC+HX2XBxnRbQQ9DazVwIf3StjU56Wx9iAGdobkidQ2OkY3uYC+GD9ro0/FgnuK0PLACbLh3RwCb2zvwzFyJv7HUB4VR7Z/XPGXwwFyJP+qAxJB6IQ0c0dD6ZQ42+mAuRF+IFNIeY+WIuRB6IF5AOMfPBXIi0NHchE+0CeVDMOGeWL3Mh0tB0UJop3vogAUhLg6kYzZgfcyGap296zBgP5E0TZOvCaQ4x5sNciOZoTkOmhQJ80eF+ZtLPg7kQzdCHgAuVAZ+0V6a7QdQ/12iWuRDx6YJl7t0F+KfDi/XPN5pjLkRcmirK+jAA8En3NeM8WRrmQsTz4uRXzA8BAN80evH0pyfKj7n92Ucc5kLEsfTtf2+++QG0gyYVrn/uEZe5EOGt23c/58CADnhty1fLj7y9HUB45kKEpQskuQYM6I5f7P5u+dG3twcIy1yIsJ6f+D3zjQ6gnRau/QLnxxpiLkQ4uhbMepMDaLdl275ebgLs7QLCMRciHPbCgG5ib6wZ5kKEoXNh1psbQDcsf+eOclNgbx8QhrkQYSzb9ofmGxtANzDkPj5zIcJYvPFfm29sAN3w3PrfLjcF9vYBYZgLEcZP1l1mvrEBdIMuralvFxCWuRBhPM/dmYHOO3rinXJzYG8jMD5zIcJ4fj17YkDX1bcLCMtciDAWb/yy+aYG0A2LJjgnFpu50LuTn3xa/sf+syYtffsPzDc2gG5YvOGqclNgbx+a9NHJT8r/2H/mnbnQuz1HPi7/Y/9Zk3Z/8KL5xgbQDcu2/YdyU2BvH5q07t1flv+x/8w7c6F3Ow6fLP9j/1nTXtjwL8w3N4B2W7T+i9ncKHPNXiLmSk4R23JgvvkGB9BuS7beWG4C7O1C01btOl7+x/4z78yF3ilia/bm80tbNHGF+SYH0E7PlXthJ04dKj/+9jahSSdPf1r8/J1j5f+0/9w7c6F3itjDyw+U/9P+86a9e/QN7icGdEhO9xNbs+948fp2IuaKInbz09vL/2n/eQqrd99tvtmRzvPrLyn+bPVvTvPYyl8vfrji1876k+V/r7jv//7NJB76+d+d9lyk/nx/su7z5rohnde2XF9+5O3tQAqPrTpIxLxRxC6a+2b5P+0/T0XHyK03PcanjXm1Ya9C9Mjyvz8tCv/l5b9SzH3pM613z5K/cXadFeF6AJ9d+8/N1xDjWzTxpeLT/5fH6OjKTU9tI2LeKGKf+fpfFIs3HSn/r/13Unlh41fMNz9sP524tLfh/fFbv3F2Yzxv6d/qbaC1sbY24hjc3a9dcDZ41ev75Jv/uPeavzDxRfN3AttP1v9ONqMRK4eOnyp+867VRMybKmI3Lni7/L/230mJkE33f9b8s95Gc/7KfzAtUtZGF82r9uy0Z6vfj35XT6/5p+bvsqueW3958ctT75Ufb/szn8ojKw4QMY+qiF1w+xvF/mOnykX230tJF0FqL8P6QLSRvtVr46dDfTrXo43it1/5rLnRhB86RKvf5fd+/nfOBk7nGq33QGtt+jfZHUIUjUq84oEJIuZRFTG5deGOcpH991KbPPBY+Q3uC/YHwzFtyJ548x+dPSdFrLqnipvOyemLi94TbTs8qRHHP3/nj8qPsv35Tk0DOhQwIuZQf8Ry3huT949vKJ5da39Icledr6oOAer8irVBAyr6QlMdmlzwi3/idq9t4dovFNsOLSw/wvbnOrX+vTAi5lB/xGTO/M3lYvvv5uK1LV/N/loynbt6fNU/7B06+u6Sv25upIBh/fFrf624//ULe+dE9aXIeu/lQl/cXtr8+1me/+r34LL9ZwNGxByqR0wWrM7j6vnzOfzLyWJhJrN76NBPNSJQ35y7MjwdedBgEh2K1EjJXK6F053adx5eXH5U7c9vLiYPTBWX3LOWiHlmRUzXjR2ZOl3+sf1vcrJ+30PlB6b5c2WKlg7zsJeF3GhvTQOCFLWmz61pIt+l275WfjTtz2turn18y7SAETGHrIjJld/fUP6x/W9yc/rTE+UH5z/25mCzPlgh6KJXnXTXoRz2tOCJ9tR0lCDmUH/F65XN/zb7Q4f9vvPK3nMCRsQcmilikvNoRcuZmH2tdyLZ+qANQ99gdTJd32j1zdbaOADefOvlv1o8sOxv90bEhjj06DFesmjyAzNgQsScOV/E5NFVvt6copgt2/b1cu9puA+pTkTrEIz2tqwNANA2OhyuAUjDjnzU5S4e4yWvbz96znmwfkTMmdkiJh5DJorZql13Fc+su8z8IEoVLn075TAhukyDkmYL2rNrz1zvdeJ0ftPUDWK2gAkRc2aQiInXkFV6t3jZ+JXe4Q99GHWoUMPfdXjF+kADXaajETrkqMPq+qL3wsYvZ32t1yAGCZgQMWcGjZh4D5lo72z13j8pfrjycvPDC+CMecs+V6zYOa84fnJP+dGxP09eDBowIWLODBMxaUPIKoeObyqWbJtbPLj8YvNDDHTNPUsvKp6fvLnY8cGS8iNif268GSZgQsScGTZi0qaQVQgaukp7XIu33NqqcFWGDZgQMWdGiZjobtAnTn9a/gj753pG0NB2Vbj2H1tTvuXtz4F3mtR32IAJEXNm1IjJpfetKzYdnCp/jP2z2+DI1I5izb5Hiz9ff11x12sMvYdP33rlgmLB2jm9c1z6klZ/n7fJ0ROfFLc8s90M1CCImDPjREwuvHOVi7kWQ9E312Xv3FU8+osrzY0FkIuHV1xavPz2HcXbh/KfwzCUNfuOF1c9tMGM06CImDPjRqzS5sOLM9FIx00Hn+1tKIgaUlO0NChjYv+C4qOT+8u3qP2+batRDx/WETFnQkVMdHhRP6/+GF2y58MVvUM2Ovyo8w7WxgYYl0YR6vCgjgpoQIa+UNXfi10x7uHDOiLmTMiIiW6sederezu3VzYTfSPu31vjvBqGpfNZeu9oIIb2snSetv4+66ofrT407YaWIRAxZ0JHrHLx3WuKxZt8Tk0Tm8Kmb88aAak9Nh0GsjZe6B6NiNUelt4bOpdFsGw692XdRiUEIuZMrIhVdKfo/cdOlQ9lPz5+RYciNRJSGzB98yZu7aVDzdXe1Zt7Hm7lNVoxHDp+qpj74m4zPqEQMWdiR0w4xDgefRvXRk7n2gicH/2h0u9Nv8M2X5cVmwZuXDZvnRmekIiYM01ErKJDjM9OHC4f1n4uGF4VuGoPThtMbTjF2rAiHM2/qddZIwL12ld7VIQqrJW7Piqumb/JDE4MRMyZJiNW0ShGYtYcbVT7Qyc6F1fFjplJfqXae5Lq3FR/oHTIt/76Ig5NGXXDk1vN0MRExJxJEbGK9szaOA+jZxqqrY11pTqEWalGWdZZQUih2jvqVx3Oq1TD0itdHp6eo5e3fNjonlcdEXMmZcQqn/v2W72Ycc6svaq9wXGwF9RuqeNVIWLO5BCxykVz3yzmLX2XmAEd8sz6w2NPFRUSEXMmp4hVFLM7Fu3q/OwfQFtplg1dqJxTvCpEzJkcI9bv6h9MdmqCYaDNdJHyHYt2BpnjMBYi5kzuEauwdwb4VO116QupFY3cEDFnvESsH3tnQP487HVZiJgzHiNW0d7ZrQt3FGv2Hi9XxV4/AM3Z++HHhWbW8LLXZSFizniOWD8N0ydoQPO2v3+ieHDZ/iyGx4dAxJxpS8T6KWi6SeeSbUfLVbTXG8DoJg9M9cLleY9rJkTMmTZGrJ8OORI0YHwK13de2ZvlsPiQiJgzbY9YPwXtuie29mYH4fYwwPlpVOGiyQ96gzPaHq5+RMyZLkWsTnM36jyaJiNmlhDgzIzx9y7Z15rzW6MgYs50OWJ1V35/Q+++Zyt2tvdNDPTToAyNJrzlme3uhsLHQsScIWK2C+9c1Tv0+PDyA4x4RGsoWpqrUIcIr3hgwtyIdx0Rc4aIDUZ3p9ae2jd/tqdYvOlIcWTqdPny2a8pkIOTpz8tdHhQowhvempbI3dFbgMi5gwRG53Oqd244O3e3tqmg1Ply2m/xkATNHpQ0ztpL6vL57TGRcScIWLh6BCkrpup9tYIG2JRsHT/Le1l6e7HnM8Kh4g5Q8Ti02FI7bFp0IiuV2N4PwZ16Pips4cEtYd17eNbzA0vwiFizhCxNKpzbBrirxuBKm6cZ+s2xUqHA3VBsfauOIeVBhFzhojlpYrbnPmbe4cldb5NgdPvqf67gy+6eFih0gXE1Z6VYsUowbwQMWeImC+X3reuFzndW02RU+C4ri0fOlelUD2y4sDZ81UcAvSFiDlDxNrl8vsnepGrBpj0781xyHI01VB10TVWipPoAmFFSqyNIXwiYs4Qse5S7PoPXVaqASj92jAYpRok0U+zVVRRktsW7jgbJkb8dRMRc4aIYVRVBOvqUTyf//rSnmkRGVb/3lAdEcIoiJgzRAwpffYbK8wNCZAKEXOGiCElIobcEDFniBhSImLIDRFzhoghJSKG3BAxZ4gYUiJiyA0Rc4aIISUihtwQMWeIGFIiYsgNEXOGiCElIobcEDFniBhSImLIDRFzhoghJSKG3BAxZ4gYUiJiyA0Rc4aIISUihtwQMWeIGFIiYsgNEXOGiCElIobcEDFniBhSImLIDRFzhoghJSKG3BAxZ4gYUiJiyA0Rc4aIISUihtwQMWeIGFIiYsgNEXOGiCElIobcEDFniBhSImLIDRFzhoghJSKG3BAxZ4gYUiJiyA0Rc4aIISUihtwQMWeIGFIiYsgNEXOGiCElIobcEDFniBhSImLIDRFzhoghJSKG3BAxZ4gYUiJiyA0Rc4aIISUihtwQMWeIGFIiYsgNEXOGiCElIobcEDFniBhSImLIDRFzhoghJSKG3BAxZ4gYUiJiyA0Rc4aIISUihtwQMWeIGFIiYsgNEXOGiCElIobcEDFniBhSImLIDRFzhoghJSKG3BAxZ4gYUiJiyA0Rc4aIISUihtwQMWeIGFIiYsgNEXOGiCElIobcEDFniBhSImLIDRFzhoghJSKG3BAxZ4gYUiJiyA0Rc4aIISUihtwQMWeIGFIiYsgNEXOGiCElIobcEDFniBhSImLIDRFzhoghJSKG3BAxZ4gYUiJiyA0Rc4aIISUihtwQMWeIGFIiYsgNEXOGiCElIobcEDFniBhSImLIDRFzhoghJSKG3BAxZ4gYUiJiyA0Rc4aIISUihtwQMWeIGFIiYsgNEXOGiCElIobcEDFniBhSImLIDRFzhoghJSKG3BAxZ4gYUiJiyA0Rc4aIISUihtwQMWeIGFIiYsgNEXOGiCElIobcEDFniBhSImLIDRFzhoghJSKG3BAxZ4gYUiJiyA0Rc4aIISUihtwQMWeIGFIiYsgNEXOGiCElIobcEDFniBhSImLIDRFzhoghJSKG3BAxZ4gYUiJiyA0Rc4aIISUihtwQMWeIGFIiYsgNEXOGiCElIobcEDFniBhSImLIDRFzhoghJSKG3BAxZ4jYcC69b11x5fc3nHXrwh3FN3+2Z5o7Fu2a9nfkc99+y/x5XTdTxK56aENxw5Nbz7rlme3Fg8v2n3Xvkn3T/vya+ZvMnwMMi4g5Q8RsF9+9prj56e3Fo6veKzYdnCpfKvv1G9b+Y6eKJduOFos3HekF78YFb/fCaD2HLrhs3vritvKLgML0+vajxd4PPy5fJvu1G8TRE58UK3d9VDyy4kD5ZWJnce3jW8wNFTATIuYMETtD0VJUFJcjU6fLl8Z+vWJS3OYtfbcXtovmvmk+T+/0OmvvdcXOZjcUkwemiu+8sre3h2dtuLy56altvVjHoL1c6zG7gog50+WIXXD7G71gNL1BHZSipr1B70HTnqa+IITcox1HG4Kmvcz6eoXyzPrD5mN2BRFzposR097Aw8sPJNvjGoWCZq1LrvQFQXtcen/V1yUna/Yd751vszZmOSNi8RAxZ7oUMe3R6HBh/TXwwlqn3Fx456reXpfO/dWff860d+YpZkQsHiLmTFcipsOGnva8LNZ65aKKl/fX2EvMiFg8RMyZtkdMhw5zPec1LGv9cqBLCrzHq06HGa/+waS5kcsBEYuHiDnT5ohp43ri9Kflatrr7o21jinp8KzO1dWfZ1ucLN87uY7UI2LxEDFn2hoxXd9VX1fvrPVMpQ2HZwelYedXPDBhbvBSIWLxEDFn2hixNgZMrHVtmvfBMaPSRdS6KNva6KVAxOIhYs60LWJtDZhY69skXe+l90v9eXVJLocXiVg8RMyZNkWszQETa52bcvn9E505fDgbTWllbfyaRMTiIWLOtCViGt5dX7e2sda7CRql16YBMiGk3tATsXiImDNtiJhmiO/CRtZa99g0gKP+PHDGy1s+LC65Z625IYyNiMVDxJxpQ8S6MtDAWveYNG9j/TlgulQbfCIWDxFzxnvErntia7ka9rq1jbX+segeaBxCHIwmE7Y2hjERsXiImDOeI6ZJZr3N0TcO6zWIQYdnGcQxHN2Y09ogxkLE4iFizniO2F2v7i1XwV6vJukWI5q5oi70noz1GoSmORBzuWWKJ7qOrMlbuxCxeIiYM54jpudeX5/YtIHXYAcdbtMG33peFl1jpXNMC1YfGvl5Wz83tC5eyBzK9vdPNDbQg4jFQ8Sc8RoxXbdUX5eYtGc1Z/5m87mMQjNf6Ofp2rZB99isnxNSLnu2FU3CqymfFk1+UDy4bP80Pyq/DFR3ItYch/V/m0pT15ARsXiImDNeI9bUBlevj/a6rOcQivbotJc222E869+Goj3F+uM17dDxU704jXJ+6Zr5m4rHVh0s9DPqP7dJCmoTs98TsXiImDNeIzbqIblhrNl7vLfHZD1+LIqJ7jpt7Z1Zfz+UVLer0XoqPiEHRuhnKYb1x2rK69uPms8rJCIWDxFzxmPEmjiUqFGPTQesn+6DVj8/Zf29EFJd0KxDtJ+PeA7p2se3FDpPVX/cJsS+sSYRi4eIOeMxYrpPWH09QtP1Z9ZjN02Hpqq9TuvPx6VQN32ZgobvK5x6/M9+Y4W5IQlFAy10Dq3p82Z7P/w46iAPIhYPEXPGY8RiT/Sb22ui6+EUbuvPxqVDl/X1j0l7l/2jOmNHrKIvAwpL/fnEFPMiaCIWDxFzxmPEYg8D16AR63HbpunBHPq9Kcj9z6GpiImu42py4IceK9beGBGLh4g54zFisQch5HIoMbYm98KsgEmTERONYtSFyfXnF4tiYz2PcRGxeIiYMx4jpudcX4+QYg+pz4HOhTU1N+JMAZOmIyZNhmzywJT5HMZFxOIhYs54jFh9HULrQsSaGBwjukxhpoBJioiJhuHXn2ssGiVpPYdxELF4iJgz3iKmPYj6OoQ2J+DMHDlSVJoakajzbtZzqKSKmGgmkPrzjUH3HbMefxxELB4i5gwRO9etC3eYj90WTd2+ZpABMikjdsUDE40NvddjWc9hVEQsHiLmDIcTz/XsxGHzcdtCh/jq6xya3lfnO4xYSRkx0TD4+nOPIfRweyIWDxFzxmPEYh8K08W4g2yAPdK9wurrG4Ouy7Ievy51xDQEXoMv6s8/tNBTURGxeIiYMx4j1sT9rr75sz3mY3unQ6X1dQ1tmD3Z1BETTRFVX4fQdNgy5DVjRCweIuaMx4jFvthZNPxc8xdaj+9ZE6/doHthkkPEFJcmLoIOOZ8iEYuHiDnjMWLaS6qvRwx6bYa58WXudIg09rVhw76fcoiYaCb9+rqEppn1rcceBRGLh4g54zFi+qZfX49YdOhS55Gs5+HNnPmby1Wy1zOUYQ/D5hIxXQBdX5fQNHej9dijIGLxEDFnPEZMe0f19YhJAz2GOUSWqyammRr29jW5REyauG2L3kfWYw+LiMVDxJzxGDFpYph4nWbP93x4Ub/r+jqFNMqlCTlF7N4l+8rVsNctlFDnxYhYPETMGa8Ra2KUnUXD+3VYznpOOWti77W6R9gwcopYE4cUFUrrsYdFxOIhYs54jViTUydZdFfi2aZUykkTd8Me5fXIKWISewYPTXVlPe6wiFg8RMwZrxETTWtUX5+mLVh9yMXAj9h7rjpvaD3ubHKL2Jp9cQ9T67yb9bjDImLxEDFnPEesyduJzEbny3KOWexBHdoztR53NrlFTMPg6+sWWoiLnolYPETMGc8Rk6auGRtUrjGLfSPRUe+GnVvE5r64u1wdex1D0bk367GHQcTiIWLOeI+Yzo2lGKk4m9xipsN99ecY0pwRB7vkFjHd+6u+bqHdtnCH+djDIGLxEDFnvEdMNKAgl8OKdTnErInb14y6jrlFTIf66usWmgJkPfYwiFg8RMyZNkRMcjusWJcyZrpTdf35hDbq9XO5RUxij1DUIUvrcYdBxOIhYs60JWKii23r65cbnTtq+jYvTUTMetxB5BgxTQ9VX7+QHly233zcYRCxeIiYM22KmOKgUXL1dcxN0xdM67HqzyGkUYfXS44Riz39FBHLGxFzpk0REx3WynGgh0W3RWniEKNm0qg/dkjjvIdyjNjKXR+Vq2WvawghZrMnYvEQMWfaFjFRGJq4cWYIGpByx6Jd5nqEEjti+tJgPe4guhixEJEgYvEQMWfaGDHRHpmHQ4sVnc+LNbmwIll/vJBGvdBZcoyYNuL1dQyJiOWNiDnT1ohVmrj9SCj6XcSYjzH2yE0iNhwiljci5kzbIyY3P729XFV7/XOjw4t6vtZ6jIqIDSd2xDgnljci5kwXIiYX370m+tRLIQ17h+TziR2xtp0Tix0xRifmjYg505WIVXR+KNfZPepGnY+wLnbExnkPdXFgBxHLGxFzpmsRE097ZZrpw1qHYcQenajr3qzHHUQXI6YAWY87DCIWDxFzposRq2jjrvWvvya5mbf0XfP5Dyp2xMR63EHkGLHYM3YQsbwRMWe6HLGKBlKkvEv0IOaMMcOH/m3954U26lRaXYzYTU9tMx93GEQsHiLmDBE7Qxth3f049i1LRqXIajZ667nPpom5E9syi73U1y20G57caj7uMIhYPETMGSI2XRWzHPfMRh3Kfvn9E+U/t39mKKPuKeYWscvmrStXx17HULgpZt6ImDNEzJZrzEaJhWYCqf+c0Ea9JCC3iOlQX33dQtJtXqzHHRYRi4eIOUPEzi+3mI16TVbs569ps6zHnU1uEdPw9/q6hTR5YMp83GERsXiImDNEbDDam9HeRg7XmF39g0nzOZ6PZsyv/5yQFEnrcWeTW8Re3vJhuTr2OoYQKhBELB4i5gwRG44GV6Sej3GUvR4N06//nNBGGdyRW8QOHY+7x/qdV/aajzssIhYPEXOGiI1GgyVS3rds2GA0MX/kKOfrcorYFQ/EHwATYmSiELF4iJgzRGw8qaax0gXM1vOZSRMjFEeZXSSniN22cEe5Gva6haLRj9ZjD4uIxUPEnCFi49M0Vk3fhHPYYDQxQlExH/aeaDlFLPb5MB2qtB53FEQsHiLmDBELQxvv2IMn+o3ye2viJqEayWk99kxyiVgThxIVSeuxR0HE4iFizhCxcDQcv8mQDXteLPZs9jLsJQC5RCz20HpReKzHHgURi4eIOUPEwtIeWVOHFjWdlPUcZqK7Rtd/Rgw6/2Y9viWXiMUelaiLnEOdDxMiFg8Rc4aIhdfEXIUyZ4TRgE1ctL1g9SHzsS05ROyWZ+KP3Hx9+1HzsUdFxOIhYs4QsTh0LVf9tQ5t2BGKogEh9Z8Tw6B7iakjdsk9awvNolF//qFp5KP1+KMiYvEQMWeIWByaVaP+Woem4f3WY5/PdU9sLf+p/fNC0iFVnSO0nkO/1BG7d8m+8una6xCKDiUqltbjj4qIxUPEnCFicWgDHvu2LqNMuqvn1dQ8kIM8v5QR0xcNBab+vENbNPmB+fjjIGLxEDFniFg8sQd4jDpz/F2v7i3/uf0zQ9J1Y7qGznoOlZQRW7nro/Jp2s89pNCHEoWIxUPEnPEYsUEOU+Ug9nVZo5wTE83/2NQsI3oNzvf7ShUxzWFYf64xaNRj6EOJQsTiIWLOeIyYBk3MGfEmjE2KHbFRZrOvaARh/efFomvnZgpZiojFDEBdqAl/64hYPETMGY8Rq+KgkXY575Xpta1e5xh03Zf1uINo6pqxykwhazpiTQYs1l6YELF4iJgzniMmOu80zsY8Fh2yq55jLHoM67EHtWJnsx9WK2RNRqzJgImuP7OeRwhELB4i5oz3iInO7ww7Z19sGv7e/xxjsB53GE3vjYlC1h/fpiI298Xd5cPbzymGUHdwngkRi4eIOdOGiFW0gcxhr0wb6djD2EP93lLc4FOXHlSDUmJHTOcNmxqF2C/mXpgQsXiImDNtilhFAz9SxqyJ2TpGuXeXpYngzkRfOn7jj+0Nybg0T+EjK9LcgTv2XpgQsXiImDNtjFhFf2/YSXLH1dS0TuOMTKxr4q7PM9GhYG00Q+25XDN/U/HYqoPRJ/SdiS6evvbxLeZzC4mIxUPEnGlzxCr6+3Pmb446klG3RdGeRf2xY9DhuNDroluo1B+naUdPfNIL2k1PbTM3LjNRNBSuvR9+XP4Y+2c3JdaQ+rqYEdNkxTc8uTU7Vz20wXwtQiNiznQhYv0UGg0CmW0miUHpcJxmwGjq4mEZZpb4Qenwa5PrMKjt75/ondPShlX3/NJ/9f+1vP53Uwt508vZxIxYrvT7t16L0IiYM12LWD+tuwY26NCcDjsOcuhRe0D6ezoE19SeV50m8bWe27g02KL+WBiM9gJD3i9sNkQsHiLmTJcjdj7aK9HjVJq60eVs9LxiHhadt/Td8mHsx4atqfNg/YhYPETMGSLmyyi3XxmGAtnl13cUTZ0H60fE4iFizhAxPzT4IuZeWEXn+fS+qD8+zpVqJB8Ri4eIOUPE/Lj8/gnz9YhBAz1i3w/Nu5RD0YlYPETMGSLmg85VWa9FTBrByR6ZrakN6kyIWDxEzBkilj/NqNHEYUSLrn8jZNOlDpgQsXiImDNELG86pJd6PkiFLIeLoXOQQ8CEiMVDxJwhYvnS70YBsV6Dpl1456rGb92SE80monBYG70UiFg8RMwZIpannALWr4lbzORGM4Rc8cCEucFLhYjFQ8ScIWL50aG7/ntu5UajJHO5+DsmXcR875J95oYuNSIWDxFzhojlRbdx0aE7a71zooEmTc3Yn8Kafcd705FZG7kcELF4iJgzRCwP2rMJeXuVpug5t2nQh27hkmIGjmERsXiImDMeI9amPQDNhajzTKmG0IeiW914PsSoWfEVBmujliMiFg8Rc8ZjxETnZbzHTIcOcz73NQrNhK/3VH1dc6Vbuwx7/7IcELF4iJgzXiNWqe7n5WWKJL3e3/zZnixHHoaivUrdLkaRrq9/LnTOS3eBtjZiHhCxeIiYM94jVqk2nNo7y21PQIHV82py7sNc6EuG7r2W23kzjTz0uAdWIWLxEDFn2hKxOs37pzs4p7hxZXUvMu0hKqzez3eFUv1OtIemqbTqr1vTFDJP58H6aS9SG/UuueHJreZrERoRc6atEavT4TvdkVmDKDSZriITYkOqn6FQ6hChBje0+TBhaHqtri83TI+tOljogmINrqi/vk2Y++Juc2OGbiJiznQlYrPRtVmK3Gw8XMPlyWe/scLckGhPQ9+8dchPt/6vv29D0zd963mge4iYM0QMKc0UsX4KmuYurL93Q/vR6kPm46NbiJgzRAwpDRIx0R6ZzmHV37+h6UaXl9yz1nwO6AYi5gwRQ0qDRkxuW7ijfMva7+OQdO0YIesuIuYMEUNKw0RMNCVU/T0cg64ju2zeOvM5oN2ImDNEDCkNGzHRaMb6+ziGyQNT2d2CBfERMWeIGFIaJWKyaPKD8u1rv6dD0sjIqx7aYD4HtBMRc4aIIaVRI6ZzVjp3VX8/x6CZ7T1PUYXhEDFniBhSGjVionNWOuRXf0/HoCH+hKwbiJgzRAwpjRMx0aG+Ji6GFu/zLWIwRMwZIoaUxo2Y6MacTVwMLQqZhvpbzwPtQMScIWJIKUTE5NrHtzRyMXTF68TBmB0Rc4aIIaVQEZNbntlevqXt93kMzLfYTkTMGSKGlEJGTDQjff09HpOuWbOeB/wiYs4QMaQUOmLyyIoD5Vvbfr/HoPkWrecBn4iYM0QMKcWImCgs9fd6TMy32B5EzBkihpRiRazJi6ErurEn8y36R8ScIWJIKVbERCFr6mLoih6PkPlGxJwhYkgpZsREE/g2dTF0hfkWfSNizhAxpBQ7YqKgNHUxdEUhY5oqn4iYM0QMKTURMVFQmrwYWphv0Sci5gwRQ0pNRUw072H9/R8b8y36Q8ScIWJIqcmIiaaLqn8GYmO+RV+ImDNEDCk1HTHRdFH1z0ETmG/RByLmDBFDSikiBpwPEXOGiCElIobcEDFniBhSImLIDRFzhoghJSKG3BAxZ4gYUiJiyA0Rc4aIISUihtwQMWeIGFIiYsgNEXOGiCElIobcEDFniBhSImLIDRFzhoghJSKG3BAxZ4gYUiJiyA0Rc4aIISUihtwQMWeIGFIiYsgNEXOGiCElIobcEDFniBhSImLIDRFzhoghJSKG3BAxZ4gYUiJiyA0Rc4aIISUihtwQMWeIGFIiYsgNEXOGiCElIobcEDFniBhSImLIDRFzhoghJSKG3BAxZ4gYUiJiyA0Rc4aIISUihtwQMWeIGFIiYsgNEXOGiCElIobcEDFniBhSImLIDRFzhoghJSKG3BAxZ4gYUiJiyA0Rc4aIISUihtwQMWeIGFIiYsgNEXOGiCElIobcEDFniBhSImLIDRFzhoghJSKG3BAxZ4gYUiJiyA0Rc4aIISUihtwQMWeIGFIiYsgNEXOGiCElIobcEDFniBhSImLIDRFzhoghJSKG3BAxZ4gYUiJiyA0Rc4aIISUihtwQMWeOTJ02Ny5AE4gYckPEHLI2LkATiBhys/m9qXKzaG8rvTMXtsGFd64yNzBAbEQMudl/7FS5WbS3ld6ZC9tgzvzN5gYGiI2IISdf+t5EuUm0t5NtYC5sg7kv7jY3MEBsRAw5+eqPt5WbRHs72QbmwjZYvOmIuYEBYiNiyMlDyw+Um0R7O9kG5sK2uGjum+ZGBoiJiCEnbT4fJubCtrjjhV3mRgaIiYghF9c/ubXcFNrbx7YwF7bFmr3HzY0MEBMRQy6e3/hBuSm0t49tYS5skzmMUkTDiBhy8K9+uKncBNrbxTYxF7YJe2NoGhFDDrqwFybmwra57omt5sYGiIGIIbWu7IWJubBtNDqHkYpoChFDamv3HS83ffb2sG3MhW306KqD5gYHCI2IIaVvvbyn3OTZ28E2Mhe21RwGeaABRAyp6DDiidOflps7exvYRubCttIv9+K715gbHiAUIoYUfuu/ryt2Hj5Zburs7V9bmQvbbNPBqeKC298wNz5ACEQMKXRlNGKdubDtNOyeW7UgFiKGpv3pW++VmzZ7e9d25sIuIGSIhYihSV0OmJgLu4KQIQYihqZ0PWBiLuwSQobQiBiaQMDOMBd2DSFDSEQMsRGwXzEXdpFCxvB7hEDEEIuG0Xd1FOJMzIVddWTqdME8ixgXEUMM18zf3MnrwGZjLuy6h5fv51oyjIyIIbT/tHh352biGJS5EBxexOiIGELh8OHszIU4g8OLGAURQwgcPhyMuRDT6fAioxcxKCKGcXz+u2t7M9Fz+HAw5kKcS/cku3HBNnOjBfQjYhjV9U9uLTa/N1VucuztEM5lLsTMVuw8Vlx63zpz4wUIEcOwfvd/rOfc14jMhZjdvKXvcogRJiKGQXHocHzmQgyGQ4ywEDEMgkOHYZgLMRwNx5/DXaPxl4gYzkd3X+bQYTjmQoxGMWNIPogYLNf+763F69uPlZsKe/uB0ZgLMZ4dh09ymLHDiBj6ffXH24hXROZChKGY3bpwB1NYdQwRgyhea/cdLzcF9vYBYZgLEZYGgChmjGbsBiLWbV97dgczbTTIXIg4NIz20VUHi8vvnzA3fmgHItY9X/reRKHLbvSFtf65R1zmQsS36eBUcfPT77B31kJErDv0GX5py4flR9r+nCM+cyGaw95Z+xCxdmOvKy/mQqTB3lk7ELF2Yq8rT+ZCpPfsxOHeMH2C5g8Raw+NMPzTt94rdFum+mcUeTAXIi8EzRci5pfmMiRcvpgLkS+Clj8i5ovCpUOFf772fSbidchcCB+qoF00901zY4o0iFj+dNt/wtUO5kL4o3kbNWLq6h9MmhtWNIeI5Um3+/9vr+4tVu5iCqg2MRfCv8WbjhR3vLCLG3gmQMTy8OWHNxa3P7+rN2M8e1vtZS5Eu+h6lgWrD/UOPX7u22+ZG16EQ8TSqA4R/q83DjDtU4eYC9Fuuh5NF1jrA8+eWnhErBna09I8hYoWE+12l7kQ3aJDLUu2HS3uemVv7+aeDBQZDxELTyMIdT8undPSBccMf0fFXAjoNjI6BKnZ95kSazhEbHy6+7HOZ7GXhdmYCwHLip3HemGb++Lu4sqHNnJ+bQZEbHA6j6U9rG+9vKcXLN08kkEYGIa5EBhUdSjy4eX7e6MhFbeuX4hNxM5VHQ7U3tVDy8/EikOCCMFcCIxLGyjFTdeuVXHryiCSLkdMM7xXsdL5K8WK2d4Rk7kQiEkbNQVOIyR1aHLO/M29yF1w+xtmFLxpe8QUqeufPDPIotqr2vzeVPmrtX/fQEzmQiAlBU4XaytwollIFDkvA0w8R0wDKhQpUaREFwtzrgq5MhcCuav25qpDllXwFLvUhy5zi5iup6rCpAEUCpNeM4VJuDAYnpkLgbapBqD002CUKn71CNYNE8VxI9a/N1RXRahSjejrx4AJdIm5EAAAD8yFAADkr/jM/wfwK5iZXd79UwAAAABJRU5ErkJggg==;strokeColor=none;shadow=1;spacingTop=-2;spacingBottom=-2;spacingLeft=-2;spacingRight=-2;points=[];labelBackgroundColor=none;rounded=0;html=1;whiteSpace=wrap;" vertex="1" parent="1">
            <mxGeometry x="627.5" y="871.33" width="50" height="50" as="geometry" />
          </mxCell>
        </UserObject>
        <mxCell id="D-f0g4XA8TNqZnRXPo1R-4" style="edgeStyle=orthogonalEdgeStyle;rounded=1;orthogonalLoop=1;jettySize=auto;html=1;fontFamily=Helvetica;fontSize=12;fontColor=default;startArrow=none;startFill=0;startSize=10;endArrow=classic;endFill=1;endSize=6;jumpStyle=arc;" edge="1" parent="1" source="D-f0g4XA8TNqZnRXPo1R-6" target="D-f0g4XA8TNqZnRXPo1R-3">
          <mxGeometry relative="1" as="geometry">
            <Array as="points">
              <mxPoint x="600" y="1060" />
              <mxPoint x="600" y="900" />
            </Array>
          </mxGeometry>
        </mxCell>
        <mxCell id="D-f0g4XA8TNqZnRXPo1R-5" style="edgeStyle=orthogonalEdgeStyle;rounded=1;orthogonalLoop=1;jettySize=auto;html=1;fontFamily=Helvetica;fontSize=12;fontColor=default;endArrow=classic;endFill=1;endSize=6;startSize=6;startArrow=none;startFill=0;jumpStyle=arc;" edge="1" parent="1" source="D-f0g4XA8TNqZnRXPo1R-6" target="D-f0g4XA8TNqZnRXPo1R-21">
          <mxGeometry relative="1" as="geometry">
            <Array as="points">
              <mxPoint x="523" y="1010" />
            </Array>
          </mxGeometry>
        </mxCell>
        <UserObject label="&lt;div style=&quot;&quot;&gt;&lt;font color=&quot;#0078d7&quot; style=&quot;font-family: &amp;quot;Segoe UI&amp;quot;; direction: ltr; letter-spacing: 0px; line-height: 120%; opacity: 1; font-size: 12px;&quot;&gt;Public API App Service&lt;/font&gt;&lt;/div&gt;" tags="Arrière-plan" id="D-f0g4XA8TNqZnRXPo1R-6">
          <mxCell style="verticalAlign=top;align=center;vsdxID=111;fillColor=none;gradientColor=none;image;aspect=fixed;image=data:image/png,iVBORw0KGgoAAAANSUhEUgAAAbEAAAGxCAYAAADs0IixAAAAAXNSR0IArs4c6QAAAARnQU1BAACxjwv8YQUAAAAJcEhZcwAADsMAAA7DAcdvqGQAAC0vSURBVHhe7Z3PimTLda/1CP0I9Qj1CP0INfWs4c5FTS542OCxaM/usEBjQ09sYw9EYU88OFzKXNAF23BaIGSLc4XaRlgYIXPu+lXF7pO1OzJz5874s1bE98E36c7M2n8iYu2IWBH7RwAAAAAAAAAAAAAAAAAAAAAAAOH4k7/8p7cr3x/xo/m40Q9m7jfemYd/6yYdBgAAwAsWHN4cBIolgBwGoe8d+tlcB8F7U+dwm04NAABGwBr2m9TAq6FXg6/G/8nMBYhRXAKdAvKXnl26JAAA4A1rpJdelYLVg+m1J9XbT6auDcENAKAH1vAuAWsZ/lPDnGuwcbvqnSr4Pw9NpksNAADXYo3qbWpc1cgSsNqpwKZ5N/XYSC4BANiCNZhLL0vDXprfyTWw2F49QKjnqwcKkkgAAIQaxNQwqoHMNZ7oUwU19Y7pqQHAPFiDpzmtu9QAMjw4jsvw41261QAAY2ANm1Ld1dsia3AONQysnrV6aW9SMQAA8M/333//xnxnfvw//+8/1ZCNvi4Lz6syoIcYhh0BwB+Hgct8xf/6x3/LNWo4rwQ0APCBxag78+E5Wp3gz/7hl7nGDFEBjSFHAGiHxaRb84P5WQFqC//5h//+/k///he5Rgxx8XkOLRUzAIByWBxahgufFJT2oED2P/72X3KNF+KhSgpRliNr0QDgOiz2qNel4cLNva5T/OI//otAhpfIcCMAXI7FG/W6Hp8jT2G++fXvco0V4inVO9O6QnpnAJDH4ouGDN+bnxRsavJ3v/yPXEOFuEWtNWTuDABesJhyYxYbMtzKT3/+Xa6BQtyqdnvRHpsMNQLMiMWRt+bZ9PiasIYMC7gkgrDuDGAGLHYoeFWZ79oDqfdYUM2bEcwARsTihYYN3QSvBdaQYQU1b8bLPQFGQRVaFfu73/8hhQ5fkHqPlSSYAURGFThV5OdKre2fvEIgw4oSzAAiYRVWrz75ErwO1Totr7CGDCurOsFaMwCvWAVV8NLkdq4CP6vejuahvMIaMmwgCSAAnrAKqbcla81MrsJ+pVLbPcMaMmykUvNZZwbQE6uEejeT1srkKulR/+9vfp9Chk9YQ4aNVN15n6oTALTCKp6SNrRrQa5invXHP/vW9bCiIPUeG6q6dJeqFwDUwira0aSNS9WwnWdYQ4YdJPkDoAZWsS6a99qqUts9w3vIsJPMlwGUwirTnbl76PCU6ul4hzVk2EnNl7FjPsBerAJp6FCvbc9VsGL+xT//JoULvyiQ5Y4dsYEaYiQlH+ASrNLsyjrcq/dhRcEaMuwsWYwA57CKUixx4xIjZCsKAhl29slkCyuAHFY5iiduXKL3bMUF1pChA0n8AFiwyqDel57wcpWlqd4XQS8QyNCBSraiVwZzY5Wg6dzXOaMMKwrtyp87B8TGfkjVGWAerOB3mfva4k+++VUKE75hMTQ6UiMpLJKGObDCrnVfbnpfOT2/suUQAhk68z5Vc4DxsAKuXTdOvirFi1pc7PVN0GtYDI3O1AgLSR8wFlaob00XyRtb9fwm6DUEMnSmRlpI+oAxsML8LhXqXGF3bYTdPBaUWZk7B8SOkvQBcbECHGb48JQRdvNYYDE0OlQjMGxbBbGwQhtu+PCYkdLuBYEMHcrwIsTBCmvY4cNjRkm7X9DuI7nzQOws+y+Cb6yQajuaXOENr3o4kWBXD3Sq3kxB9iL4QoXSdLl4uZTK/os0PyYIZOOpcqjMWan7q+SjRSX3HFqqvGo4ff3beqhb/q56/ssxbVy3yOJo8IMKo1nlpZXeVAWNND/GYuhYLgFKw9frwBSp3C0oiB4GPAVdnV9aDqIph7vUjAD0QYUwFcavKuSoqiJGgkDmT92PJVBpdxg19DOSzvuDyfAitMcqozbvzVbS0Y02P0Yg66MyWw+DVbTh6IY8mQQyaIdV0PDrv64x4vyYjjcN42AFDwNW1OG/znwymSeDulhlHT6BY6vR1o8JAlk51bNVQoN6WFH22QzAZ5NABnWwiuvm5ZVejLZ+TBDI9qmEhKWXBdV5l5odgDJYJVYG4lQJHFv9629/m+pdHNjV47xLT4ug1Q0CGZTBKjQB7IwRGzoC2WvVO1Xmqa4L81luYANhuA6r3NpCKlvp8QfVAEZs+GYPZEtvi6xB1zyk5gjgMqySE8AuUA1iRGbbZ1FzWxoCJhkjFAQyuAyr7ASwHUZbCL2g486dzygqAYdhwvA8mqwlg/NYpR92E98WqrGMyGiBTD0uAtdwsCgaTmOVf+pFzKWMOseiHkvufKKoIV2GCoeHQAZ5rBEggBUyaqKHjlmBIHdOXtWic5IzpoNABq+xxoAAVlgFAwJZPdVr1G4ZMC0EMnjBGgQCWCWjJnp4DWTqdWm4MOLDAVSBQDYzdvNv/+KffzPFe8B6GnFHD6FA4WV7Kj0MsHMGHIFANiN202/Nz8rgyjUaWNaow14991nU39VehSRpwAYIZDNhN/vG1G7R4Sbxo6oGOWriQetApjIZdZkCdIVANgO6yelmP5NrRLCOEV/dstAikDFkCAV4TE0djIjd4FcBTA1TrjHBeqqXERUFmNw5XaMCo4IXQ4ZQELaoGhW7uV8CmKjRKOF5o2YsilIbBi/zXWQZQiUIZKOhm/pyb39AWXO5BgbrGzVjUVwTyEiRh4bwGpdRsJv5VQATehLONTTYxsjJC5cGMgUvkjWgA7xYMzp2E+9f7uXXaFgr1+BgGyNnLIotgYzgBQ4gkEVFN+/lHuZhjVh/FcgiJzUcexcZwQscoeVEt6lZhCjopqWbdxSCmA+VsRh5juiwR0/wAqeoLbxJzSN4Rzcr3bSTHDak2Fc9UERGPTLNsQI4hsXQEdBNSjfrLLnGFPsZOfUeIAgfU1MJXrGbpFd4byLXkGJf6c0AVIfUe6/o5rzco/NoDibXiGJ/mVMCqA4Zi97QTXm5N9tgtw7fsocgQFXIWPSEbsbzbbkAgphvo68hA2iNRpfUrp1yxSeTRI/e6CaYZzMR1+iG5hpP9GP0NWQAe1CZX4KO5oilsl+VwbuoupGrM5f64599+z41pdALu+ebEzkOIYjFMPoaMoA1S5DSHpoKUD/55ldFA9MO71JzCq2x8rA5kWMNQSyOBDKIiIbD9UbzJVCpHOfKtwM/myyEbo2VkbuXorIPglgs1QgAeGSZi1Kw0lpHx8HqlE8m82OtsHKzaUeOUxDE4sliaPDAErD0YKVtxnJlNai8g6wVVo427chxCoJYTDXBDdAKzV9p3aLKXdAe1qWyfqw2Vq52z4MdQhCLK4uhoRaax1L5Uq9/sF7WVpkfq4mVsbcvRe16CGKxJZBBCZae1sRBK+dTanKhJFbedq0HOwZBLL7K/AK4BCVhqNxoeJCgdVL2VyyNlb+PL8WwDASx+LKrB2xBZURrsrQWK1eO8KhvU/ML12Ll8P6lOJaDIDaGBDLIQW+riJ9M0u5LYGXy6mzENQSxcSSQwTJMqLmtjjtfjCjvH7uW//l3ny7anX4rmtDN3DAMqhoudvWYC91vJWVovVauTGAx2ZZqL3bxbv78f/9rsWSONasbhcFle6rxIXB1UWn3DCvuwS7co1bG1+LgJuEA1iwr0JdlqDB337GJDCteil20e108zV3V4uAGYWA1eV+znEAfdE+Z43Ilw4pbsYv1xlQXturw0CTbyAythpUYQhwHzVWrR01WoUsZVtyKXaiPumgqyDVh3Uhc9XSutT8Qn2Wei/oYQoYVz2EX6W65YCrUNaHSxFQ9aFLq46N7yHBhSBlWPIZdHA0jaoHd88WqPVGvxZDL38IYqtFj+DAuS6+LofzQsgj6GHZhPhxcqOfCXhMFycO/h37V03rt8gD1oNc1nOytuMYuyu3qIlXPOFOjuP6b6E+GD+PCXNfQ3qbmG4RdkMfVBUrVoB5sPeVfhg/joftFhuEUPqbmG+xivFtdnOdhh9qw9ZRfGT6MxzJkmLufOKy8Cdouwpc1YYfWzkxcWP9d7K+e4Bk+jIN202DIcFpZO2YX4FUyx6IWsbaAIQ9fsng5DuopU3/QnDfJw07+ZnUxvthqHzyeIP3Y6p7Dfpb5LrIMceVNatbnwk78q2SOxVYNGmvF+qsGUUNS4JdlOyiCFx5xviQPO+m3q4vwylaNmrYuyv19bCPp875R8CJZAzf6NjXvc2An/LS6AK9stSs5afb9ZP7LLwQv3OFTat7Hx072q5T6ta2CmBrR3N/HujL/5ROCF17pHCn3dqJf9kc8ZssndMb528n6L58QvLCQ4++raCf4/uCEj9oSMhTbqADG/JcvCF5YwfepuR8PO7nswuacLdHQVu4YsJxK4GD+yw8EL6zouAug7cQ29cJkS5QJmTsGLKMaSwKYD3QfWFaCDRyvN2YntbkXpmGnluipNHcceL0kcPhAwYt1XtjQ8XpjdkKbe2Gt9k08hMpdXhI4fMHwITZ2nN6YnczmXpjsEcRI7ignCRx+IZBhQ8fpjdmJbO6FyR5BjOSOMrIDvX8IZNjQ+L0xO4mLemGyRxBj547rJQMxDgQybGT83pidwEW9MNkjiIncseA22UIqHgQybGTc3pgd/MW9MNkriKknkTsePK0aQ4gJgQwbGLc3Zgd+do/EnL2CGOtnLpcU+vgQyLCBMXtjduBn90jM2SuIsej5MkmhHwcCGVb2UwoLcbCD3tULk72CmOZ0cseDr1UKPQFsPAhkWNlYO9zbAZ98X9gpW+/YcYgCaO6Y8EXWgI0NgQwrGqc3Zgd78q3NW+wF68WOSwCbAwIZVjTG25/tQB9WB36xvVAjnTue2WUR81wQyLCSjylM+MUO8mZ10LvsiXocuWOaVRYxzwmjEljJmxQufGIHePHi5pw94Sn0Bwlgc6MEnly5QLzChxQufGIHePHi5pzaBqoXVNwXCWAgqA9YWL+Ln+3AdqfVr+0ZxEi1J4DBawhkWFif6fZ2YI+rA91tzyAmtBdg7rhmUMsMCGCwhkCGBfWXbm8HVSShY7H3dkazVljNBwIcg0CGBfWVbm8H9GF1gFfZO4jNOKRIAKuPyrUCQWQIZFhIXwkedkBFEjoWPTSoM+3eQQCry3e//8Or8qTNpiNDIMMC+knwsAMpltCx2Gv/xENmqagEsLqoHOXWHka/7towmzWVeKU+EjzsQD6uDuxqtUNEb2YYUiSA1UPl51yCUPTrr11cCGR4hU8pjPTDDqJoQsehHhg5S5EAVg9l125t3KMvZyCQ4ZX23cHDDuB+dUDF1DxCb0YdUiSA1WPPy1UJZDixH1I46YMdwO5Xrpyz91oxoYZltMpJAKuDGnIFo9w136K+G3mTZQIZ7rTfmjH747ergylq7zT7BTX6ueOLKAGsDseSNy5Vv0Egwwnts2bM/nDRtWFrvaQhq0eYO75ospVUeXQ9Sz/kKAh4GIXYi6YBrumR4pT2WTNmf/jT6kCK6iHNfkHZkrljjCIBrDzqddQsF+rdRUVljUCGF/g5hZV22B+tOpQo9UTqhcjvViKAleevv/1t9lqXlkCGE3mXwksb7A9WHUpc9JChKHQcuePzLgGsLLqWrZddRJ7HJJDhBbYdUrQ/WHUocVG7Angh2poxDXURwMpRe/jwlAQynMB2Q4r2x6oPJS56yVAUkRI8ome5eaNU9uE1Ru5V67hHyvLFarYZUrQ/9H71h6vpKblDREjwIICVw1vjG314mECGZ2yz8Nn+ULUFzms9JXeIVhP61xg5PdsTXlPFoz+kEMjwhPUXPtsfqbZX4jG9JHcIPQX3HlY6ZeRsNk/oQcDzfSaQ4cDepnBTB/sD1fZKPKa3hrlUBVRDpOHSLea+v1a9RLieSMspIj+0RF62glV9n8JNHewPFH/tyjkVNDxxSbq95tCU1agKq0xLPeFfM6ehv63fUOOl31SAUzD0do0iovsS8a0FkR9eVI5z54RTW/f1LJk/WF3NS3jjWGOnoKLgcm2wgrZoaC5yGnjkhxgCGWas83oW++G71R9qpreAoCCl41p6QeplEbRiMsobivVgFbUMEshwZZ03PtsPN9mlI6fHsX8FMojNaPMykVPwR3mYwCLW2b3DfrjJLh05mfOBkqihV5nKlbXoah42auaijptAhmb53TvsR5un1h+qiglQAgWwyPNfW1QgiDpSQCDDZNlUe/vBd6s/0FxP68UgJrM1kB6H4bdAIEPzPoWfMtgPPqz+QHNZBwXXMGvygOb9IjJDjxlP+pjCTxnsB7vNhy0q+wpgD6MlcFxq1DllAtncpvBzPfZjXefDDo2aeQV9GDmB41KjZi4SyKb2bQpD12E/1H0+bNHT+8XANzR+X6vrETFzkYeRaS2zBZX9UPf5sEVS7WELaqgjvDanh5EzFwlk0/kxhaHrsB/qPh+2qAoIcAo10GS2nTdq5iKBbCqvXy9mP/Jm9aPdZUgRjsH2RZf5059/l65cLCK81w+Led16MfuBbvslHpMhRcihBjlXXvC0qk8REz54YJnG6/ZRtB94v/rB7jKkCGsYYrrOqJmLBLIpvG4fRfuBx9UPupAhRRBkIJZTD4cRMxfZ3WN4r3u/mP3A59UPupCFz0AAK6+CQcSEDwLZ2KZwdDn25dv1j3ky4vAHlIFGq64Rt3hjWcXQ7lv0bF90l9RxaNQUYbgOAlgbIyZQ0Tsf1n2bAdsX3SV1HKrCCnOhBxcCWDsjJnwQyIZ0X3KHfdFlUsehvJ5lHshE62PEl2wqkGnePHc+GNJ9yR32RZdJHYdGXawJlzH7LvS9Ve83YkYwSy/GMYWl7diX3O3UkVOVC8aGhsiPEd9NRvkZxst27rAvvF39gFtJ8BgXGiB/6p5EmyerORSt4dY/+4dfPl8XBflT6jP6LFmUu7xL4Wkb9oX71Q+4lYXP48Gchm8jJnyUCGQKPgpE+q0SbwLQXKN+S79JYDvrZa9lsS98WP2AS3XzYSzILouhhvKjJXzsecOByqLWzbVIItPfUFDjAS7rZa9lsS+4z0zUk0u0p0E4DQEsnmp0I7FlnaHallaB6xiqCzoGemhfvCxD0b7gPjMx6ov9IA8BLK7RsoQVyHJlTfNVHqcn1Nbp2NbHO5spPG0j9wOeJLV+LAhg8VUjG2lk5LDM6dgjPBSrZzh5MLtJIeo09kHXmYkaCohUWeA0BLBx1H2MNE+mshdxREfHPGmd2baHon2QPROhCQSw8dRDJhnDbdCc2aWJKsHdtoeifdDtnonqSsMYEMDGNuJO+BGZbIhxW5q9ffBh9UU3kswxBgSwOdQSGN1rqI8WU+fuwWA+pjB1Gn1w9UUX0gsbByXm5O4xjqceVnqmqs+EHvIHH17cHMSeVl90IRVhHHQvc/cYx1QNK6MobTi2fGAUU5g6Te6LvaUXNh4aasrdaxxX5snaMPJwfQpTp8l9sbc8xY2H7mnuXuPYMk/WhoED2end7O0D7taI6UbAmEy+cHNamSdrw6CB7PRaMX1g9YXusi5sXHRvc/ccx5d5sjYMGMhOv5LFPuDqFSwq6DA2ky3WxJXMk9VHvd6B6tnptWL6wOoLXWWPxPEh3R6ZJ6uPshZz1z6gsYJYpH3YYB8DVS68QubJ6qNeb+7aB/Mhhas89oGPqy90U+/RgTngnUkomSerzwAv3Dy94FkfWH2hmwwlzgNDingo82T10LBt8PmxOEGMocR5YM0YrlWPgXmyOugtA7lrHsTTb3i2D3xafaGLZCXOB1mKuFbzZDzM1iHyGs0UrvLkvtBDZSvBXAwwVo8V1MMN7ycrT+T9S1O4ypP7Qg9Z4Dwfg2ROYSWZIy9P1P1LU7jKk/tCD0m1nQ9S7fGcGgJjnqwcUXtjKVzlyX2htcyHzUuuPCAequUYPOSWI2hvLL9/ov3H7eqDXeS1K/PChsC4RYJYOYL2xo4GMReb/+o12zAnrBfDc5L0VZ6ASVW+gxiZSPNCcgeekx09yhNw3ZjvIEYhnRcWPeMp2YquHsHWafoOYjAvyjzLlQlESZp9PYIN5RPEwC+5MoEo2b2jHsGGFP0GMTITgR3tMSdDifUJNKRIEAO/kGaPOclKrE+gLEW/QUwXEeaGIIY52YquPoGyg+9S2HqN/Uf3IMYaMWAjYMzJAuf6BMoOfp/C1mvsPwhi0B2VgVzZwHllK7p25K6/Q9+lsPUa+w+CGHSHIIZrmStvR5DEKr9zYgQxIIjhWtaHtSPInDRBDPxCEMO1tAvtCLLomSAGfiGI4Vq2omtHkPpHEAO/EMRwLUGsHUHS7Ali4BdS7HEt2021I0iavd8gxgQusNgZ10I7CGJXSiotEMRwLbQjehB7s/pgcwli8Kd//4ts2cB5hXaEDmIi8+GmslM15MoFzi20I0IQS+EqT+4LrYV54aWYmBPaQRArIBt9zkuQoQxsLG1COyIscUnhKo994PP6C61VQwZzotdt5MoEzi1tQjtGCGKP6y+0VovtYE5Y6Iw5CWLtCLDt1FMKV3nsA92DGG9wnRfS6zEnD7btCFAHH1O4yqMPrL7QXKVYw5zovVG5MoFzy04+7QjwKpazQezD6gtdhPnQ5H2uLCCyfrQduevvzIcUrvLYB96vvtBFxsDng6QOPCbrR9sQJDv4fQpXefSB1Re6yPDBfGguNFcWECVp9vUJsoP92SDWff9EybzYfAR5LTp28ptf/y6VFKhFkDdI3KVwlcc+4CKISe3eAHOgV23kygDiIm+4qE+QxKrj+yYK+8DN6gvd1BwJzAHrw/CczIvVJch8mLxN4eo4mS91UV1bmAN2rsct8nLMegRY5PxsClOnsQ9233pqkSHF8SG1HrfKkGI9osxJpzB1Gvtg9wXPiwwpjk+UJ0DsL0OKddCDZJD5sNMLnRfsgx9XX+wmWYrjQ1YiXiJrSOugodoAw/qbg5iLtWKLrA8ZF6VN5+454jHZW7Uemr5xnmZ/eo3Ygn3wfvXFrlJoxyXIuhR0Jg+2dXE8xH+fwtRp7INu1opJjdWS4DEeJHTgXnmwrY/yERzOk51eI7ZgH3SzVmyRbajGg22m8BrpjdVH82TO5qxvUpg6T+bLXaU3Nhb0wvBa6Y21Qe2ul3eMpfC0DfvC0/oHektvbBzohWEJWfzcDgfzZKff6LzGvuAmzX6R3tgY0AvDUvKesbZ0nif7mMLTNuwLrtLsF+mNxYdeGJZUrw+BdnScJ9uWXr9gX7hb/YAL9RTAhG5cAm0yikFUm8CwYls6zZOdfgXLGvvC7eoH3MjGwHHxMkGMY8nOPn1o/PaJ87vXr8n8iBvZeiYe7M6BNSVbsQ+q1y3myVJYugz7opuNgNdqTJYkj3hoYjh3PxFLyIbhfWiw7+JlmYkL9sWH1Q+5ktcyxES96I4ZTji4jNL0QZ2KitvIPaSwdBn2RVd7KOakwMakwZMbTiqJHn1Rtmjuvlzptj0T19gXXe2hmFMFlmHFmHTKcMIJJJD1pcJoy7Y9E3NkfsydLHiMDevGsIYEsr7oIbXUaEsKR/uwH3C3/VRO5sdiQ8IH1lCBbLYph2VuyksAL7Bd1b6kjgX7AdfJHYeSmRQbVbrCQxCIz87SNqx7P152OLoyDX9fUseC/cC71Q+6luGD2Gg3FhI+sIajryM7Nnynf/Owy5Ha5p11+10KR/uwH3C7c0dOxsHjo8rIPBnWUI3oiO3DuZ6O/s9Db3Rn3b58p4419iOfVz/qWt0w9leMD/NkWEO1D6NsGqygcMmck+bK9J3eXFC3P6cwdB32Q+5ey3JOemNjoPt46gkTca/Re2V755n0HX23N7r2G3bDv+z1K8ewH3L5WpZj6sLAOBwb60csoYa3Io3cKNuyxPpK9eB698r098/s8nHZ61eOYT/kftHzoaNP4M5KgVRdxKN6D2algteheuD30Bs9scvH/kXOazI/7lYPXWWow5WpuohnVTDztLZM80e1d7bxkIqfG15M4acM9oNud7Rf62HiEuqhws7wItZWDap6CD16ZyrjGnlo+cDmYY5wNbz4mMJPGewH3W8GLHUjYHxU2Hek6iLuUu2KgopGAmo8JOs39dsq0xuSHaqpoOkhczMNL5aZD1uwHwyxXszLCnVog4ZaGF7E1iqoKeCovdHQ49bhRwUrfVYBS99Vr6Nn0Dqmhi8dzA9evz5sjZ2c+/VinsayoQ0MLyKWt3Mqfpn1YWvsxNyvF4M50RMu2YuI5e2xQPrf/+uPZdaHrbETcr2PIq9kAbIXEcurOtV4lOu6/RKPYSdzsz45T46ylQxch8bya6ckI85owwXSNynslMdOxO37xXqnh4IvNHGeKyeIuF8lolTulV33/rBz2El8WJ+UFwHW6MHGY/YXYnTVK6vEhxRu6mAH7zLVnvkwOIaGP1hThljeSguky201dQw7+E/rk+kt68O2E2mz05KQ9IFYx4Ltb53U+jV20A/rk+gt68NOo97I4R5seoJqnTbrAZ0zSR+I5S3UK3tIYaYudsB36xPoLXzNEriOvepAhW7WXpkyWemVIZZVderKLPG7FGbqYwfsZvcO5sN+QD1Sde239jZU6GbN6iQVH7GOqlc7H5DfpBBTHztQN0OKFbNkXKOApZ6Wzv+axliBTL8zK/TKEMu7o1dWZ5eOY9hBuhlS7Li/19UoeKjndM4lUMlaDe7Mi8XplSHW8YJeWZ1dOk5hB+hiSDHqvI7mrHLn01Olos8MvTLE8m4c7Wk3lLhgB9d9SFELWaOim5o7p97qyWnGzMUFemWIdTyxmXDbocQFO6juQ4q6KFHx/PqQmTMXF/SQQa8MsayqU5kpoHZZiWvsoLoufNZ8UUQUIHLn40kVttn3o9RT47ElCoi434NeWZsFzsewg+m6l2LURc6ae8mdj0dnzlxc0JMjezAillUPyn/17W/r7pV4DjuQrnspRp278TyUmHPWZQyHqKzpOuSuDyLu9jaFk37YQXR5PUvUpI4IQ4k5T0zKToWGWEn8QCzipxRG+mIHcr86sCZGTeqINJS4ttD+aENAOj7i1d6nMNIXO5A3qwNrYtSkjmhDiWvVcLPh8gvqmfKaF8Td1nuD86XYwTRfMxaxIY06lJhz5h0+1qgsRn84QWxsn7Vhx7ADers6wOpGnJ+JPJSYk3my1/QaYlQA1TydPNyubFH3afn/3PcRO9hvbdgx7KCarRmLmtQx4tM682SvqT3EuAQqpf3vXZCuY1TvcQlwzO1hY30kdKyxA2uW4KGKHI2RhhLXqhFkPdlrSmUx6oFNqf21N7rW8ervsB4OG/g+hQ1f2IE1S/DQE2Q0vO6VWFLWk33N3oXS6s3VDlzHUEDT36eHhpX0k9Cxxg6uSYJHxKd+DdvkzmU0Nby4d5hrZPTgdS4o6P/1OS/XT8OOmuejd4YFfUjhwid2gE128Ig4B5M7j1FVY9yrF+GZY/NlS/DynCTDujgs5NsULvxiB/m4OujiRkMNeu48RpfhxTzqaS3zZeqhR+m5Ksiy9RZe4VMKE76xA323OvCiargqGjMviGV48ThRr4tGQkbMtMXqtn97817sYKul20fMTJx9TkHDUGQvjge9MrzAvq9cuRQ74Grp9tEyE/W0nTuPGWVx9HhoqJy5Mtygz7T6Y9gBK93+88EJFDPaE/1ou3Rcq3ql7L04FhpeJIMRT6hY8CaFhzjYQb8/OIliRmsAZ0mtv9SIa/3gOOphM0+GR/SdVn8MO/AqvbFow1EMtRyXpI+xIJDhEf0ubj6HHXzRxc8KCJFQrzF3HviDuqcacoUxIJDhypi9sAU7gZvVCV1ltMxEDZnlzgO/VveWXtkYEMjwwLi9sAU7iWK9Mc0vRaLEBrAzSSr+OCjZg6H06Y3dC1uwEynWG4uWDJA7BzwvqfhjMOtONfjF+L2wBTuZIr2xSE/pzIddJ72yMWBIfVrH6IUt2AkV6Y1FSq9nfVgZmSuLD/NjUzpOL2zBTurq3likxoz1YeUkgzE2mh/L3Vcc1rF6YQt2YuqNXbVuLBJMapdXvbKIr+EBhhUnc7xe2IKd3O5dPLStTRTYL7Gu7PYRDyXqsDXVFI7ZC1uwE9y9i0ekNWJKSMidA5aTPRjjQb2YwnF7YQt2krt6Y5HWiPGKinbqXW2k48eB3tjQxtqp/hrsZC9+31ikISQWObeVxI840Bsb1pg71e/FTvbitz9HCmK548f6KpWbIUb/0Bsb0vvUvM+DnfTj6iKcNErjRDpxfxli9A2ZisP5KTXrc2En/nZ1IU4aJYgxXOJDhhj9QvbucN6lZn0+7OQ3L4COstCZpA5fMsToEzYDGMbH1JzPiV2AzQugo0BSh0/VaLJ9lR8YsRjG29Scz4tdhE0p91HIHTv6UfMxzJf1R/cgd38wlB9SMw52MU6m3EdZ6MxYfwyZL/MBGwOHdq6U+nPYxTiZ5BEliPH+pFgq1Vv3DPrA/HFo36XmGxbsonxcXaQvRglipA7HVOWL5I/28NAX1rmTOY5hF+bovopRFjqTcRVbBTOSP9qi660kD9Ud3vwQxvH3R9yLXZz71cV6NkoQUyOYO36MpRZLE8z6oM0CVN+pS26dZ3/EvdhF+monjyhBbH3cGFuCWX80zEtQc+OcO3Ncil2or9aOabjBO2QmjivbWPlhCWoMP3bxbWqm4Rx2sV6tHYsw6a5jPDxmHEs1mGo8CWa+WObUlOlIyn5VWRN2KXbRnpYLGCGIad3Rcrw4rgwv+kftheqjetAMQxZR63hZE3YpdtFul4sYIYjpKX05XhxXiIkSRtRjW+bXeB3MRTKMuBe7eM/ZihGefnnim0MYCz0ga73aMs82ez3W+asHq55s6jwwjHgtdmEfn0ubcwhicwjzcBjglh6cjJ5QorlDnYfmEXVeOs9cR+F3f/gjw4glsIt4k66paw4LCY4rwIIafgUAqZ7LEuyWubiWQe/w76lHuRyLhlCXY9wBO9SXwi7m55dr6pdcwcLxBCjFElwuseHUCouaS2IX9P7luvpEhSvX4OF4AkzAU2p6oSR2YT+9XF9/EMTmEWBwNOrF3og1sAv77vkSO4Q1YvOoBxaAgblPTS6Uxi7uG9Pl3JgmUHMNHo4nQQwG5mNqbqEWdpE/vFxrXygbKdfg4Xiq1w0wIOogkE5fG7vILtPtldaaa/BwPLW2BmBA2JWjFXax379ccz8QxOZR9xpgMNiVozV20Z9err0PeCXEXAIMBOn0PbAL7yrJI9fQ4bhqM1mAASCdvid28W+fb4MDcg0djivJHTAI71JzCr3QTXi5F/3QNjC5hg7HlXkxGICH1IxCb+xmdE27Z7eOOeUNzxAY5RSQTu8JuyEPz7emAwSxOdXu4AAB0TwYu9N7w26KEj26ZCwSxOZU72QCCAjzYF6xm9MlkLFv4rxGeOM4wAHMg3nHblLz1Hv2TZxXbTcGEATmwaJgN0qp980CGUFsbknwgAAwDxYN3bB046pDEJtb3X8A5zAPFhG7cU0CGUFsbrXlGHNj4Bj2RYyM3cDqgYwghsyNgVMeU1MIkbEbWTWQsYM9Sl6WCc74ZJLIMQp2M6sFMoIYStaNHUcLwzVioUBPIkwT1NaRyDEauqnp5haFIIaLJHl8jeYL168q+vHPvn0egtUaS3qwVSCRY1Ts5hYPZAQxPJRG+TXqoeau01p97iff/Ioe2/Xcp+YORsVuctFARhDDQ9XroAF+4ac//y57jbaqa6n6pcCmIUkeEM7CjhyzYDe7WCAjiOFa9SpmD2QKOrlrU0INRy7BbRmS5MHh+4+peYNZsJuuQHb1XosEMcypobFZUVDJXZMWqj6uA9wEb+JmS6lZ0Y1PBWA3BDE85ozrxxQw1okcXlyGJ5e5t2X+LXhPjgA2OyoAqSDsgiCGp5wpkHkOYFtdAp3UvVuC3TIn56xn92gSwOAFKwy7XqxJEMNz6sl/9DmbEQLYXpc5usXDnt6h3/z6d18CYc4LgqPm89+npgvgB6xgXBzICGK4xZGTPWomceArn0x6XnAaq5PvXqrmNghiuFX1VPTEPRLXptHjZh9NAhhsw+qmAtmmFHyCGF6qhpaio504KPvNZP0XXI7V001ryajIuEcNLzpKELgIpa7POv/VQQIY7Mfq69nMRT1VZwoe4iY1HBdlrkxBl4e2pvIuMLgeq7sKZB+fa3EGghheq3o1Kkdeg5mGDpVunjt2rCab+EJZrC5/eKnSryGIYSm9BTP1vAhezf1sEsCgDlavv8pcJIhhDRU8emQyKoAqZZ5hwy4qgPEeMKiL1fNXCR8EMaypFtJq3kwLZWuxBC4t0s0dAzZRa8AIYNAGq/dfEj5Y6IktVQ9JD04KanuzG9XDU7lVb2/r+76wqqwBg/ZYW6BA9qAGYVUgEZuquTQFt3PmvovdJYUe+vI3nz7fZwomIuI5SeAAH1hhvDM1KZsrqIiIh6qteJuaDwAfWKG8NTU5myu0iIhSbcRNajYAfGGF8435MRVWRMRDH0wSOMA/VlCZJ0PEQ5n/glhYoX1rMk+GOLefTNZ/QUys8Gp4UWtAcoUbEcdWUwsMH0J8rCC/PyjYiDi+96n6A4yBFWplL2poIVfgEXEM2T4KxsUKN9mLiOP6wWT4EMbHCjqLoxHHUXX5LlVvgDmwQn9jkvSBGFuSN2BurAJoTRm9MsRYqs6SvAEgrDLQK0OMo+oqW0cBrLGKQa8M0a+qm+y8AXAKqyTqlZHBiOhL5r4ALsEqjDIYWVeG2FfVQTIPAfZglUfryrT2JFe5ELGu2mmH3hfAtVhF0m4fJH4gtlF1jV03AEpjFeudSeIHYh01dEjiBkBNrJJpiJENhRHLytAhQEuswpHFiHi9etsya74AemEVUC/fZL4M8TJVZ96magQAvbEKSUo+4nlJmQfwjFVQJX8QzBBfS9IGQCRUYVPFzVVoxFkkeAFERhU4VeRcBUccVS1FIeMQYBSsMhPMcAbpeQGMjCp4qui5BgAxqgQvgJmwCq9sRlLzMboqwwQvgFmxBkDrzLTgM9dAIHpVC/1Z5wUAL1iDoB1AtGM+ezOiV1U2VUbZYQMAjmONhObNnsxcQ4LY2uf5LpNMQwDYjjUaegWMhhrpnWEPVfYYMgSA67CGRDvn0zvDFqqM3Zv0ugCgPNa4LHNnpOljKdXTV6+LF1ECQDus0VGaPsONuFdlGLIZLwD0R41RapRyjRXiosoISRoA4BM1TiY9NDyUwAUAMbGGawlozKHN4zLHReACgHGwBk0p+9pZnCzH8dQ9VcIPKfEAMD7W2B0OO9JLi+dhb4sdNABgbtQQpgaRoOZTBS3NbWkNF6nwAACnsIZyCWoaomL4sb16kNADBUELAKAE1phqx33NqalHQG+tnOpl6ZUmurYa4iUZAwCgNmpsTQU29RbUa+D9aOdVr1YPAQpYunbMZwEAeEINc2qg1VBrOFLBbbaem85ZgX3pXTEkCAAQHTXm5tJ7UwO/9OAizbspIOuYpc5h6VWR3g4AMDsWDJaenFQvZgkUcunZ5cwFnJwKmLnvL8N8iwq0y3EQoAAAAADG4Uc/+v/18eLAe9R9BwAAAABJRU5ErkJggg==;strokeColor=none;shadow=1;spacingTop=-2;spacingBottom=-2;spacingLeft=-2;spacingRight=-2;points=[];labelBackgroundColor=none;rounded=0;html=1;whiteSpace=wrap;" vertex="1" parent="1">
            <mxGeometry x="498" y="1020.5" width="50" height="50" as="geometry" />
          </mxCell>
        </UserObject>
        <mxCell id="D-f0g4XA8TNqZnRXPo1R-7" value="&lt;font data-font-src=&quot;https://fonts.googleapis.com/css?family=Segoe+UI&quot; face=&quot;Segoe UI&quot; color=&quot;#0078d7&quot; style=&quot;font-size: 12px;&quot;&gt;Event Hub&lt;/font&gt;" style="sketch=0;aspect=fixed;points=[];align=center;image;fontSize=12;image=img/lib/mscae/Event_Hub_Clusters.svg;clipPath=inset(37.5% 0% 0% 44%);labelBackgroundColor=none;whiteSpace=wrap;html=1;fillColor=none;strokeColor=none;gradientColor=none;shadow=1;spacingTop=-2;spacingBottom=-2;spacingLeft=-2;spacingRight=-2;rounded=0;" vertex="1" parent="1">
          <mxGeometry x="350" y="863" width="44.8" height="48" as="geometry" />
        </mxCell>
        <mxCell id="D-f0g4XA8TNqZnRXPo1R-8" value="&lt;font style=&quot;font-size: 12px;&quot;&gt;Web Jobs&lt;/font&gt;" style="group;labelPosition=center;verticalLabelPosition=bottom;align=center;verticalAlign=top;whiteSpace=wrap;html=1;fontColor=#0078D7;fontFamily=Segoe UI;fontSource=https%3A%2F%2Ffonts.googleapis.com%2Fcss%3Ffamily%3DSegoe%2BUI;movable=1;resizable=1;rotatable=1;deletable=1;editable=1;locked=0;connectable=1;glass=0;rounded=0;labelPadding=0;" vertex="1" connectable="0" parent="1">
          <mxGeometry x="434" y="921.33" width="64" height="64.16999999999996" as="geometry" />
        </mxCell>
        <UserObject label="&lt;div style=&quot;font-size: 1px&quot;&gt;&lt;br&gt;&lt;/div&gt;" tags="Arrière-plan" id="D-f0g4XA8TNqZnRXPo1R-9">
          <mxCell style="verticalAlign=top;align=center;vsdxID=112;fillColor=none;gradientColor=none;image;aspect=fixed;image=data:image/png,iVBORw0KGgoAAAANSUhEUgAAAbEAAAGxCAYAAADs0IixAAAAAXNSR0IArs4c6QAAAARnQU1BAACxjwv8YQUAAAAJcEhZcwAAFiUAABYlAUlSJPAAAEnPSURBVHhe7d35w1XFnSbw/JvTPZ3OJD3jZDqxu8ckbSeuKBHcVxb1ZRVfCCiLQECM4oq4A0E2RQQRBQGDUXBJzpznMgfuW/d57z1r1bfqPD98EAt477lnqe+pqm9V/SjLMhERkSjRQpFQvv7ub9n+L76m1h36opE3T3115Wd997e/5x/Hj0FE4kELRbpw8qtvBwFk54kvB0Fl0Z7Pstt2nciu2/lR9t82Hwrix1sPD44B7nnr5JWAh+M8fO6b/LD5dxERG2ihSB1o3aDy33jk7CAQICggOPx8x4c0gMQCx4/vMbXv8xktOvf7i4h/tFBkkuGA9eA7nwZtTYV0/UvHBi3KrUfPKbCJBEALRYYpYFWjwCbiDy2Ufjt/6fvBuJUCVnvm7f5k8BKgcTaRdtFC6R9UrtMHzwxaEawSlvYgmQTjhWipHfvLpfz082siIpPRQkkfUtlfO3lh0O0Ve+JF7H62/cig1YvrgeviXisRmR0tlDThrR9dWje9epxWpmIDWmk7jp3P0K3rXkMRmYkWSjpO/fXbQZfVqb9+N3jjZ5Wm2IXUfnQ7nv7mu/xy8mss0me0UOJ24dsfsg/PX8zw3+Hy907/lVaUEgeMVyKgqYUmchUtlDh9+OXF7NO85eWWD0MlyCpIiUsxhuZeX5G+oYUSj8++/i47fO5ipbUAV+w/TStGiQ+ScnA9saSXe51F+oAWim1fXvo+O3jum+zsxfrdSpi3xCpFiRcSdpAQogxH6RNaKDZhLtee039tZQV2VHSayJwmJPCgdaZkEOkDWii2HDz7TQZueVOo5JSxmDaMnWlCtaSMFooN6DKclKjRFNb2wwoSrAKUdCBVH6vvu9dfJHa0UMJBVyGyDP/ipMd3acexL2nFJ+m59vmjg3Ux2+iSFrGAFop/GKNqa7yrDmUs9guyGjHdQsFMYkcLxR9MXMXCuxibQqJFyEpFGYv9g2CGlpl7L4jEghZK9xC80Ppxx6PWHf4i/2P+b7qmjMX+KroZ3XtCxDpaKN1BSwuL8M6WFYigFnLiqjIW+w3BTAkgEhNaKN1A5YBKglUew2585eP8r/Of4YMyFgXrNGKtTffeELGGFkq7ME8HKc6sspgNMgbdn+PTiyf+Qo9L+gXjpJo0LZbRQmkHxr2m9n1OK4dJ0KUXerVyjM+xY5N+Qat83aEvlMkoJtFCaWbSuFdZWG3B/dm+LXzvFD026R90hauLUayhhVJf2XGvsixst6HUexmmLkaxhBZKdXXGvcrAPJ7Q3YpoWWKgnx2f9JO6GMUKWijl4SHGZGX2oLfFQrciAum1f2qvhSlpwLxC7K7g3i8ivtBCKQfzuXxNDrbQrYjvqzlkwuBFTq0yCYEWymRI3PA5l8pCtyIcOX9Rc8iEUqtMQqCFMju0RrCDLnuIu4YBdfd4QkDyCjs+EVCrTHyihcL5bn0xmITsHlcIWAGdHZ8IqFUmvtBCmQndeFbSzDEmZSW9efpAtwktEj+8+Ln3jUibaKFchZW9rSUzYG1FK901yJxkxyhSwAsgdkhw7x2RNtBCsdX6YrCNi3vMISCYdjE/TtKCxCR1L0oXaGHfYWmdGFLJrWyZoX3IpCx1L0rbaGGf7Th2nj58FlkaH8NxaDK0lKHuRWkTLewrdNGxh84yS+NjmgwdP7So0T08m7aur7oXpS20sG8QBO556yR92GJgZXwMsIakAlk4OPdFwEH2KLbTwWov2OgU18a9Xm3ABHj8/GH4XECrC8cy29QUTNVwf55IFbSwT9ANlsLitpa2lMeYolb16AbuVbxwFUEC5xpBI5ZV5RFIcbzY9BXHj+zWZX+28xIm8aGFfYEHCt0arLKIjZVlqQqoXNlxSjnoJi6CFV5QumpFWYCW3H1vfapxMqmFFvYBKobUWgvotnG/Z0hYXYQdp8yEcSi0SNC1hlaKex77AOOp89/QPmVSHS1MXcpLJuHN3f2+IWl5qlEYJ8J1QsDSGoNXoSdh7usnkm51SvtoYapQYUzt+5xWLCmx9jaPCpsdZ1+gaxBJFn1tZVWBLsXf54HM0hiv2EYLU4SHA91trJJJjbXxMZja9xk91hRhvhwyRlERa5ynOrxsFt2r7p+JuGhhatDP3rcVJayNj8HC907RY00BWlsbPzibYWzH/d5SD14E0HPilosMo4UpwYTKvs5bsjY+hjdsy+tRVoGkIGQPInnFWqs3JWiNLdrzWf5b/ucitDAVmq90aDCPyD0vISGQxdqti3sJ3VyYPOx+L+kOzvdje9UiE44WpkAB7DK0Qq11cWGcKKYJ5kWLS+Nb4eB5XvLnz5XNKSNoYewUwGZCooG1ChjHY3nBYLQWsaqEugrtQOr9Q++cUiCTGWhhzBTAOFTK1h5+ayvfI6sTqfCacGsXrs1jez5TIJMraGGsFMDGQ5q7e85CsxDIkGyica54oBW/ZJ+6FuUyWhijfWe+VgArweLcmxCBTK2uuCmQSYEWxub4hUvZra8dp5WVjEKL1T2HofkKZGp1pQP3DOYeKpD1Gy2MyYdfXhzcxKmsRu+DxYxFQKXU1Zw+VHZaky89uI+RteiWS3/QwligBXYmr/jQtcAqLpkdWj3WMhYBgaatQIafg1Uf1GWYNqxJqT3J+osWxgAV094zlxdURcXHKjEZz2LGIjQNZGiVYwkoi0FauoF1KtcdsrVCjfhBC61D5bT92Pn8t5f/H2McrDKTySxmLEKdQIbWJSYla4yknzCvT4sG9w8ttAwVFLqIhsvw1s0qNSnH6oNfNpAVwcv999I/WC9054kv89/yP5f00EKrEMAwQO92E/Vpm4+uWMxYBGxdP9vUCXQbIgCr5SXDMBna6v0s7aOFVmHwFm/nbnnKW3z4ghaP1W1E3EnsCl4yDu6Lu978RNmoPUELLUKlNVuXUayroltjNWMREMhwfApeUgbukflvfKK1L3uAFlqDCswdBxsW04ro1lnNWBSpCi9kWjA4fbTQEnRxzX19fMWKN3RWIUs92DPLPcciMcJUnCcPnMl/y/9c4kcLrcCb1A2vfDyxS4BVxNKM1dR7kaowNvanj5WxmCpaaAFaXujawmx898+G4e+xSliaQ7qye75FQsCLLOoCGExszu9NBos6o94AbGZalP/+9cl1icSJFlowte/zUvOX0F3AKmBpByaQuudcpE1FgMKiBQg4GP9GELrxlY/pPVkXslq1BFl6aGFoeNPCW5RbziiIdQ/Xwz3vIlVhfBtJWghUmBaDQMXuty4hCUyJHmmhhSEhKP0ufwMre6MpiHUPc7Q0eVSqwCR1tOIxttp2i6qpRXs03psSWhgKAtfvd39SadKtgpgfmAytyaPC4L6wGrBmo6Wp0kELQ0FfeNWuKwUxfxDIcL7dayD9gvErrFeKDUarLtJshe7ldNDCEBC8kFnklk+iIOYX5uRpFYR+QVdykfXH7olY3fTqcY2PJYAW+oZAdOebn+S/5X8+joKYfxgct7o8lTSHZwrdg0iumm3x5VRMH9RE6NjRQt/ufevT2pUiWgXs5pRu4a1cb7HpKJZ2u27nR/R6p0zzx+JGC3165oNzGTKZ3PIq2I0p3cOYiHstJA54acSC2lhiLPXW1iSYP6Yu8njRQl+Qhbjto6s7NNfV94cwJMz3ca+H2ISKGoEL3YTsWvaZXsjiRQt9wcBqG2MrWgA4rDoJOeIHAhfGt1JLyugCVgxxz5/YRwt92Hjk7CDTzS2vQ1uxhKdxBTswVokWlwJXNepWjBMt7Bq6EdEF2NaWH3pYw8GDr9U8bMB1QPeuutfr02oe8aGFXUM3Im6YMgv8loFg6N6M0j2MI+jNNSykw6M7V13q7dFLWVxoYZfQjVjcLE2zEgt4+xy+CaVbeNNv6wVEqisyC2NZ4ik21z5/VNNHIkILu4K3xqKrA/9t60bBqtjujSjdwDyiKmtbSntw3rE+YaxLPcUEW0G5519sooVdGU7tRTKG++d1KYj5gcmwekP1D1lzGvf17/C5b/LTz6+J2EELu4B+5uEbpK2kDsBDPvyzpV1K3vAPY414OcO5Z9dEutfmi7Z0hxa2DW/v7nI2bc4twlYQwz9b2qPkDb8wVUGJSnZo7Nc+Wti24WSOQpvb3mOg2/350oySN/xCokYf1y20TnPH7KOFbcINwOattD05Vt0u7UG6tpI3uoceCrwoKD3eNowFu9dO7KCFbZqtawSZiu7fbULpxu1AAkEbS4HJ7HB+Nd4VF+1qbhctbMu4sSr37zaF1GP2OVKe3ji7hV4JnGPWMyG24eXOvZ5iAy1sy2xrGqLv3/27TWG7dPZZMhkqVS1+2h30OmhCfvyw+7x7bSU8WtgGXHB2I0AXbzXjPk9mh/EYdZV0A+dV256kA92/midpDy1sw7iV5bvYuweJCOyzZHYa/+oGWl5Kk0+TMnbtoYVN7TzxJb0BCl1spIg3JPZZwmn8q33qNkyfWmP20MImcIEnZV0hCcP9d23QvmKTYfyrzTl6ooSNvlFrzBZa2AQuMLvww5Be7P67NihDcTy8XLS1c4BcTpVX8OoftcZsoYV1lWmFATIJ3X/bBqx6wD5PDg227dDKA+0o5nlpNfn+wipE7n0hYdDCusq0wgDBxv23bcCYBPu8vsM4jd4c24EXgTIvapI2tL71UmgDLayjbCsMugpioLfjmZTA0T6s6K8uRNGzZQMtrKNsKwy6DGKal3OVBqC7o0Amao3ZQAurqtIKgy6DWJVgmio8XF2eY7kMk5nV8u83jY2FRwurqho4uqxgkX3HPrMvEMC0gaU/CmT9pkzF8GhhVVXnZ3UZxHBD9bWbB5WplpDyT4Gs39RtHxYtrKLOmoVdzRMrYDkl9rkpwxqIbW9vI+UpkPUXXuLd+0H8oYVV1Fklo+sghqwh9rmpwjXQAHN4CmT9pRXuw6GFZR0+9w29oJN0HcSwazT73BRpEV9b0BrWTs39o9ZYOLSwrLordXcdxDAu1oc3Ypx/DSrbo0DWTxqPDoMWloHuq7oJFD4mCaa+mnhXiyhLOxTI+gdzVN37QLpHC8toMh/Lx8VOeZPMrluy0g4Fsn7R5OcwaGEZ1z5f/+HEYrTuz2tbqqn2CmBxUSDrF6Xb+0cLJ2naysFD7f7MLqS2BJUCWJyQeFMni1fic93Oj/JLzu8D6QYtnKSN4OD+zC5gUjX77BgpgMVNgaw/kB3tXn/pDi0cB90j7MJV5aPvGBUH++zYKIClQYGsHxbtUdKVT7RwHCx4yS5cVb7SUWNfvUMBrDq0wNFlbTHlGYGsjyvK9AnG4nGd3Wsv3aCF46DPl124qnwtUhvzqvYKYNWg4hju6kZlYnExZCQdzdv9yYxrLWlRgoc/tHA2eLNlF6wOX1uFtNX96ZsCWDUIVrNtB+TrXqtCgSxtWsHDH1o4m+mDZ+gFq2P6wJn8R/LPaRtS+tkxWKUAVh6CQZmJ7Rs/sLnvU+qT8vvs5Fff5peYX3dpDy2cTZWNLyfxObs9pi5FBbDy0DNQpXvb6ionCmRpWndIz7IPtJBpe1FdBET3M7rSZIksnxTAysOLSZ1ripcni+tNomeCHa/ES3PG/KCFDNJG2YVqwmcGT93Fin1RACsHLyRNx5KsrvyPe4Adr8RLXYrdo4WurpZw8pk5hs9ix2CBAlg56A1oq0sbA+9I+nE/I7SYs2lllLoUu0cLXV0FAN+D7RbXsPOxon8KumilWJ1LltJKM32nLsXu0ULX1L7P6QVqCl187md1yVp3DbrF3GOUmdy5X23DvnMWlwlSIEuHuhS7RQtdTVasH8f3W4qlBA90Z1lMMLAErSQfrWfcExa3l0cPSAwJSTKeuhS7RQuHtTnBmfE9wN7lW31ZqJgtjsdYsuPYl94rcHymexyhKZDF76ZXj+eXkl9faY4WDsNbBLswbfHdldP2VIGq0H1lcRzGCrROMZ+LnTsffE7CL+vI+YuD+4Ydr8TBYjZsKmjhMLxFsIvSlhArKVRZSRyVB1KyAWNqk6ACxt9l3WB4o/aZkRkbtE4trPKOycfusYWGFx8FsnjtPGGvlZ8KWljAGBK7IG1Che9+btfQbcSOBctTIRChtdZWdx9+Dn4ePtPiuIsVCO6WKmkk3Vgbs0SCgMUMW5lM27N0hxYW8PbALkib0DrxXVng81BhokJAywnBRc39cPDiwO6N0NAq9LHvXRV4KWprJwnxx+cKRX1DCwtdrNLBhOhiU9AKD9cALXF2T1iBFx1rY5g4bxa6XaUajYV3gxYW2lzwdxxN+O0fPNCxdI2h1W5tLBOBTFu5xAUbCrvXUZqjhYBKhl2ILmhWe7+g+zbGtHFrKfjoFrcwZUTKCTH+3we0EHyv4aZ5U/1gdfyrLIu9BtrKJQ4hxv/7gBaC7zc8i7vvSnvQ/ZVKqwHfw1plpK1c4mBxibPY0ULwne6MisE9BkmDlflfbbKYuagV8O3TuFj7aKHP8bACgqZ7HBI/vHlamv/VJouZi1o42Da9rLePFoZ6o8PyOu6xSLz60DKwmLmI49F6izbpZb19tDDU2AUmHrvHIvHBeFHI9Q9DsJa5mHILOHaaL9YuWtjV1iuT4KFT9k7cME6E5bvY9U2dtZcwVJYKZPZoHcV2jRQgi4ydeF9eO3khP4yZxyRxQKXpa4K8VZiAjGfIPTehIKlG6y3aonUU2zVSgP50duJ90W7HcYp1AnMXkLload4jWsdapsoOLe7QrpECpICyE++TtdRlGU+p3aPQIrU09oHWofV1KvtEwybtGSmwMCE1xB5jUk/fEjiqQMvU0vY7qDgtPN+i5I42jRSESuoYpua2fVqAtjxrL2Vapiq8HcfO55eCXx+pZsb/hE7qGKY5Y3aluAJH1x5851NTXUixr2EZO+3c0Z4Z/xM6qWOY5ozZpAzE+jD1wNJ472w7nEv3lMDWnhn/gyYuO+EhaM6YPVoJojlrCR/KKg1DK3e0Z8b/oInLTngImNuiIGaH3trbg6BhaT5kW6t7oIsZ3aboqgTcM/jZLmSz4s+x8j4yJjEGzn5e6pSF3Y4Z/2NpoB43+/CxSTiWXm5SgorcPdeh1Okmxosmuv0RkJtO8MY4K4Iesif70jK0tuZmrGb8j5U3ImRPDR+XhKGU7O5ZSvgos7oH6ggEm64ncyOxCy9PKS+bpQzFdlz5DR4kdqJ9w9ugpWV7+grXQBmIflha4WO2645uvxBz3nA8mKKQYjLR9MEz+Vfk31vKu/Kbk199S0+0b1o7MTwFMP9QSVuZVoIX2mJoAS1xC8eFY8JYWkrBDK1w93tKdVd+g7csdqJ9wgNTHI+EoQAWjqWEDwQNK63DYUUwS6Gb8aZXj+dfiX9PKe/Kb0KvmYibUtk6YSmA2aCJsJOh5yj2exWtSvd7SXVXfhM6Aw1vV8WxiH8KYLagVwLXxL1OchVaZbFnzuI7uN9LqrnyG/TPspPsA95IdDHDUQCzCdfEYpeeNRgKibV7ES1K9/tINVd+E3KbBnWfhIUXiBSzv1KAyllzJidDsI/xRUxzxZq78ptQq9djMFtjYeFpQVjb1N0+GXoUYtvFeueJL/ND599Hyrnym1Cz5JWRaANeJPqyUkKssAiAut3HQ4sspkC27pCdVVtiNfgFFRg7wT5oczg7tDqHfdZWwrcI40yxjJFpKKW5wS8IJOwEdw0P5PDBSFgYe2HXSWyxNDHaKtRpMQSyRXu05VRTg19C7SNmaet2uUxZinFA1y/WMHSvn1wVw9ZBSKhzj1uqGfyCwUV2gruEt6ThAxEbsE4du15iE1aR1zjZ7JAQw86bFXhpdI9Zqhn8EmIzTCV02ISBcXa9xC6Nk40XcvrQJMgKd49Xqhn8ggwZdoK7pJRhu2JLUxaNk42DAG95HqR7vFLN4JcQQUxZiXahi4pdM7EN4z8vnvhLfgn5de2zUOP+Zag7uJnBL8iQYSe3KxoPs83CjgZSn9K2OatTSLS0WDODX3wHMY2H2YaVD9h1k3hgHEgLCM8UairRJApizQx+8T3wqfEw+ywPhks5GNtUt/1MFltjCmLNDH7xXWHpwbJv+sAZeu0kLhgnUyV5lcXWmBZ4bmbwy3U7P6IntwsaD4sDEgTY9ZO4ICvPvbZ9Z62XQUGsmcEvPlewRxfH8AGITUjXZtdP4oLJ6+617TusdMLOVSgKYs0MfvEZxPAWNHwAYlPIRaGlHehK1CToUdbubS2/18zgF59BTJmJ8YhlJXDhsFu7e03lMktditpTrJnBLz6DGPZEGj4AsUuLAcdN3VSzs7SmooJYM4NffAYx7CA8fABiF97k2TUU+9CVqJUgZmcpS1FBrJnBLz6DmOaIxUNp9vHS2PN4CPDsvIWgINbM4BefQUxru8UDrWZ2DcU+9XhMZqW7XN2+zQx+8RnEdMHioSAWLz1nk1npLte1ambwi88ghtWkhw9A7FIQi5fWTZzMyv2tINbM4BefzWp1J8ZDQSxOWhWnHCuTnhXEmhn84nPOhFYQiIeCWJywjJx7LWWUlaXVFMSaGfziM4gh4234AMQuBbE4zdv9SX75+DWVqxA82PnzTQuiNzP4BTc9O7ld0GTneCiIxUnPWDlWgph2GWhm8IvPTTH1lhiPqX1+N0uVdiiIlWMliGl9y2YGv/gMYje+8nH+kfxgxBafLXRpj4JYOciUZufPN/e4pJrBLz6DmLZiiYfPfeakPQpi5VhI7MDyYO5xSTWDX6YP+lteSOm/8cADxq6h2KYgVo6FFHvM0XWPS6oZ/OJ7RWdl49in/cTipSBWjoXEJQWx5ga/YAFKdoK7okWA7bO0yrdUo3HnciwsO6WFmpsb/OI7S0cbY9pnZSKoVKcu+3IsLACsINbc4Bffb916yOxDlxS7dhIHpW2Ph61YLIz5IqnOPTapZvBLiPEPjYvZhixSdt0kDkfOX8wvI7+2Yqe7fN0hbZnT1JXfsBPcJY2L2YUVBNg1k3gg8869rnKVle7yHcfO54fDj1HKufKbn+/4kJ7krmhczC6Nh8VPGYrjWdlLTFtTNXflN74ntmJcDP3SxeeLHRoPi5+er9nhvOD8sPPmm4ZVmrvyG7SM2Enu0punvso/evSgJCyNh6VBW3xwVtZMBG1e2tyV36zYf5qe5C5pPos9SAhg10rigwWc3esrdha21pJT7bjyGwwwshPdNTWnbdHK9enAOLd7fVNw8eLF7NixY7XtP/JhNvePb2a/WPfaWP9z0z56XtuizUvbceU3oVZ01gC0HVbmzkh7Uuyyf+GFF7LHHnusc/c//Wz2Tx0+D9qWqh1XfhMqrRqVpiZm2qCsxPRgVQr3OsfswoUL2dTUFA06bVu8bEX2r891l7U9te/z/Cvx7ynlzfifUG/hGz84m3/8zAMT/zBGya6PxC2l1pivVljh1j++Q89pGzRXth0z/ifU/lHou1c6cFgnv/qWXhuJXyqtse+//95bK6zw4Lqt2U/+2M3LveaItWPG/4RIsy8o3T4szQ1LWwrP1/79+2mg6dKjS5Zl//5cN3PKNIzSjhn/EyLNvoC5SWqNhWFlHTnpDno7Yq80t27dSgNN136/5XV6TpvQIujtmfE/r528MHKyfZo+cCY/jJkHKN3TWFg/xJwNF6IrsfDwmk2tr/CRWsJNSDP+J/QbORJLMDYzfEzSLXQzsWshaYo1mSBEV+IVU0uyX/+p3XExrN3ofkepZ6Qg9DwhbRLnD7pvfS/8LGHh+Y5xm5ZQXYmFe7a+nv3DFn5O69h4RBnZbRkpsLDbKeYruccl7cPUBnb+JW0Yf8a8UPd+sCpkV2Jh/aZnsptfPU7PZx1KZGvPSAF2GmUn3acUBqFjgDHQ0C1vCSOmQLZ3714aWHw7++VXgy2k2PmsSgv/tmekAH3m7KT7psVL/cA4qLoU+wm9LjFUphs3bqRBxbf33nsvP5zLdWSTl79rnz86+DnSjpECS9sUaCsJP9DqtdCNLP5ZD2RY7Dd0V2Lh6aefzg/p8nFhXLHulkVK6mjXSAFuaHbiQ1C3oj9I8rCy2634ZTmQWelKLJw7dzW7E+esziIBWm6qXbTQ0lu5shX9atpVInHCXEGLgcxKV2Lh7bffzg9r5jEiEa3KPLLD574Z+RlSHy0MuXIHgwdMLTJ/0FWicbL+wTW3tJ6fpa7EwurVq/NDGz1WJMmUXTRAKxO1ixZanACLB0wTof3BWzlWeGDXQtKGLjILFa21rsTC55/PvoXKusNf0HNaQC+X+2+kGVoYam+xSZTo4d+kh1LShB0tQk+KttaVWHjllVfyw+PHDDhvs+0Igl4u9+9LM7QQkAbKLkIoGKdRMzwMvDy0vXacxCHUeqYWuxILq1atyn744Yf8MPmxA+oqnDv3fGqSc/toIViY9DxMCR5hYUxSCwX3E7ry0SL3OS5ttSuxcPz48fww+bEPwxDI8HNjNQs0ZrQQdp74csaNHBoeIvcYxS+8XVpL+hF/0BuC8TJMkHfvjbZZ7UosvPjii/lh8mNndhz7MrvltXKBT6qhhWBtXEzjYXagS0Tdi/2GnhEsW9ZFF7/lrsTCkiVLJnYpur75Xq2wLtDCgpVxMY2H2YNuEq3yIYDuMoz/4OWmaXcZWnkbX36DBg5rPvzww/yQ+fcQf2hhwUrXkcbDbMKLRZ0VCyRtyMzD2qcYAgDsloCeFBcmCePP8XwPZ/PdtWw1DRrWbNu2LX8M+LMRm+GVSGJDCwu40YZvzlA0HmYb+vu1ykdY1zz1Bi2PzU827Mkefdx2V2IBXYpffx33MMfRo0ezJ554Ivvtb387ceqAVbSwgDdtC5UTgql7bGILuoFmmxsj3brhic2DSvX+JSuz66afo38nFr+ZfnYkWFh24MCB/Pbnz4RlCF6PP/74IHgNO3ToUP7H/N9YRQuHtbV/Tl0aD4sHxkNC3y99wyr9h6eWRxvM7lk6PfJ9LEMWpfscWPbpp59my5YtGwlehTlz5mSnT8c1IZsWDgudaq/xsPhgrEPdi91DoGIVawHBDEHuH595n/57a9CVyL6HdRcuXMhve/4sWIHAVHQbTnLXXXdlyBB1f4ZVtHBY6FR7jYfFyZ3kKe2aFMCGLZhaml2/apv5YBZbV2Kh2CzTIiRsrFu3jgarcdDV+P33cSy6TgtdIVOp+zgehu7T0OvWtQUvIey6Sn3/sfp5WplOgmD22ye2Zj/e9Gf6c0OLrSuxsHbt2vxW5/d/KGgdbtiwgQaosvDv3Z9rES10rTsUpiLq23gYAjZS1ouJxFZWE29q3IKoUs0v17zcOHtv0eNLBskgloJZrF2JhS++sNFjhOC1ZcuW7KabbqKBqaoYMhZpoQtdQ+zG61ofxsOQ1Yf5eLPt34VzkMJ6awjGmlPWTBsBbBiC2c1PPDMIIOzzfEE3560rbS8zNcnzzz+fXbrU/XJcs8EY1nPPPTdIzGDBqAnrGYu0kAnRpZjieBiCFnZPRhZf2aWb0IrB2KT7s2KETRe14WZ1bQewYfi5CCK+g9lP17+bzVm+fhBM2XHFZvHixYNsRWQAuvd9VzBu1VXwKljPWKSFzMYjZ+mN2KWYty1AFxq6B7FaAYIxNphsst4g/m0q42RYDV0bbpaHicw+JgDjM+Yuf2oQXNhxtOXf1uyMZlWOOhYsWJCtWLEie+edd/LbnT8DTSF4oavvjjvuoIGnbZYzFmkhEyJL0efWD1UghZwdb9cwRohFV93jiZVS8SdDAAvRUmk7mGH8DUklSPtnn5cydDW2mYb/9ttvewtew6xmLNLC2dz06nF6g3YBLQ/3860I3YpIqZsV460Y92Pfs+9CBbBhdyxf22hJq5+v2zUIiD5akpYtXLgwe+aZZ7LDhw/ntz1/FiZB8EKLiAUYXyxmLNLC2WAsh92oXUCgcD/fArQOLbQeMKaW0gZ7aJU16W5NDVpBlsaK5i/7Q+lghkQNzGO7d+kq+rP66tFHH81uuOGG7L777st2795duntu//792UMPPUSDSgjWMhZp4WxQgbObtguhtkWfBIvdsuMNAQkfaMm4xxgr3F8PvvMp/a59ggBmtdsNY1m/WPfarMeNbEfMR2P/tu8QvIaDARIm0LKZLWkC6xtaCl7DLGUs0sJxfHWlWU3qsNb1hdZLSuNk0OcMRssBbBgmJhfBDJmT6HZkf0+uuuWWW2hAAKxnuGfPnvz2n31xXkssZSzSwnEQXNwHrwsWWxg+W6JVYa6Ze7wxQ1cpWuPsu6YqlgA2TK2uch555BEaDFxdpsq3zUrGIi0cB5NWu35LtprUYakrkUllYvSwvqz2gew9bKXCKkCJX4hsQh8sZCzSwkmmD3b7hmx1pY4YsujwgpHKfLJhmG+Xajq+AljaFi1alP3ud7+jQSAFoTMWaeEkXc8Zs9g1Zrkr0YXKHpmk7neIXYrp+Apg6bvnnnto5Z+SkBmLtLCMLhM8LCYqoCXAjtWy1NLwCxiXvfZPR+l3bgNeAhAscY9jTp4L5fhzaDotAMsusYpP0nHzzTfTij81oTIWaWEZXSZ4YH1B9/NCi3VvLFT2Fs9nUxibRUBpo4sR5wit/7rnqVgPE8Gt6vFg7hWr+CQNDz74IK3wUxQqY5EWltFVggcqAfezQgu9MWhTOKdISnG/VwrQzYsWJ/ve4yBZBEGwiyxYjEkiKJZtpWEiMasAJX633347rfBTFaJbkRaW1UWCB1o87ueEZj0rsSxMJE6xexGw2HKZnRZwf/lKfMGLHlpok1721BpLExI6WEWfKmRghshUpIVl4S24je6cYRaTOuq86VuFFkiK3YsFBA3WAkIgCTXWimCGZbXGjeOpNZaeO++8k1b2qdq+fXt+u/NnoEu0sAoEHfZQ1mWx26vp4L01ePFApep+z1SgtTm177Mr3xWTpq20QHF/sxc/tcbSgnUSb7zxRlrZpwg7Sbe5Un8VtLCKtseL0C3kfkZI6Hpix5kC7LSMVoL7nVOBFqfFzUQxDse6PtUaS8cDDzxAK/tUbdmyJb+1+f3eNVpYVZvdbeiidH9+SBj8Z8eZitQWEY4FXh7cXgy1xtIR0/JRTYVshQEtrApvvMMPY13oZnF/dmipTa5lUu9etAyLHQ93V6s1Fr+y6ySmYvXq1fmtzO9vH2hhHW1MfkYXi/tzQ8I4Chu/SBWuobWWcB+gy7NI+sAiwH3fQDJ28+fPp5V9qj799NP8Nub3tg+0sI42Jj+jW9L9uSH5WrHfErQK1CrzD70ZRYvs1pUbaeUo9iGhI+V1El1PPPFEfvvye9oXWlhXmXk641jbCLPtzMuYqFXmXxHIfrJhj1pjkbr33ntpZZ+q0K0woIV1NW25WEuv78MWIOOoVeYfxsjQha3WWJzGbXyZmoULF+a3LL+PfaKFTTRJhLCUXh/7UlNtUqvMLwSyf9mk1lhsHn74YVrZp2r//v357crvYZ9oYRNNMhUtVZRY3YEdY1+pVeYXutbVGovL3LlzaWWfooceeii/Tfm96xstbKrOvDFr6fV9Hg8bR60yPzCP7Nqtf1ZrLBKpb3zpstIKA1rYVJ3WGMaf3J8TUh/mh9WlVpkfWAfyt09spZWm2HL33XfTyj5FWOjXvVdDooVtqNoas5ZeX6Q7y+x8rgjfV/+188NswdRSWnGKHVi1glX4KQq5izNDC9uALqcqE4UtrV6PZZjYMQqHNRjVxdgNZPxev2obrTjFhj6tkxhqu5VxaGFbqowrWUqvV1JHdWi5bvzgbH76+DmV+m5/9ZhaY4b1aeNLa60woIVtwbJNZXd/Rlqx++9DUVJHfRjbtHQtU4AxZrXGbMJcKVbZpwhdptZaYUAL27TzRLldkfGguv82FCV1NIcxTovboMTqppeOqjVmUJ82vgy53co4tLBtN716nFZ0wyxVeErqaAfGRLGVTcp7lvmC7na1xmzp08aXobdbGYcWtq1Myr2Vik5JHe1DlzISFNxzLeXh+fjJlgPZg1MraIUq/t1///20wk+R1VYY0MIuTO37nFZwYGmis5I6uoNuWkvdxrFBF+2/rdlJK1Tx79Zbb6UVforOnTuX34L8vgyNFnYBKdizJXlgLyX374eC5X7YMUp7NF5WDyY/4/zdv2QlrVTFnz5tfGlhu5VxaGFXiofQZWkzzKqTtKU+zS+rpuiWV2ssvHnz5tEKP0UWtlsZhxZ2iSV5oJvJ/XuhNN0TTapBVzKmNGA6hnstZFSRdKTWWDh92vjSeisMaGGXkDjhruTx4Dt2In2VVUakPaickcmoYDYZlvpa/sKbtIKV7t1zzz20wk/R0aN2hnpmQwu7tvHI2RkV2NS+z/Ji/nd90h5i4WHcFN3OSsufbM2aNbSSlW71ZePLu+66K7/N+L1nCS3sGiqo4W47vIG7fycErDQxXKFKOEj20Ur54+3du5dWstId7KPFKvxUnT5tZ03b2dBCHzBIXXTd4c3b/fMQZks8kXCstNIt2rx5M61opTt9WicRLM8PK9BCX9Yd+mJQUVl549aaifYgg9G9TpL9CKsnTE1pw0yf+rbxJcyZM8fkeonDaKEv6Fa0tGAsdi1mFamEoyDGvfTSS7Sile70aePLYRZXrh9GC306fO6b7MDZb/Lf8j/3CeMwrCKVcBTERuHNeMUKLT/lW1/WSXRhHNC9By2hhb7tMdISY5WohKUgNmr//v20kpWZlvxhQ7Z0bW712mz15mezbS++mr306quDcZ7C8uXL6b919WnjS8Zyqj0tDOHjwGvqKb3eJgWxUWvXrqUVbZ9N/2Fdtu2l17KjH3+cXbpUrS5By/b48ePZnj17su3bt9Off9ttt9HKvS8sT3qmhSFc+PaHoHODMIGUVaISloLYTKdOnaKVbB8h4CDwfPVV/R0Svv1hdHI9gtr777+f/elPf8pWrVqVLViwgFbsfdL7rVjKCrkorOaI2YS1LN1r1WeztRT6Yv369dmBAwdayZi7RAIYc+LEiWzdunW0cu+T5557Lj8d/ByFRAtDCrXsENL8WSUqYSF71b1WfdXntPrp6ens8OH2tmz629+r9/pgOxJ0q7EKvg/uuOMOk+n2tLCPsGoIq0QlPC1Bddkbb7xBK/iUoTvv7bffzr8+PychYFX3ZcuW0Yo+dei+dc9HaLQwtG8DVFpYGYJVoBIeFo12r1cfoRXAKvoUIWvw9ddfzy5evJh/dX4+6rpcvfA/qwIZewsXLqSVfarwfd3zEBottODbH/wGMu0jZtebp+oP3Kfi4MGDtLJPEboOP/usm+XGvm/5BRnda30bL7O2vxgttKLtG24c7GnGKlAJb+MHZ/NLxK9bX/RlncRNmzZ10vqCHzqsT7CqBavwU7Rhw4b8K/PzEAIttOSHGgOwdWi1DrssbZoawpkzZ2iFn5oXXngh/7r8HDTlox5B9yLWGmQVf0qspdvTwj7SZpi2hZx+ERoqd1bpp2LJkiWdJwz4ehnG1iX33XcfrfxTYmk9RVpojY9uRVZxih1W9pzzDWMuS5cupZV/ChDAul7SqOx8sLagOzT1fccsbZhJCy3q+kZkFafYge5e95r1wbvvvksr/1R03QL76rsf8v/wP+sS5pSl3rW4e/fu/Kvy7+8TLbSqq0B2/tL3tOIUW/Z/8XV+ufg1TBHGwtasWUMr/xS8/PLL+dfk370Nfw0UwApoYWL8iAWAVGACNBI9Qi4QTAst66JvW4v/xqEP6yhiwByTmlMOXoAsxC5Xf/jLt2EDWAGtFVb5pyhUQKOF1rUdyBTE4oDkG7Sa3esXO4yh7N27N9u4cSOt8FODeWBdpdEDemx8Ts+ZBBU7q/RT5jOg0cK+6csK9v971Z9opVLWf67fRX+uT1hZxb1+scK+YFu3bu3VeohI5Pjii+6SdC5+byuAAVqcjz/+OK3s+6AIaF1NkqaFMWizNYaxFlZhpmbegsdpxVLWfWs205/r27HAe881cezYscEWIilnHI7z6quv5qeBn5umELwQxNxyC1CBswq+b5DViM1I2wxotDAWbQWyPgSx/7H6lWzx4sW0Yiltakn2v/7If75PN77ycX7Z+LW0CAkamOvVp7UPGXz/rsbBEMAufW+rBebq8wr4TFsBjRbGpI0VzrE2H6ssU/LrqadoxVLVTRteoT/fN+vzxs6fP5/t2rVrMP7DzmMfvfXWW/mp4eerqS+/tT9WionQqWcr1tUkoNHC2HzTsAuhD3uJ3bWgYSvs/3t4en32D1v4Z/iGsUz3WoaEZAXM68LGjezc9VmXrTDsCu+WWYWKmlXichUCGjbgRNB3zx9DC2N0scEcstSDWCtdiYWpJdm/bv0z/RzfMAE69HJUqJiRoNGXBXrr6qoVFlu2KqZQqDVWHpbwmhTQaGGs6s7OTz2ItdWVWLh9/U76OSGECmQffPDBIEGjrzstV4GtStzz14YvL8XTAhum1lg9CGhsg9QZ/5OCOoEs9SDWVldiYcGqtYM5W+yzQrhu50fZ1991n5V26tSpwVvhihUr6HkR7s0338xPHz+ndcUawACtMVZJSznobhwOZiMnOAVVK7SUg1irXYlD/mPrPvp5oVz/0rFOAhkyC7Fid98zC5tAkot7Xps4ezH+Ce992xG6C8W5HDm5qaiS7JFyEGu7K7Ew7+nn6eeFhH3H2shWHYYuQ/b9pZwnVq9pNQEnhQAGaNGzilnKK87lyMlNydclA1nKQaztrsTCohXT2U+3HaGfGRICWZuD/Qpizdz85FZ6nQpoQeOalXHw7Df5JeHXKTaa/NxccS5HTm5qygSyVINYV12Jhf/c+i793NB+tv1Ihrl/7nWuQ0GsmX996nV6jaraeeLL/HLwaxQrjO2wylnKKc7jyIlN0aQuplSDWFddiYV71z9nZs4Yg1Xvm46TKYjVt2Dpisb3BxKI3jv91/xS8OsTM2UpNlOcx5ETm6pvf5g9kKUaxO58hFcubVm8bEV2zbMf0M+2ApmLTcZkFMTqu33lBnpNyvr5jg+jXidzEqzwzipnKac4jyMnNmXf//3vdIXrrtdO/Mdn3qflXfrx2jeyRYsW0cqlTTdtfZt+fpd+Mv1K9j+XbKF/Nhusfl9nPpmCWH2/+sML9FqUgbGy0BPZu4aJ8qxylnKK8zhyYvvAzVzsMojd8Oh0tmjp8uyG1c9mP958gP6dLvzfJU/TiqVtD6zdmv2TpzljP1uxI/vV3Luv3MT4f/b3xrnnrZOVWmYKYvX9n5rjYfN2f+Jl3p8F2KZkuGKW8opzOHJS+2J4vbWughgC2PBD/eiSZdmt01uznzzT/bJNXXclFvCdfvFst1mKP33ypey6O+4buYn/64YbBy1O9m8mwUr4r528cOUemI2CWH3/XOM+X7Tns9anSVi2bNmykftayinO4chJ7ZNidY8uNsW8funsi8B2Hcx8dSUWbn/mNXocTSF4/d/5D9IbuPCbOb/P/nFj/YnXyGRE62zjB2dpC01BrJ6F+T3Ozvc4G4+cHTn/qevjrs9tKc7hyEntG3RbYAIle6jq+tWS9dmjjz5KH+5hCGZzntyS/cumvfTn1OWrK7Hw0B82Z/+jxTlj/7xmV/Yfdz1Cb1wGf5f9nDqQDYc5SdjqBaY3bqHfWcZ7eGo5Pb8MznmZVnGKNOm5vuIcjpzUPkLmIiou9oBVdd3STaUC2AxTS7K5T25uHMx+ueq5bN7jK/lndOzexUuya1dszf5hU/0kFgSvf797Eb1hJ/nXBdP0ZzY1d3m30xRSde+yctcDLWF057vPZF8oiNVXnMORk9pX6Ief2vc5fdDK+uXK7dUD2LAawQxdab9ZsTl74LEl/Gd69uCCxdlvlzyV/dO68lmL+Lt1g9ewOokekyiI1XPP0slB7Nrnj2Ynv/o2f/z4M9kHu3fvpveyTFacw5GT2nfo1qizQvsvVm5rdXWM+as2ZNdsfI9+Fvxs7evZrUvXZgsf5f8+NIzJ/fbhpdlPV86+xiKC17X3L6E3aB3X33hL7USP2SiI1TMpiN306vHeZCCOg9XY2b0skxXncOSkSvYjvB1ikix7+JifT7/Y2fJObjBDl+Gdjy2nf9cStEhvvPHGwc3269vmZ9dMbbrS1fjfn34v+8UDy0duyjbgs5okergUxOoZF8SQSNOnDMRx1J1YX3EOR06qXIaHDOm+7CEcds2TO720hu5c+XT20KOP0z+z6IEHHhi56dBSQrchUuPdP2sTPoNdqzoUxOq5f8Uaej6nD57JHy/+zPWRshPrK87hyEmVmXYcOz9r9+I1a17JFixuMAaWsDlz5tAbz5efL+SVaFUKYvU8smTFjPOIno3D59JZhb4t2KeO3b8yWXEOR06qjML6bW734r+s250tiKhl5NMjj5RPj+9SG4keCmL1YF3N4hz2bQJzFQ899BC9d2Wy4hyOnFThMAg93L3466Ub6MMrj2Xz58+nN51vbSR6KIjVd+32g8muQN8WLTtVX3EOR06qjId9qjC3BckJDy/0typGLJDQ8bvf/Y7edCE0nT+mIFbfsRMn80eGP0dyGbtnpZziHI6cVJkMOwdjkdLrH19LH94+u+eee+gNFwISSPCywYJTWQpi9b3//vv548KfIcl+dO7cOXrfSjnFeRw5sVLe9kOfqDXmuOWWW+gNFwLmoLHAVIWCWH0vvfRS/pjwZ0eyH+3Zs4fet1JOcR5HTqxUs3mbFogtPPzww/RmCwXLWLHAVIWCWH2rVq3KHxH+3Ej2o3Xr1tH7VsopzuPIiZVqLly44HXFeMvmzp1Lb7YQ2porpiDWzKlTp/LHhD87fYYNMUNPQ4ldcS5HTq5Ut2PHDvoA9wkCuaWEjjZaYaAg1szLL7+cPyL8uemzo0eP0vtWyivO5cjJlerUGnssu/vuqzsuh9bm1iwKYs2gy8x9XkQrdTRx0003zbivRk6u1IPVqNlD3BfFOokWtLmavYJYc1999VX+iPDnpq/uuusueu/K7LC6CZJh0BU7fC5nnFipDyd26dKl9CFOHVsnMZRfzb2bBqO6fjP97GCDR/a9pZz9+/fnjwh/bvro+PHj9N6VUY8//niGBsLFi6O7rhdoodSza9cu+hCn7rbbbqM3YAhd7CkG1zz1RnbDE5uzB6dW0HMgs3vqqafyx4M/M32krsTx7rvvvuyVV17JMI/OPXcMLZR60BrDmwN7kFO1YMECeiOG0HYrbDb/8vRbCmgVHTlyJH9E+HPTJ59++im9d/sO3avbt2/PTp8+nZ8mfu5mQwulvr61xqyskwjXPLqeBp0uKaCVg/EMdyyjj7Rq/VVYNxKtUnSvuuepCloo9fWpNYZ1Em+44QZ6g/r2n7fcdmXTzVAU0MZ755138keEPzd9cOjQIXrv9kmRWdjmOCktlGb60hq799576Y0aQohW2DgKaKOwgkefMxX7vO3KbJmFbaCF0kxfWmNW1km00AobRwHtKgzYu89LH/RxncQymYVtoIXS3IEDB+hDnApL6yQ23W7Fp74HtCVLltQavI8ZFkPoy75hVTML20ALpR1PPvkkfZBTYGmdxLaWmPKtrwFt9erV2aVLl/JHhD83KSl6Zdh9m4ommYVtoIXSjhUr0qycrK2T+POFa2iQiEnfAtrmzZt7ka24ZcsWes+mAC8jTTML20ALpTlsCIjsPfYAx87SxpdgfUysqr4EtNdeey1/VPjzk4K3336b3q8pQJahlZcQWijNYf4De3BTgBuY3dghdbVSR2jzl/2BXoNUHDx4MH9c+DMUM7RQLD4nbUEL0/3OodBCaQZ9w9ZXtcd6gHOWrx+88f9i3WsDP13/7qBFU/z/f6z8Y3b9ik3ZnY8tzxYvXjz4d5bWSRx23R330SAQu1+ueXnk2qUEiR6fffZZ/tjwZylGSGpIPZEDK4+43zsUWijNWN1fDIELQQvrALIKc5z//vR72S9Xbs+uv/9RelNbEGuCxySpdysikKWyLBVaYKkHMCSquN87JFoo9aGfmD2oISF4XTf9HK0g60CwwM7J7AYP6RcPLKfHG7vrV22j1zU1r7/+ev4I8ecqBpgLlnIXYsHargS0UOqztFoHtoZ54403si/+ejHbcex8Nm/3J7SSrOunT7406MZjN3oI/3XDjdk/btxHjzVGP9t+JHvwnU+zF459kU1NTdFrnBr0YsSYfp9yFuIwtDLd7x4aLZT6Vq5cSR9O36anp7MzZ87khzTz+L7+7m/ZzhNfDirHH289TCvPKgZjaHkLiN3wIVhbfqqq63Z+lK3Yfzrb/8XXM67dCy+8QK9zitauXet1smwTWI0i9Xlgw3bu3Jl/bX4uQqGFUs9HH31kIq0ec3DKLPXy3d/+nr156qtsat/ng8qTVaplXTO1adASYje+T7++bT49PqvwInHPWycHLeXT33yXXxZ+rU6dOkWvdaqWL1+e7d271/RcMnQf9mUlDkBXKVYfcc9DaLRQ6nn66afpA+kTZs67x1UWKlG00hbt+Sz7+Y4PaaU7zk9XPm8ikOE42PFZUbS23jv91/y082vBrF+/nl7zlGFCrbU0/KNHj2Z9XMwX18I9FxbQQqnuxIkTgw0i2YPoC7ph2nxzPfnVt4MWAloKGJ9hFbIL3XnsAfDpN3N+P1jF48drq2dhduH6l44NXgwmtbYmQWXOrnsf4AXx448/zk8DPzc+IK182bJl9J7rAwurczC0UMpBv/3LL7882GaAPXg+4Ri6buojqL128kI2ffBMdtuuE7OOqVkaI0P3os+AhlYWxhu3Hj03Mq7VFF5QUl3KrCzsRYV9udxz0yVU3miFsPurL9DydM+LFbRQZodAgc391qxZQx+yUD755JP88Pgxd4kFNiR7/Gru3fRhCAkttF88/ERr88muff7oIGBtPHJ2ELAwxuien7b1bedwV7H9D8ZnEFiwtFPbW33gZQFp5AiYfRrzGgfn2T1PVtBCmQk3NQZxN23aZHI9xK1bt+aHyY89BFTmO97cSx8GK8oGNHQFIjgj+WXdoS8GARsBC1me7vf2AS9RfUm3dz3yyCP0WgIyBLEFCMar3HNWBroKUVGjR6MPc72qQCC3nGBDC+Uy7Am2bZvtiaao0CxmDAEqBPZQWPO72+/I7n1iXbZy14FBskXIIFUGXlrYvZC6Kq0i/F0ENkCy03PPPTcDxrbwZ9j/iv17ucrSOokMLewzJGg8++yzgxRf9iBZg/lD7newAm+37KGwDHsj4aG1vHEjuo7ZvZAya9v/9In1OXu0sG9QYSFBw8pE5SrOnz+ffwX+vSyIeSLowoULTS10OszamGzXrG3/0xfoTXHvPWtoYZ/EvPsyUurd72MNxinYwxELqwPamAjM7olUaZwqDN+ZoHXQwj7B2zZ7aGKAAOF+H2vQFcEejlhYDWJ9Sre3uv1P6tC17t53FtHCPok5iGEpIvf7WBTz6gaWU4v7sp7i7bffTq+NdM9qd/owWtgnsQYxvIW738UqZIexByQGloMYdihg90ZKkNDBrov4gTFt976zhhb2SaxBDAP77nexKuZxMXUnhnXnnXfS6yL+WNs/zEUL+yTWILZx48b88Pl3sgYTxdnDEQOrQawP6yhiYYEbbwy/oHTfYWxMk50NizWINVmt3jesosAejhhYDWJ9SLG///776TUR/ywnkdHCPok1iMWQmViIOUPRYhDry2r2t956K70m4p/VvcSAFvZJrEHM8kodrhhX7ihYDGJ9aIWNWydRwtiwYUN++/F7MiRa2CexBjFri/6OgwmT7KGIgbUg1pdW2Lx58+j1kLAsptzTwj6JNYhhk0D3u1iFQMAeiBhYC2J9aIUtXrxY6yQaZTHlnhb2SaxBLIY1zQpYNZw9EDGwFMT60grTOom2WUu5p4V9EmsQW7JkSeubAXYl5l1xLQWx9evX03shNcXGl2KTtZR7WtgnsQYxsD4JEXCzz5kzhz4MMbASxLDEGLsHUhPzEmV9Yik7mhb2ScxBbMeOHflX4N/LipiTOsBKENu8eTO9B1KjdRLjYCnlnhb2ScxBDBt3Wp5JD0jLZQ+BZdgVGMdtJROrL60wbXwZFysp97SwT1BBvPPOO4PdfNmDZd3hw4fzr8G/W2gIsFW2lA8JXZ7r1q0zuX9SX1phGGth10bssvCiRwv7CpXun//856gCGipe93tYEcPCv0g6wdqOVlu0fWmFaZ3EOFlIuaeFEldAQ+q1e/yhIXPSaisMDx7GumLI7uxLK0wbX8YrdIIZLZSZrAe0VatWmWtJ4FyxGz6U++67b5BRhXUc3WO16syZM/R6pyjmDNa+C51yTwtldrhYBw4cyLZt25ZNTU3RBzKEl19+OT88fsy+YdV6ZC+xG94nPFxY7f/06dP5YfFjtawvOzcvWLCAXj+JR8iUe1oo5VkKaBbmjaGlE7obcdmyZdnx48fzw+HHGAOkL1t6SerS/Pnz6XWUeIRMuaeFUh1aaHijZA+pL1jF4+TJk/nh8GPsGs6BhcmqFhcpraovrTAkdNxwww30OkpcQqXc00KpB5OP2YPqE+aOffLJJ/nh8GPsCpIkkDDBbm6fLC5QWlWfWmH33nsvvY4SpxAvkLRQ6sHYCyZssofVt3fffTc/JH6cbcONa2WOTwxLcU3Sl1YYaJ3EtIR4iaSFUh/mbbGHNQSsHn/p0qX8sPixtgGp6haSOABjcdayNKvqUyvs4YcfptdR4ub7RZIWSn3vv//+oJ+fPbQhoHvxvffea71yRwYiluxiN3EoCNruccamT62wuXPn0usocfOdck8LpZmlS5fShzak6enpbO/evY1vLmT9YS8zdvOGZGlB0rpwbSzeO13QOolp85lyTwulmddff50+uKFhs0FU9ghC6AYsW+ljPUFkHlle2y6mTUJn88Ybb9DrlqK7776bXkdJg8+XSloozeDiWUnwGHbzzTfTGw6DsYDxPEwOLv4/lsV7IfZ5YWiFrVixgl63FFkZR5Xu+Eq5p4XSHIIBe3hDefDBB+mNlgLMTXPPf2z61ArTOon94SPlnhZKc7h4ixcvpg9xCClvNrh79+78lPPrEIO+tcK08WV/YPUc935vGy2Udqxdu5Y+xL6ha5PdYKmIvSsRc/rYdUuRtYxW6Q66jH3sz0cLpTlLmWZ33nknvclSEWKCZZuw2smaNWvotUuN1knsB18BDGihNIcuLvYQ+9aXzQZjX6mjD4FMG1/2g88ABrRQmkErDK0D9iD7dv/999MbLTUprNaReiDDnm7s2kk6fAcwoIXSzK5du+hDHMKtt95Kb7YUpbBiR2yBDEtkYZWRY8eODc7/uCWztE5iORg3xDzOPXv2mNgVoqwQAQxoodRnqRX2yCOP0JstVXiIYl+1A2IJZJhGcv78+fyQZx47ElWw2/jw3+3bvVgV7l3M02Qp6VjiDXUK+3dWhApgQAulPkutsHnz5tEbLmUprNwBlgMZC17Mhx9+mG3dunXwb/p4L5aBVXB27tyZ4Xq758+FAGd1ybdQAQxoodRjqRWGOWp9XZsOb67utYmRtUC2efPm7NSpU/mh8eOdDQLes88+m82ZM4derz7C/Km6yUjYPR2tNvZzfQsdwIAWSj2WWmFYJ5HddH2QwgoeBQuBrG7wcuElD2M9MY3ztAlBHEsxIQi556YOdJ1v2bJlEEjY53XNQgADWij1WGmFwWzrJPZF7Kt4DAsVyNavXz9I2HCPpw2YoG6lNdE1ZGXifuwqexb3B5JqfLZ0rQQwoIVS3YEDB2hFEELK6ySWhZT7MuMMsfAZyLoMXi60JjAmFNNi02WtXr3aa9c2giS2QOn6XFoKYEALpTo3GyskrU13Gbpa3OsUs64DGX72wYMH84/in9+12FLKGVTwSHwJnSWLbtsutk6yFsCAFko1lnZzTn2dxCrwwPlYRdunLgJZ6OA1DC0Xdi1jgdaX+51CQvJIW+tVWgxgQAulGksrkKe+TmJVPlbR9q2tQIZ0bez27f780CxvvjoJWpPu97EALwd4Ftgxl2E1gAEtlPIstcK0Nh0X+7qKTJNAZjV4FdAdx66jdajou0reaAt6JtBaZMc/G8sBDGihlGepFdaXdRKrwpu99cqljqqBDPcqNt+0fi5Onz5Nr6N11roSxynmmiFAse9SsB7AgBZKOZZaYdCndRKrQgace/1SUCaQxRK8hsW4WLDVrsRxirlmLD0/hgAGtFDKsdQK09p04+GBTGFdRWa2QIb97JByjT93/411eOlg19Eq3F8xt/Zxj2CuWZGeH0sAA1ook6FCtDS5WWvTjYdB7RS7FAvDgSzm4FVAdxe7jlbF1JU4Dp4R3DuxBDCghVIOluIZt/WEL31eJ7GM1ANYAUEL3YYxB69hbaWG+xBjV2IqaKGU5zOQbdq0aZBZ5pbHtk4ivoOvFRr6EsBShKWa2DW1JvauxNjRQqmm60CGLKKPP/44/6jLn4clgbZt23blz2NYJxFBy13JoKtVBQoKYHHDvYIAwa6tJal0JcaKFkp1XQQyBK/Dhw/nP55/Jra4ePHFF02vO1fsUjsumGAeV9vLDSmApQHXkV1fS9SVGBYtlHraCmRPPvnk2ODlQmVtbYsLBGCsVO4e6zht7WCrAJYO3NfsGluB1HTda2HRQqmvSSBD8Nq3b1/+Y/jPLiPkFhdoESI1umkqe5MdbBXA0oJrablLEc+ae8ziFy2UZqoGMlTYTYOXy/dCqhjbco+hKazcUCUgK4ClqeoyST7FlIqeKloozZUJZAheb731VmcVr8+FVJG04X5+WzBnaNIOtgpg6UKgYNc8NHUl2kALpR2zBbLly5d3GrwKPhdSrTr+VQe6KdkOtgpgacO19blrcVnqSrSBFkp7hgMZKttdu3Z5m4yKsSX28LWti67EcXD+ih1sFcD6YcOGDfTeC0ldiTbQQmkXAtm7774bpLL1sZBql12J4+B8KoD1g7XNMtWVaActlHSg+409hG3y0ZUo4nOMdxJ1JdpBCyUdXS+kii499zNFumBps0x1JdpBCyUtXS6kirEK9/NEuuBrjHcSdSXaQgslLV0upIqxCvfzRLpiYbNMdSXaQgslLUhNZw9jU+pKFN98jPFOoq5EW2ihpAep6OyBbEJdieJb6M0y9eJmDy2U9HSxkKq6EiWEkJtl6sXNHloo6cFAdJsLqeqNVEIJuVmmXtzsoYWSpjYXUtUbqYTS1RjvJHpxs4kWSpqw+SR7OOvQG6mE1MUY7yR6cbOJFkqa0KXYxkKqeiOV0EJslqkXN5tooaSryv5cs9EbqYTW9hjvJPgsTXC2iRZKuvA2yR7SKtAt6f5cEd98bpaJ7kv388UGWihpQ3cge1DLwlwd92eK+IaFpzH52Qd1JdpFC0VERGJAC0VEROzLfvT/ACz8FsNBnMwXAAAAAElFTkSuQmCC;strokeColor=none;shadow=1;spacingTop=-2;spacingBottom=-2;spacingLeft=-2;spacingRight=-2;points=[];labelBackgroundColor=none;rounded=0;html=1;whiteSpace=wrap;" vertex="1" parent="D-f0g4XA8TNqZnRXPo1R-8">
            <mxGeometry width="50" height="50" as="geometry" />
          </mxCell>
        </UserObject>
        <UserObject label="&lt;div style=&quot;font-size: 1px&quot;&gt;&lt;br&gt;&lt;/div&gt;" tags="Arrière-plan" id="D-f0g4XA8TNqZnRXPo1R-10">
          <mxCell style="verticalAlign=top;align=center;vsdxID=112;fillColor=none;gradientColor=none;image;aspect=fixed;image=https://upload.wikimedia.org/wikipedia/commons/7/70/Solid_white.svg;strokeColor=none;shadow=1;spacingTop=-2;spacingBottom=-2;spacingLeft=-2;spacingRight=-2;points=[];labelBackgroundColor=none;rounded=0;html=1;whiteSpace=wrap;clipPath=inset(33.33% 33.33% 33.33% 33.33% round 50%);" vertex="1" parent="D-f0g4XA8TNqZnRXPo1R-8">
            <mxGeometry x="5" y="5.169999999999959" width="42.07" height="42.07" as="geometry" />
          </mxCell>
        </UserObject>
        <UserObject label="&lt;div style=&quot;font-size: 1px&quot;&gt;&lt;br&gt;&lt;/div&gt;" tags="Arrière-plan" id="D-f0g4XA8TNqZnRXPo1R-11">
          <mxCell style="verticalAlign=top;align=center;vsdxID=112;fillColor=none;gradientColor=none;image;aspect=fixed;image=https://upload.wikimedia.org/wikipedia/commons/7/70/Solid_white.svg;strokeColor=none;shadow=1;spacingTop=-2;spacingBottom=-2;spacingLeft=-2;spacingRight=-2;points=[];labelBackgroundColor=none;rounded=0;html=1;whiteSpace=wrap;clipPath=inset(33.33% 33.33% 33.33% 33.33% round 50%);" vertex="1" parent="D-f0g4XA8TNqZnRXPo1R-8">
            <mxGeometry x="29.129999999999995" y="29.16999999999996" width="21.94" height="21.94" as="geometry" />
          </mxCell>
        </UserObject>
        <UserObject label="&lt;div style=&quot;font-size: 1px&quot;&gt;&lt;br&gt;&lt;/div&gt;" tags="Arrière-plan" id="D-f0g4XA8TNqZnRXPo1R-12">
          <mxCell style="verticalAlign=top;align=center;vsdxID=112;fillColor=none;gradientColor=none;image;aspect=fixed;image=data:image/png,iVBORw0KGgoAAAANSUhEUgAAAbEAAAGxCAYAAADs0IixAAAAAXNSR0IArs4c6QAAAARnQU1BAACxjwv8YQUAAAAJcEhZcwAAFiUAABYlAUlSJPAAAEnPSURBVHhe7d35w1XFnSbw/JvTPZ3OJD3jZDqxu8ckbSeuKBHcVxb1ZRVfCCiLQECM4oq4A0E2RQQRBQGDUXBJzpznMgfuW/d57z1r1bfqPD98EAt477lnqe+pqm9V/SjLMhERkSjRQpFQvv7ub9n+L76m1h36opE3T3115Wd997e/5x/Hj0FE4kELRbpw8qtvBwFk54kvB0Fl0Z7Pstt2nciu2/lR9t82Hwrix1sPD44B7nnr5JWAh+M8fO6b/LD5dxERG2ihSB1o3aDy33jk7CAQICggOPx8x4c0gMQCx4/vMbXv8xktOvf7i4h/tFBkkuGA9eA7nwZtTYV0/UvHBi3KrUfPKbCJBEALRYYpYFWjwCbiDy2Ufjt/6fvBuJUCVnvm7f5k8BKgcTaRdtFC6R9UrtMHzwxaEawSlvYgmQTjhWipHfvLpfz082siIpPRQkkfUtlfO3lh0O0Ve+JF7H62/cig1YvrgeviXisRmR0tlDThrR9dWje9epxWpmIDWmk7jp3P0K3rXkMRmYkWSjpO/fXbQZfVqb9+N3jjZ5Wm2IXUfnQ7nv7mu/xy8mss0me0UOJ24dsfsg/PX8zw3+Hy907/lVaUEgeMVyKgqYUmchUtlDh9+OXF7NO85eWWD0MlyCpIiUsxhuZeX5G+oYUSj8++/i47fO5ipbUAV+w/TStGiQ+ScnA9saSXe51F+oAWim1fXvo+O3jum+zsxfrdSpi3xCpFiRcSdpAQogxH6RNaKDZhLtee039tZQV2VHSayJwmJPCgdaZkEOkDWii2HDz7TQZueVOo5JSxmDaMnWlCtaSMFooN6DKclKjRFNb2wwoSrAKUdCBVH6vvu9dfJHa0UMJBVyGyDP/ipMd3acexL2nFJ+m59vmjg3Ux2+iSFrGAFop/GKNqa7yrDmUs9guyGjHdQsFMYkcLxR9MXMXCuxibQqJFyEpFGYv9g2CGlpl7L4jEghZK9xC80Ppxx6PWHf4i/2P+b7qmjMX+KroZ3XtCxDpaKN1BSwuL8M6WFYigFnLiqjIW+w3BTAkgEhNaKN1A5YBKglUew2585eP8r/Of4YMyFgXrNGKtTffeELGGFkq7ME8HKc6sspgNMgbdn+PTiyf+Qo9L+gXjpJo0LZbRQmkHxr2m9n1OK4dJ0KUXerVyjM+xY5N+Qat83aEvlMkoJtFCaWbSuFdZWG3B/dm+LXzvFD026R90hauLUayhhVJf2XGvsixst6HUexmmLkaxhBZKdXXGvcrAPJ7Q3YpoWWKgnx2f9JO6GMUKWijl4SHGZGX2oLfFQrciAum1f2qvhSlpwLxC7K7g3i8ivtBCKQfzuXxNDrbQrYjvqzlkwuBFTq0yCYEWymRI3PA5l8pCtyIcOX9Rc8iEUqtMQqCFMju0RrCDLnuIu4YBdfd4QkDyCjs+EVCrTHyihcL5bn0xmITsHlcIWAGdHZ8IqFUmvtBCmQndeFbSzDEmZSW9efpAtwktEj+8+Ln3jUibaKFchZW9rSUzYG1FK901yJxkxyhSwAsgdkhw7x2RNtBCsdX6YrCNi3vMISCYdjE/TtKCxCR1L0oXaGHfYWmdGFLJrWyZoX3IpCx1L0rbaGGf7Th2nj58FlkaH8NxaDK0lKHuRWkTLewrdNGxh84yS+NjmgwdP7So0T08m7aur7oXpS20sG8QBO556yR92GJgZXwMsIakAlk4OPdFwEH2KLbTwWov2OgU18a9Xm3ABHj8/GH4XECrC8cy29QUTNVwf55IFbSwT9ANlsLitpa2lMeYolb16AbuVbxwFUEC5xpBI5ZV5RFIcbzY9BXHj+zWZX+28xIm8aGFfYEHCt0arLKIjZVlqQqoXNlxSjnoJi6CFV5QumpFWYCW3H1vfapxMqmFFvYBKobUWgvotnG/Z0hYXYQdp8yEcSi0SNC1hlaKex77AOOp89/QPmVSHS1MXcpLJuHN3f2+IWl5qlEYJ8J1QsDSGoNXoSdh7usnkm51SvtoYapQYUzt+5xWLCmx9jaPCpsdZ1+gaxBJFn1tZVWBLsXf54HM0hiv2EYLU4SHA91trJJJjbXxMZja9xk91hRhvhwyRlERa5ynOrxsFt2r7p+JuGhhatDP3rcVJayNj8HC907RY00BWlsbPzibYWzH/d5SD14E0HPilosMo4UpwYTKvs5bsjY+hjdsy+tRVoGkIGQPInnFWqs3JWiNLdrzWf5b/ucitDAVmq90aDCPyD0vISGQxdqti3sJ3VyYPOx+L+kOzvdje9UiE44WpkAB7DK0Qq11cWGcKKYJ5kWLS+Nb4eB5XvLnz5XNKSNoYewUwGZCooG1ChjHY3nBYLQWsaqEugrtQOr9Q++cUiCTGWhhzBTAOFTK1h5+ayvfI6sTqfCacGsXrs1jez5TIJMraGGsFMDGQ5q7e85CsxDIkGyica54oBW/ZJ+6FuUyWhijfWe+VgArweLcmxCBTK2uuCmQSYEWxub4hUvZra8dp5WVjEKL1T2HofkKZGp1pQP3DOYeKpD1Gy2MyYdfXhzcxKmsRu+DxYxFQKXU1Zw+VHZaky89uI+RteiWS3/QwligBXYmr/jQtcAqLpkdWj3WMhYBgaatQIafg1Uf1GWYNqxJqT3J+osWxgAV094zlxdURcXHKjEZz2LGIjQNZGiVYwkoi0FauoF1KtcdsrVCjfhBC61D5bT92Pn8t5f/H2McrDKTySxmLEKdQIbWJSYla4yknzCvT4sG9w8ttAwVFLqIhsvw1s0qNSnH6oNfNpAVwcv999I/WC9054kv89/yP5f00EKrEMAwQO92E/Vpm4+uWMxYBGxdP9vUCXQbIgCr5SXDMBna6v0s7aOFVmHwFm/nbnnKW3z4ghaP1W1E3EnsCl4yDu6Lu978RNmoPUELLUKlNVuXUayroltjNWMREMhwfApeUgbukflvfKK1L3uAFlqDCswdBxsW04ro1lnNWBSpCi9kWjA4fbTQEnRxzX19fMWKN3RWIUs92DPLPcciMcJUnCcPnMl/y/9c4kcLrcCb1A2vfDyxS4BVxNKM1dR7kaowNvanj5WxmCpaaAFaXujawmx898+G4e+xSliaQ7qye75FQsCLLOoCGExszu9NBos6o94AbGZalP/+9cl1icSJFlowte/zUvOX0F3AKmBpByaQuudcpE1FgMKiBQg4GP9GELrxlY/pPVkXslq1BFl6aGFoeNPCW5RbziiIdQ/Xwz3vIlVhfBtJWghUmBaDQMXuty4hCUyJHmmhhSEhKP0ufwMre6MpiHUPc7Q0eVSqwCR1tOIxttp2i6qpRXs03psSWhgKAtfvd39SadKtgpgfmAytyaPC4L6wGrBmo6Wp0kELQ0FfeNWuKwUxfxDIcL7dayD9gvErrFeKDUarLtJshe7ldNDCEBC8kFnklk+iIOYX5uRpFYR+QVdykfXH7olY3fTqcY2PJYAW+oZAdOebn+S/5X8+joKYfxgct7o8lTSHZwrdg0iumm3x5VRMH9RE6NjRQt/ufevT2pUiWgXs5pRu4a1cb7HpKJZ2u27nR/R6p0zzx+JGC3165oNzGTKZ3PIq2I0p3cOYiHstJA54acSC2lhiLPXW1iSYP6Yu8njRQl+Qhbjto6s7NNfV94cwJMz3ca+H2ISKGoEL3YTsWvaZXsjiRQt9wcBqG2MrWgA4rDoJOeIHAhfGt1JLyugCVgxxz5/YRwt92Hjk7CDTzS2vQ1uxhKdxBTswVokWlwJXNepWjBMt7Bq6EdEF2NaWH3pYw8GDr9U8bMB1QPeuutfr02oe8aGFXUM3Im6YMgv8loFg6N6M0j2MI+jNNSykw6M7V13q7dFLWVxoYZfQjVjcLE2zEgt4+xy+CaVbeNNv6wVEqisyC2NZ4ik21z5/VNNHIkILu4K3xqKrA/9t60bBqtjujSjdwDyiKmtbSntw3rE+YaxLPcUEW0G5519sooVdGU7tRTKG++d1KYj5gcmwekP1D1lzGvf17/C5b/LTz6+J2EELu4B+5uEbpK2kDsBDPvyzpV1K3vAPY414OcO5Z9dEutfmi7Z0hxa2DW/v7nI2bc4twlYQwz9b2qPkDb8wVUGJSnZo7Nc+Wti24WSOQpvb3mOg2/350oySN/xCokYf1y20TnPH7KOFbcINwOattD05Vt0u7UG6tpI3uoceCrwoKD3eNowFu9dO7KCFbZqtawSZiu7fbULpxu1AAkEbS4HJ7HB+Nd4VF+1qbhctbMu4sSr37zaF1GP2OVKe3ji7hV4JnGPWMyG24eXOvZ5iAy1sy2xrGqLv3/27TWG7dPZZMhkqVS1+2h30OmhCfvyw+7x7bSU8WtgGXHB2I0AXbzXjPk9mh/EYdZV0A+dV256kA92/midpDy1sw7iV5bvYuweJCOyzZHYa/+oGWl5Kk0+TMnbtoYVN7TzxJb0BCl1spIg3JPZZwmn8q33qNkyfWmP20MImcIEnZV0hCcP9d23QvmKTYfyrzTl6ooSNvlFrzBZa2AQuMLvww5Be7P67NihDcTy8XLS1c4BcTpVX8OoftcZsoYV1lWmFATIJ3X/bBqx6wD5PDg227dDKA+0o5nlpNfn+wipE7n0hYdDCusq0wgDBxv23bcCYBPu8vsM4jd4c24EXgTIvapI2tL71UmgDLayjbCsMugpioLfjmZTA0T6s6K8uRNGzZQMtrKNsKwy6DGKal3OVBqC7o0Amao3ZQAurqtIKgy6DWJVgmio8XF2eY7kMk5nV8u83jY2FRwurqho4uqxgkX3HPrMvEMC0gaU/CmT9pkzF8GhhVVXnZ3UZxHBD9bWbB5WplpDyT4Gs39RtHxYtrKLOmoVdzRMrYDkl9rkpwxqIbW9vI+UpkPUXXuLd+0H8oYVV1Fklo+sghqwh9rmpwjXQAHN4CmT9pRXuw6GFZR0+9w29oJN0HcSwazT73BRpEV9b0BrWTs39o9ZYOLSwrLordXcdxDAu1oc3Ypx/DSrbo0DWTxqPDoMWloHuq7oJFD4mCaa+mnhXiyhLOxTI+gdzVN37QLpHC8toMh/Lx8VOeZPMrluy0g4Fsn7R5OcwaGEZ1z5f/+HEYrTuz2tbqqn2CmBxUSDrF6Xb+0cLJ2naysFD7f7MLqS2BJUCWJyQeFMni1fic93Oj/JLzu8D6QYtnKSN4OD+zC5gUjX77BgpgMVNgaw/kB3tXn/pDi0cB90j7MJV5aPvGBUH++zYKIClQYGsHxbtUdKVT7RwHCx4yS5cVb7SUWNfvUMBrDq0wNFlbTHlGYGsjyvK9AnG4nGd3Wsv3aCF46DPl124qnwtUhvzqvYKYNWg4hju6kZlYnExZCQdzdv9yYxrLWlRgoc/tHA2eLNlF6wOX1uFtNX96ZsCWDUIVrNtB+TrXqtCgSxtWsHDH1o4m+mDZ+gFq2P6wJn8R/LPaRtS+tkxWKUAVh6CQZmJ7Rs/sLnvU+qT8vvs5Fff5peYX3dpDy2cTZWNLyfxObs9pi5FBbDy0DNQpXvb6ionCmRpWndIz7IPtJBpe1FdBET3M7rSZIksnxTAysOLSZ1ripcni+tNomeCHa/ES3PG/KCFDNJG2YVqwmcGT93Fin1RACsHLyRNx5KsrvyPe4Adr8RLXYrdo4WurpZw8pk5hs9ix2CBAlg56A1oq0sbA+9I+nE/I7SYs2lllLoUu0cLXV0FAN+D7RbXsPOxon8KumilWJ1LltJKM32nLsXu0ULX1L7P6QVqCl187md1yVp3DbrF3GOUmdy5X23DvnMWlwlSIEuHuhS7RQtdTVasH8f3W4qlBA90Z1lMMLAErSQfrWfcExa3l0cPSAwJSTKeuhS7RQuHtTnBmfE9wN7lW31ZqJgtjsdYsuPYl94rcHymexyhKZDF76ZXj+eXkl9faY4WDsNbBLswbfHdldP2VIGq0H1lcRzGCrROMZ+LnTsffE7CL+vI+YuD+4Ydr8TBYjZsKmjhMLxFsIvSlhArKVRZSRyVB1KyAWNqk6ACxt9l3WB4o/aZkRkbtE4trPKOycfusYWGFx8FsnjtPGGvlZ8KWljAGBK7IG1Che9+btfQbcSOBctTIRChtdZWdx9+Dn4ePtPiuIsVCO6WKmkk3Vgbs0SCgMUMW5lM27N0hxYW8PbALkib0DrxXVng81BhokJAywnBRc39cPDiwO6N0NAq9LHvXRV4KWprJwnxx+cKRX1DCwtdrNLBhOhiU9AKD9cALXF2T1iBFx1rY5g4bxa6XaUajYV3gxYW2lzwdxxN+O0fPNCxdI2h1W5tLBOBTFu5xAUbCrvXUZqjhYBKhl2ILmhWe7+g+zbGtHFrKfjoFrcwZUTKCTH+3we0EHyv4aZ5U/1gdfyrLIu9BtrKJQ4hxv/7gBaC7zc8i7vvSnvQ/ZVKqwHfw1plpK1c4mBxibPY0ULwne6MisE9BkmDlflfbbKYuagV8O3TuFj7aKHP8bACgqZ7HBI/vHlamv/VJouZi1o42Da9rLePFoZ6o8PyOu6xSLz60DKwmLmI49F6izbpZb19tDDU2AUmHrvHIvHBeFHI9Q9DsJa5mHILOHaaL9YuWtjV1iuT4KFT9k7cME6E5bvY9U2dtZcwVJYKZPZoHcV2jRQgi4ydeF9eO3khP4yZxyRxQKXpa4K8VZiAjGfIPTehIKlG6y3aonUU2zVSgP50duJ90W7HcYp1AnMXkLload4jWsdapsoOLe7QrpECpICyE++TtdRlGU+p3aPQIrU09oHWofV1KvtEwybtGSmwMCE1xB5jUk/fEjiqQMvU0vY7qDgtPN+i5I42jRSESuoYpua2fVqAtjxrL2Vapiq8HcfO55eCXx+pZsb/hE7qGKY5Y3aluAJH1x5851NTXUixr2EZO+3c0Z4Z/xM6qWOY5ozZpAzE+jD1wNJ472w7nEv3lMDWnhn/gyYuO+EhaM6YPVoJojlrCR/KKg1DK3e0Z8b/oInLTngImNuiIGaH3trbg6BhaT5kW6t7oIsZ3aboqgTcM/jZLmSz4s+x8j4yJjEGzn5e6pSF3Y4Z/2NpoB43+/CxSTiWXm5SgorcPdeh1Okmxosmuv0RkJtO8MY4K4Iesif70jK0tuZmrGb8j5U3ImRPDR+XhKGU7O5ZSvgos7oH6ggEm64ncyOxCy9PKS+bpQzFdlz5DR4kdqJ9w9ugpWV7+grXQBmIflha4WO2645uvxBz3nA8mKKQYjLR9MEz+Vfk31vKu/Kbk199S0+0b1o7MTwFMP9QSVuZVoIX2mJoAS1xC8eFY8JYWkrBDK1w93tKdVd+g7csdqJ9wgNTHI+EoQAWjqWEDwQNK63DYUUwS6Gb8aZXj+dfiX9PKe/Kb0KvmYibUtk6YSmA2aCJsJOh5yj2exWtSvd7SXVXfhM6Aw1vV8WxiH8KYLagVwLXxL1OchVaZbFnzuI7uN9LqrnyG/TPspPsA95IdDHDUQCzCdfEYpeeNRgKibV7ES1K9/tINVd+E3KbBnWfhIUXiBSzv1KAyllzJidDsI/xRUxzxZq78ptQq9djMFtjYeFpQVjb1N0+GXoUYtvFeueJL/ND599Hyrnym1Cz5JWRaANeJPqyUkKssAiAut3HQ4sspkC27pCdVVtiNfgFFRg7wT5oczg7tDqHfdZWwrcI40yxjJFpKKW5wS8IJOwEdw0P5PDBSFgYe2HXSWyxNDHaKtRpMQSyRXu05VRTg19C7SNmaet2uUxZinFA1y/WMHSvn1wVw9ZBSKhzj1uqGfyCwUV2gruEt6ThAxEbsE4du15iE1aR1zjZ7JAQw86bFXhpdI9Zqhn8EmIzTCV02ISBcXa9xC6Nk40XcvrQJMgKd49Xqhn8ggwZdoK7pJRhu2JLUxaNk42DAG95HqR7vFLN4JcQQUxZiXahi4pdM7EN4z8vnvhLfgn5de2zUOP+Zag7uJnBL8iQYSe3KxoPs83CjgZSn9K2OatTSLS0WDODX3wHMY2H2YaVD9h1k3hgHEgLCM8UairRJApizQx+8T3wqfEw+ywPhks5GNtUt/1MFltjCmLNDH7xXWHpwbJv+sAZeu0kLhgnUyV5lcXWmBZ4bmbwy3U7P6IntwsaD4sDEgTY9ZO4ICvPvbZ9Z62XQUGsmcEvPlewRxfH8AGITUjXZtdP4oLJ6+617TusdMLOVSgKYs0MfvEZxPAWNHwAYlPIRaGlHehK1CToUdbubS2/18zgF59BTJmJ8YhlJXDhsFu7e03lMktditpTrJnBLz6DGPZEGj4AsUuLAcdN3VSzs7SmooJYM4NffAYx7CA8fABiF97k2TUU+9CVqJUgZmcpS1FBrJnBLz6DmOaIxUNp9vHS2PN4CPDsvIWgINbM4BefQUxru8UDrWZ2DcU+9XhMZqW7XN2+zQx+8RnEdMHioSAWLz1nk1npLte1ambwi88ghtWkhw9A7FIQi5fWTZzMyv2tINbM4BefzWp1J8ZDQSxOWhWnHCuTnhXEmhn84nPOhFYQiIeCWJywjJx7LWWUlaXVFMSaGfziM4gh4234AMQuBbE4zdv9SX75+DWVqxA82PnzTQuiNzP4BTc9O7ld0GTneCiIxUnPWDlWgph2GWhm8IvPTTH1lhiPqX1+N0uVdiiIlWMliGl9y2YGv/gMYje+8nH+kfxgxBafLXRpj4JYOciUZufPN/e4pJrBLz6DmLZiiYfPfeakPQpi5VhI7MDyYO5xSTWDX6YP+lteSOm/8cADxq6h2KYgVo6FFHvM0XWPS6oZ/OJ7RWdl49in/cTipSBWjoXEJQWx5ga/YAFKdoK7okWA7bO0yrdUo3HnciwsO6WFmpsb/OI7S0cbY9pnZSKoVKcu+3IsLACsINbc4Bffb916yOxDlxS7dhIHpW2Ph61YLIz5IqnOPTapZvBLiPEPjYvZhixSdt0kDkfOX8wvI7+2Yqe7fN0hbZnT1JXfsBPcJY2L2YUVBNg1k3gg8869rnKVle7yHcfO54fDj1HKufKbn+/4kJ7krmhczC6Nh8VPGYrjWdlLTFtTNXflN74ntmJcDP3SxeeLHRoPi5+er9nhvOD8sPPmm4ZVmrvyG7SM2Enu0punvso/evSgJCyNh6VBW3xwVtZMBG1e2tyV36zYf5qe5C5pPos9SAhg10rigwWc3esrdha21pJT7bjyGwwwshPdNTWnbdHK9enAOLd7fVNw8eLF7NixY7XtP/JhNvePb2a/WPfaWP9z0z56XtuizUvbceU3oVZ01gC0HVbmzkh7Uuyyf+GFF7LHHnusc/c//Wz2Tx0+D9qWqh1XfhMqrRqVpiZm2qCsxPRgVQr3OsfswoUL2dTUFA06bVu8bEX2r891l7U9te/z/Cvx7ynlzfifUG/hGz84m3/8zAMT/zBGya6PxC2l1pivVljh1j++Q89pGzRXth0z/ifU/lHou1c6cFgnv/qWXhuJXyqtse+//95bK6zw4Lqt2U/+2M3LveaItWPG/4RIsy8o3T4szQ1LWwrP1/79+2mg6dKjS5Zl//5cN3PKNIzSjhn/EyLNvoC5SWqNhWFlHTnpDno7Yq80t27dSgNN136/5XV6TpvQIujtmfE/r528MHKyfZo+cCY/jJkHKN3TWFg/xJwNF6IrsfDwmk2tr/CRWsJNSDP+J/QbORJLMDYzfEzSLXQzsWshaYo1mSBEV+IVU0uyX/+p3XExrN3ofkepZ6Qg9DwhbRLnD7pvfS/8LGHh+Y5xm5ZQXYmFe7a+nv3DFn5O69h4RBnZbRkpsLDbKeYruccl7cPUBnb+JW0Yf8a8UPd+sCpkV2Jh/aZnsptfPU7PZx1KZGvPSAF2GmUn3acUBqFjgDHQ0C1vCSOmQLZ3714aWHw7++VXgy2k2PmsSgv/tmekAH3m7KT7psVL/cA4qLoU+wm9LjFUphs3bqRBxbf33nsvP5zLdWSTl79rnz86+DnSjpECS9sUaCsJP9DqtdCNLP5ZD2RY7Dd0V2Lh6aefzg/p8nFhXLHulkVK6mjXSAFuaHbiQ1C3oj9I8rCy2634ZTmQWelKLJw7dzW7E+esziIBWm6qXbTQ0lu5shX9atpVInHCXEGLgcxKV2Lh7bffzg9r5jEiEa3KPLLD574Z+RlSHy0MuXIHgwdMLTJ/0FWicbL+wTW3tJ6fpa7EwurVq/NDGz1WJMmUXTRAKxO1ixZanACLB0wTof3BWzlWeGDXQtKGLjILFa21rsTC55/PvoXKusNf0HNaQC+X+2+kGVoYam+xSZTo4d+kh1LShB0tQk+KttaVWHjllVfyw+PHDDhvs+0Igl4u9+9LM7QQkAbKLkIoGKdRMzwMvDy0vXacxCHUeqYWuxILq1atyn744Yf8MPmxA+oqnDv3fGqSc/toIViY9DxMCR5hYUxSCwX3E7ry0SL3OS5ttSuxcPz48fww+bEPwxDI8HNjNQs0ZrQQdp74csaNHBoeIvcYxS+8XVpL+hF/0BuC8TJMkHfvjbZZ7UosvPjii/lh8mNndhz7MrvltXKBT6qhhWBtXEzjYXagS0Tdi/2GnhEsW9ZFF7/lrsTCkiVLJnYpur75Xq2wLtDCgpVxMY2H2YNuEq3yIYDuMoz/4OWmaXcZWnkbX36DBg5rPvzww/yQ+fcQf2hhwUrXkcbDbMKLRZ0VCyRtyMzD2qcYAgDsloCeFBcmCePP8XwPZ/PdtWw1DRrWbNu2LX8M+LMRm+GVSGJDCwu40YZvzlA0HmYb+vu1ykdY1zz1Bi2PzU827Mkefdx2V2IBXYpffx33MMfRo0ezJ554Ivvtb387ceqAVbSwgDdtC5UTgql7bGILuoFmmxsj3brhic2DSvX+JSuz66afo38nFr+ZfnYkWFh24MCB/Pbnz4RlCF6PP/74IHgNO3ToUP7H/N9YRQuHtbV/Tl0aD4sHxkNC3y99wyr9h6eWRxvM7lk6PfJ9LEMWpfscWPbpp59my5YtGwlehTlz5mSnT8c1IZsWDgudaq/xsPhgrEPdi91DoGIVawHBDEHuH595n/57a9CVyL6HdRcuXMhve/4sWIHAVHQbTnLXXXdlyBB1f4ZVtHBY6FR7jYfFyZ3kKe2aFMCGLZhaml2/apv5YBZbV2Kh2CzTIiRsrFu3jgarcdDV+P33cSy6TgtdIVOp+zgehu7T0OvWtQUvIey6Sn3/sfp5WplOgmD22ye2Zj/e9Gf6c0OLrSuxsHbt2vxW5/d/KGgdbtiwgQaosvDv3Z9rES10rTsUpiLq23gYAjZS1ouJxFZWE29q3IKoUs0v17zcOHtv0eNLBskgloJZrF2JhS++sNFjhOC1ZcuW7KabbqKBqaoYMhZpoQtdQ+zG61ofxsOQ1Yf5eLPt34VzkMJ6awjGmlPWTBsBbBiC2c1PPDMIIOzzfEE3560rbS8zNcnzzz+fXbrU/XJcs8EY1nPPPTdIzGDBqAnrGYu0kAnRpZjieBiCFnZPRhZf2aWb0IrB2KT7s2KETRe14WZ1bQewYfi5CCK+g9lP17+bzVm+fhBM2XHFZvHixYNsRWQAuvd9VzBu1VXwKljPWKSFzMYjZ+mN2KWYty1AFxq6B7FaAYIxNphsst4g/m0q42RYDV0bbpaHicw+JgDjM+Yuf2oQXNhxtOXf1uyMZlWOOhYsWJCtWLEie+edd/LbnT8DTSF4oavvjjvuoIGnbZYzFmkhEyJL0efWD1UghZwdb9cwRohFV93jiZVS8SdDAAvRUmk7mGH8DUklSPtnn5cydDW2mYb/9ttvewtew6xmLNLC2dz06nF6g3YBLQ/3860I3YpIqZsV460Y92Pfs+9CBbBhdyxf22hJq5+v2zUIiD5akpYtXLgwe+aZZ7LDhw/ntz1/FiZB8EKLiAUYXyxmLNLC2WAsh92oXUCgcD/fArQOLbQeMKaW0gZ7aJU16W5NDVpBlsaK5i/7Q+lghkQNzGO7d+kq+rP66tFHH81uuOGG7L777st2795duntu//792UMPPUSDSgjWMhZp4WxQgbObtguhtkWfBIvdsuMNAQkfaMm4xxgr3F8PvvMp/a59ggBmtdsNY1m/WPfarMeNbEfMR2P/tu8QvIaDARIm0LKZLWkC6xtaCl7DLGUs0sJxfHWlWU3qsNb1hdZLSuNk0OcMRssBbBgmJhfBDJmT6HZkf0+uuuWWW2hAAKxnuGfPnvz2n31xXkssZSzSwnEQXNwHrwsWWxg+W6JVYa6Ze7wxQ1cpWuPsu6YqlgA2TK2uch555BEaDFxdpsq3zUrGIi0cB5NWu35LtprUYakrkUllYvSwvqz2gew9bKXCKkCJX4hsQh8sZCzSwkmmD3b7hmx1pY4YsujwgpHKfLJhmG+Xajq+AljaFi1alP3ud7+jQSAFoTMWaeEkXc8Zs9g1Zrkr0YXKHpmk7neIXYrp+Apg6bvnnnto5Z+SkBmLtLCMLhM8LCYqoCXAjtWy1NLwCxiXvfZPR+l3bgNeAhAscY9jTp4L5fhzaDotAMsusYpP0nHzzTfTij81oTIWaWEZXSZ4YH1B9/NCi3VvLFT2Fs9nUxibRUBpo4sR5wit/7rnqVgPE8Gt6vFg7hWr+CQNDz74IK3wUxQqY5EWltFVggcqAfezQgu9MWhTOKdISnG/VwrQzYsWJ/ve4yBZBEGwiyxYjEkiKJZtpWEiMasAJX633347rfBTFaJbkRaW1UWCB1o87ueEZj0rsSxMJE6xexGw2HKZnRZwf/lKfMGLHlpok1721BpLExI6WEWfKmRghshUpIVl4S24je6cYRaTOuq86VuFFkiK3YsFBA3WAkIgCTXWimCGZbXGjeOpNZaeO++8k1b2qdq+fXt+u/NnoEu0sAoEHfZQ1mWx26vp4L01ePFApep+z1SgtTm177Mr3xWTpq20QHF/sxc/tcbSgnUSb7zxRlrZpwg7Sbe5Un8VtLCKtseL0C3kfkZI6Hpix5kC7LSMVoL7nVOBFqfFzUQxDse6PtUaS8cDDzxAK/tUbdmyJb+1+f3eNVpYVZvdbeiidH9+SBj8Z8eZitQWEY4FXh7cXgy1xtIR0/JRTYVshQEtrApvvMMPY13oZnF/dmipTa5lUu9etAyLHQ93V6s1Fr+y6ySmYvXq1fmtzO9vH2hhHW1MfkYXi/tzQ8I4Chu/SBWuobWWcB+gy7NI+sAiwH3fQDJ28+fPp5V9qj799NP8Nub3tg+0sI42Jj+jW9L9uSH5WrHfErQK1CrzD70ZRYvs1pUbaeUo9iGhI+V1El1PPPFEfvvye9oXWlhXmXk641jbCLPtzMuYqFXmXxHIfrJhj1pjkbr33ntpZZ+q0K0woIV1NW25WEuv78MWIOOoVeYfxsjQha3WWJzGbXyZmoULF+a3LL+PfaKFTTRJhLCUXh/7UlNtUqvMLwSyf9mk1lhsHn74YVrZp2r//v357crvYZ9oYRNNMhUtVZRY3YEdY1+pVeYXutbVGovL3LlzaWWfooceeii/Tfm96xstbKrOvDFr6fV9Hg8bR60yPzCP7Nqtf1ZrLBKpb3zpstIKA1rYVJ3WGMaf3J8TUh/mh9WlVpkfWAfyt09spZWm2HL33XfTyj5FWOjXvVdDooVtqNoas5ZeX6Q7y+x8rgjfV/+188NswdRSWnGKHVi1glX4KQq5izNDC9uALqcqE4UtrV6PZZjYMQqHNRjVxdgNZPxev2obrTjFhj6tkxhqu5VxaGFbqowrWUqvV1JHdWi5bvzgbH76+DmV+m5/9ZhaY4b1aeNLa60woIVtwbJNZXd/Rlqx++9DUVJHfRjbtHQtU4AxZrXGbMJcKVbZpwhdptZaYUAL27TzRLldkfGguv82FCV1NIcxTovboMTqppeOqjVmUJ82vgy53co4tLBtN716nFZ0wyxVeErqaAfGRLGVTcp7lvmC7na1xmzp08aXobdbGYcWtq1Myr2Vik5JHe1DlzISFNxzLeXh+fjJlgPZg1MraIUq/t1///20wk+R1VYY0MIuTO37nFZwYGmis5I6uoNuWkvdxrFBF+2/rdlJK1Tx79Zbb6UVforOnTuX34L8vgyNFnYBKdizJXlgLyX374eC5X7YMUp7NF5WDyY/4/zdv2QlrVTFnz5tfGlhu5VxaGFXiofQZWkzzKqTtKU+zS+rpuiWV2ssvHnz5tEKP0UWtlsZhxZ2iSV5oJvJ/XuhNN0TTapBVzKmNGA6hnstZFSRdKTWWDh92vjSeisMaGGXkDjhruTx4Dt2In2VVUakPaickcmoYDYZlvpa/sKbtIKV7t1zzz20wk/R0aN2hnpmQwu7tvHI2RkV2NS+z/Ji/nd90h5i4WHcFN3OSsufbM2aNbSSlW71ZePLu+66K7/N+L1nCS3sGiqo4W47vIG7fycErDQxXKFKOEj20Ur54+3du5dWstId7KPFKvxUnT5tZ03b2dBCHzBIXXTd4c3b/fMQZks8kXCstNIt2rx5M61opTt9WicRLM8PK9BCX9Yd+mJQUVl549aaifYgg9G9TpL9CKsnTE1pw0yf+rbxJcyZM8fkeonDaKEv6Fa0tGAsdi1mFamEoyDGvfTSS7Sile70aePLYRZXrh9GC306fO6b7MDZb/Lf8j/3CeMwrCKVcBTERuHNeMUKLT/lW1/WSXRhHNC9By2hhb7tMdISY5WohKUgNmr//v20kpWZlvxhQ7Z0bW712mz15mezbS++mr306quDcZ7C8uXL6b919WnjS8Zyqj0tDOHjwGvqKb3eJgWxUWvXrqUVbZ9N/2Fdtu2l17KjH3+cXbpUrS5By/b48ePZnj17su3bt9Off9ttt9HKvS8sT3qmhSFc+PaHoHODMIGUVaISloLYTKdOnaKVbB8h4CDwfPVV/R0Svv1hdHI9gtr777+f/elPf8pWrVqVLViwgFbsfdL7rVjKCrkorOaI2YS1LN1r1WeztRT6Yv369dmBAwdayZi7RAIYc+LEiWzdunW0cu+T5557Lj8d/ByFRAtDCrXsENL8WSUqYSF71b1WfdXntPrp6ens8OH2tmz629+r9/pgOxJ0q7EKvg/uuOMOk+n2tLCPsGoIq0QlPC1Bddkbb7xBK/iUoTvv7bffzr8+PychYFX3ZcuW0Yo+dei+dc9HaLQwtG8DVFpYGYJVoBIeFo12r1cfoRXAKvoUIWvw9ddfzy5evJh/dX4+6rpcvfA/qwIZewsXLqSVfarwfd3zEBottODbH/wGMu0jZtebp+oP3Kfi4MGDtLJPEboOP/usm+XGvm/5BRnda30bL7O2vxgttKLtG24c7GnGKlAJb+MHZ/NLxK9bX/RlncRNmzZ10vqCHzqsT7CqBavwU7Rhw4b8K/PzEAIttOSHGgOwdWi1DrssbZoawpkzZ2iFn5oXXngh/7r8HDTlox5B9yLWGmQVf0qspdvTwj7SZpi2hZx+ERoqd1bpp2LJkiWdJwz4ehnG1iX33XcfrfxTYmk9RVpojY9uRVZxih1W9pzzDWMuS5cupZV/ChDAul7SqOx8sLagOzT1fccsbZhJCy3q+kZkFafYge5e95r1wbvvvksr/1R03QL76rsf8v/wP+sS5pSl3rW4e/fu/Kvy7+8TLbSqq0B2/tL3tOIUW/Z/8XV+ufg1TBHGwtasWUMr/xS8/PLL+dfk370Nfw0UwApoYWL8iAWAVGACNBI9Qi4QTAst66JvW4v/xqEP6yhiwByTmlMOXoAsxC5Xf/jLt2EDWAGtFVb5pyhUQKOF1rUdyBTE4oDkG7Sa3esXO4yh7N27N9u4cSOt8FODeWBdpdEDemx8Ts+ZBBU7q/RT5jOg0cK+6csK9v971Z9opVLWf67fRX+uT1hZxb1+scK+YFu3bu3VeohI5Pjii+6SdC5+byuAAVqcjz/+OK3s+6AIaF1NkqaFMWizNYaxFlZhpmbegsdpxVLWfWs205/r27HAe881cezYscEWIilnHI7z6quv5qeBn5umELwQxNxyC1CBswq+b5DViM1I2wxotDAWbQWyPgSx/7H6lWzx4sW0Yiltakn2v/7If75PN77ycX7Z+LW0CAkamOvVp7UPGXz/rsbBEMAufW+rBebq8wr4TFsBjRbGpI0VzrE2H6ssU/LrqadoxVLVTRteoT/fN+vzxs6fP5/t2rVrMP7DzmMfvfXWW/mp4eerqS+/tT9WionQqWcr1tUkoNHC2HzTsAuhD3uJ3bWgYSvs/3t4en32D1v4Z/iGsUz3WoaEZAXM68LGjezc9VmXrTDsCu+WWYWKmlXichUCGjbgRNB3zx9DC2N0scEcstSDWCtdiYWpJdm/bv0z/RzfMAE69HJUqJiRoNGXBXrr6qoVFlu2KqZQqDVWHpbwmhTQaGGs6s7OTz2ItdWVWLh9/U76OSGECmQffPDBIEGjrzstV4GtStzz14YvL8XTAhum1lg9CGhsg9QZ/5OCOoEs9SDWVldiYcGqtYM5W+yzQrhu50fZ1991n5V26tSpwVvhihUr6HkR7s0338xPHz+ndcUawACtMVZJSznobhwOZiMnOAVVK7SUg1irXYlD/mPrPvp5oVz/0rFOAhkyC7Fid98zC5tAkot7Xps4ezH+Ce992xG6C8W5HDm5qaiS7JFyEGu7K7Ew7+nn6eeFhH3H2shWHYYuQ/b9pZwnVq9pNQEnhQAGaNGzilnKK87lyMlNydclA1nKQaztrsTCohXT2U+3HaGfGRICWZuD/Qpizdz85FZ6nQpoQeOalXHw7Df5JeHXKTaa/NxccS5HTm5qygSyVINYV12Jhf/c+i793NB+tv1Ihrl/7nWuQ0GsmX996nV6jaraeeLL/HLwaxQrjO2wylnKKc7jyIlN0aQuplSDWFddiYV71z9nZs4Yg1Xvm46TKYjVt2Dpisb3BxKI3jv91/xS8OsTM2UpNlOcx5ETm6pvf5g9kKUaxO58hFcubVm8bEV2zbMf0M+2ApmLTcZkFMTqu33lBnpNyvr5jg+jXidzEqzwzipnKac4jyMnNmXf//3vdIXrrtdO/Mdn3qflXfrx2jeyRYsW0cqlTTdtfZt+fpd+Mv1K9j+XbKF/Nhusfl9nPpmCWH2/+sML9FqUgbGy0BPZu4aJ8qxylnKK8zhyYvvAzVzsMojd8Oh0tmjp8uyG1c9mP958gP6dLvzfJU/TiqVtD6zdmv2TpzljP1uxI/vV3Luv3MT4f/b3xrnnrZOVWmYKYvX9n5rjYfN2f+Jl3p8F2KZkuGKW8opzOHJS+2J4vbWughgC2PBD/eiSZdmt01uznzzT/bJNXXclFvCdfvFst1mKP33ypey6O+4buYn/64YbBy1O9m8mwUr4r528cOUemI2CWH3/XOM+X7Tns9anSVi2bNmykftayinO4chJ7ZNidY8uNsW8funsi8B2Hcx8dSUWbn/mNXocTSF4/d/5D9IbuPCbOb/P/nFj/YnXyGRE62zjB2dpC01BrJ6F+T3Ozvc4G4+cHTn/qevjrs9tKc7hyEntG3RbYAIle6jq+tWS9dmjjz5KH+5hCGZzntyS/cumvfTn1OWrK7Hw0B82Z/+jxTlj/7xmV/Yfdz1Cb1wGf5f9nDqQDYc5SdjqBaY3bqHfWcZ7eGo5Pb8MznmZVnGKNOm5vuIcjpzUPkLmIiou9oBVdd3STaUC2AxTS7K5T25uHMx+ueq5bN7jK/lndOzexUuya1dszf5hU/0kFgSvf797Eb1hJ/nXBdP0ZzY1d3m30xRSde+yctcDLWF057vPZF8oiNVXnMORk9pX6Ief2vc5fdDK+uXK7dUD2LAawQxdab9ZsTl74LEl/Gd69uCCxdlvlzyV/dO68lmL+Lt1g9ewOokekyiI1XPP0slB7Nrnj2Ynv/o2f/z4M9kHu3fvpveyTFacw5GT2nfo1qizQvsvVm5rdXWM+as2ZNdsfI9+Fvxs7evZrUvXZgsf5f8+NIzJ/fbhpdlPV86+xiKC17X3L6E3aB3X33hL7USP2SiI1TMpiN306vHeZCCOg9XY2b0skxXncOSkSvYjvB1ikix7+JifT7/Y2fJObjBDl+Gdjy2nf9cStEhvvPHGwc3269vmZ9dMbbrS1fjfn34v+8UDy0duyjbgs5okergUxOoZF8SQSNOnDMRx1J1YX3EOR06qXIaHDOm+7CEcds2TO720hu5c+XT20KOP0z+z6IEHHhi56dBSQrchUuPdP2sTPoNdqzoUxOq5f8Uaej6nD57JHy/+zPWRshPrK87hyEmVmXYcOz9r9+I1a17JFixuMAaWsDlz5tAbz5efL+SVaFUKYvU8smTFjPOIno3D59JZhb4t2KeO3b8yWXEOR06qjML6bW734r+s250tiKhl5NMjj5RPj+9SG4keCmL1YF3N4hz2bQJzFQ899BC9d2Wy4hyOnFThMAg93L3466Ub6MMrj2Xz58+nN51vbSR6KIjVd+32g8muQN8WLTtVX3EOR06qjId9qjC3BckJDy/0typGLJDQ8bvf/Y7edCE0nT+mIFbfsRMn80eGP0dyGbtnpZziHI6cVJkMOwdjkdLrH19LH94+u+eee+gNFwISSPCywYJTWQpi9b3//vv548KfIcl+dO7cOXrfSjnFeRw5sVLe9kOfqDXmuOWWW+gNFwLmoLHAVIWCWH0vvfRS/pjwZ0eyH+3Zs4fet1JOcR5HTqxUs3mbFogtPPzww/RmCwXLWLHAVIWCWH2rVq3KHxH+3Ej2o3Xr1tH7VsopzuPIiZVqLly44HXFeMvmzp1Lb7YQ2porpiDWzKlTp/LHhD87fYYNMUNPQ4ldcS5HTq5Ut2PHDvoA9wkCuaWEjjZaYaAg1szLL7+cPyL8uemzo0eP0vtWyivO5cjJlerUGnssu/vuqzsuh9bm1iwKYs2gy8x9XkQrdTRx0003zbivRk6u1IPVqNlD3BfFOokWtLmavYJYc1999VX+iPDnpq/uuusueu/K7LC6CZJh0BU7fC5nnFipDyd26dKl9CFOHVsnMZRfzb2bBqO6fjP97GCDR/a9pZz9+/fnjwh/bvro+PHj9N6VUY8//niGBsLFi6O7rhdoodSza9cu+hCn7rbbbqM3YAhd7CkG1zz1RnbDE5uzB6dW0HMgs3vqqafyx4M/M32krsTx7rvvvuyVV17JMI/OPXcMLZR60BrDmwN7kFO1YMECeiOG0HYrbDb/8vRbCmgVHTlyJH9E+HPTJ59++im9d/sO3avbt2/PTp8+nZ8mfu5mQwulvr61xqyskwjXPLqeBp0uKaCVg/EMdyyjj7Rq/VVYNxKtUnSvuuepCloo9fWpNYZ1Em+44QZ6g/r2n7fcdmXTzVAU0MZ755138keEPzd9cOjQIXrv9kmRWdjmOCktlGb60hq799576Y0aQohW2DgKaKOwgkefMxX7vO3KbJmFbaCF0kxfWmNW1km00AobRwHtKgzYu89LH/RxncQymYVtoIXS3IEDB+hDnApL6yQ23W7Fp74HtCVLltQavI8ZFkPoy75hVTML20ALpR1PPvkkfZBTYGmdxLaWmPKtrwFt9erV2aVLl/JHhD83KSl6Zdh9m4ommYVtoIXSjhUr0qycrK2T+POFa2iQiEnfAtrmzZt7ka24ZcsWes+mAC8jTTML20ALpTlsCIjsPfYAx87SxpdgfUysqr4EtNdeey1/VPjzk4K3336b3q8pQJahlZcQWijNYf4De3BTgBuY3dghdbVSR2jzl/2BXoNUHDx4MH9c+DMUM7RQLD4nbUEL0/3OodBCaQZ9w9ZXtcd6gHOWrx+88f9i3WsDP13/7qBFU/z/f6z8Y3b9ik3ZnY8tzxYvXjz4d5bWSRx23R330SAQu1+ueXnk2qUEiR6fffZZ/tjwZylGSGpIPZEDK4+43zsUWijNWN1fDIELQQvrALIKc5z//vR72S9Xbs+uv/9RelNbEGuCxySpdysikKWyLBVaYKkHMCSquN87JFoo9aGfmD2oISF4XTf9HK0g60CwwM7J7AYP6RcPLKfHG7vrV22j1zU1r7/+ev4I8ecqBpgLlnIXYsHargS0UOqztFoHtoZ54403si/+ejHbcex8Nm/3J7SSrOunT7406MZjN3oI/3XDjdk/btxHjzVGP9t+JHvwnU+zF459kU1NTdFrnBr0YsSYfp9yFuIwtDLd7x4aLZT6Vq5cSR9O36anp7MzZ87khzTz+L7+7m/ZzhNfDirHH289TCvPKgZjaHkLiN3wIVhbfqqq63Z+lK3Yfzrb/8XXM67dCy+8QK9zitauXet1smwTWI0i9Xlgw3bu3Jl/bX4uQqGFUs9HH31kIq0ec3DKLPXy3d/+nr156qtsat/ng8qTVaplXTO1adASYje+T7++bT49PqvwInHPWycHLeXT33yXXxZ+rU6dOkWvdaqWL1+e7d271/RcMnQf9mUlDkBXKVYfcc9DaLRQ6nn66afpA+kTZs67x1UWKlG00hbt+Sz7+Y4PaaU7zk9XPm8ikOE42PFZUbS23jv91/y082vBrF+/nl7zlGFCrbU0/KNHj2Z9XMwX18I9FxbQQqnuxIkTgw0i2YPoC7ph2nxzPfnVt4MWAloKGJ9hFbIL3XnsAfDpN3N+P1jF48drq2dhduH6l44NXgwmtbYmQWXOrnsf4AXx448/zk8DPzc+IK182bJl9J7rAwurczC0UMpBv/3LL7882GaAPXg+4Ri6buojqL128kI2ffBMdtuuE7OOqVkaI0P3os+AhlYWxhu3Hj03Mq7VFF5QUl3KrCzsRYV9udxz0yVU3miFsPurL9DydM+LFbRQZodAgc391qxZQx+yUD755JP88Pgxd4kFNiR7/Gru3fRhCAkttF88/ERr88muff7oIGBtPHJ2ELAwxuien7b1bedwV7H9D8ZnEFiwtFPbW33gZQFp5AiYfRrzGgfn2T1PVtBCmQk3NQZxN23aZHI9xK1bt+aHyY89BFTmO97cSx8GK8oGNHQFIjgj+WXdoS8GARsBC1me7vf2AS9RfUm3dz3yyCP0WgIyBLEFCMar3HNWBroKUVGjR6MPc72qQCC3nGBDC+Uy7Am2bZvtiaao0CxmDAEqBPZQWPO72+/I7n1iXbZy14FBskXIIFUGXlrYvZC6Kq0i/F0ENkCy03PPPTcDxrbwZ9j/iv17ucrSOokMLewzJGg8++yzgxRf9iBZg/lD7newAm+37KGwDHsj4aG1vHEjuo7ZvZAya9v/9In1OXu0sG9QYSFBw8pE5SrOnz+ffwX+vSyIeSLowoULTS10OszamGzXrG3/0xfoTXHvPWtoYZ/EvPsyUurd72MNxinYwxELqwPamAjM7olUaZwqDN+ZoHXQwj7B2zZ7aGKAAOF+H2vQFcEejlhYDWJ9Sre3uv1P6tC17t53FtHCPok5iGEpIvf7WBTz6gaWU4v7sp7i7bffTq+NdM9qd/owWtgnsQYxvIW738UqZIexByQGloMYdihg90ZKkNDBrov4gTFt976zhhb2SaxBDAP77nexKuZxMXUnhnXnnXfS6yL+WNs/zEUL+yTWILZx48b88Pl3sgYTxdnDEQOrQawP6yhiYYEbbwy/oHTfYWxMk50NizWINVmt3jesosAejhhYDWJ9SLG///776TUR/ywnkdHCPok1iMWQmViIOUPRYhDry2r2t956K70m4p/VvcSAFvZJrEHM8kodrhhX7ihYDGJ9aIWNWydRwtiwYUN++/F7MiRa2CexBjFri/6OgwmT7KGIgbUg1pdW2Lx58+j1kLAsptzTwj6JNYhhk0D3u1iFQMAeiBhYC2J9aIUtXrxY6yQaZTHlnhb2SaxBLIY1zQpYNZw9EDGwFMT60grTOom2WUu5p4V9EmsQW7JkSeubAXYl5l1xLQWx9evX03shNcXGl2KTtZR7WtgnsQYxsD4JEXCzz5kzhz4MMbASxLDEGLsHUhPzEmV9Yik7mhb2ScxBbMeOHflX4N/LipiTOsBKENu8eTO9B1KjdRLjYCnlnhb2ScxBDBt3Wp5JD0jLZQ+BZdgVGMdtJROrL60wbXwZFysp97SwT1BBvPPOO4PdfNmDZd3hw4fzr8G/W2gIsFW2lA8JXZ7r1q0zuX9SX1phGGth10bssvCiRwv7CpXun//856gCGipe93tYEcPCv0g6wdqOVlu0fWmFaZ3EOFlIuaeFEldAQ+q1e/yhIXPSaisMDx7GumLI7uxLK0wbX8YrdIIZLZSZrAe0VatWmWtJ4FyxGz6U++67b5BRhXUc3WO16syZM/R6pyjmDNa+C51yTwtldrhYBw4cyLZt25ZNTU3RBzKEl19+OT88fsy+YdV6ZC+xG94nPFxY7f/06dP5YfFjtawvOzcvWLCAXj+JR8iUe1oo5VkKaBbmjaGlE7obcdmyZdnx48fzw+HHGAOkL1t6SerS/Pnz6XWUeIRMuaeFUh1aaHijZA+pL1jF4+TJk/nh8GPsGs6BhcmqFhcpraovrTAkdNxwww30OkpcQqXc00KpB5OP2YPqE+aOffLJJ/nh8GPsCpIkkDDBbm6fLC5QWlWfWmH33nsvvY4SpxAvkLRQ6sHYCyZssofVt3fffTc/JH6cbcONa2WOTwxLcU3Sl1YYaJ3EtIR4iaSFUh/mbbGHNQSsHn/p0qX8sPixtgGp6haSOABjcdayNKvqUyvs4YcfptdR4ub7RZIWSn3vv//+oJ+fPbQhoHvxvffea71yRwYiluxiN3EoCNruccamT62wuXPn0usocfOdck8LpZmlS5fShzak6enpbO/evY1vLmT9YS8zdvOGZGlB0rpwbSzeO13QOolp85lyTwulmddff50+uKFhs0FU9ghC6AYsW+ljPUFkHlle2y6mTUJn88Ybb9DrlqK7776bXkdJg8+XSloozeDiWUnwGHbzzTfTGw6DsYDxPEwOLv4/lsV7IfZ5YWiFrVixgl63FFkZR5Xu+Eq5p4XSHIIBe3hDefDBB+mNlgLMTXPPf2z61ArTOon94SPlnhZKc7h4ixcvpg9xCClvNrh79+78lPPrEIO+tcK08WV/YPUc935vGy2Udqxdu5Y+xL6ha5PdYKmIvSsRc/rYdUuRtYxW6Q66jH3sz0cLpTlLmWZ33nknvclSEWKCZZuw2smaNWvotUuN1knsB18BDGihNIcuLvYQ+9aXzQZjX6mjD4FMG1/2g88ABrRQmkErDK0D9iD7dv/999MbLTUprNaReiDDnm7s2kk6fAcwoIXSzK5du+hDHMKtt95Kb7YUpbBiR2yBDEtkYZWRY8eODc7/uCWztE5iORg3xDzOPXv2mNgVoqwQAQxoodRnqRX2yCOP0JstVXiIYl+1A2IJZJhGcv78+fyQZx47ElWw2/jw3+3bvVgV7l3M02Qp6VjiDXUK+3dWhApgQAulPkutsHnz5tEbLmUprNwBlgMZC17Mhx9+mG3dunXwb/p4L5aBVXB27tyZ4Xq758+FAGd1ybdQAQxoodRjqRWGOWp9XZsOb67utYmRtUC2efPm7NSpU/mh8eOdDQLes88+m82ZM4derz7C/Km6yUjYPR2tNvZzfQsdwIAWSj2WWmFYJ5HddH2QwgoeBQuBrG7wcuElD2M9MY3ztAlBHEsxIQi556YOdJ1v2bJlEEjY53XNQgADWij1WGmFwWzrJPZF7Kt4DAsVyNavXz9I2HCPpw2YoG6lNdE1ZGXifuwqexb3B5JqfLZ0rQQwoIVS3YEDB2hFEELK6ySWhZT7MuMMsfAZyLoMXi60JjAmFNNi02WtXr3aa9c2giS2QOn6XFoKYEALpTo3GyskrU13Gbpa3OsUs64DGX72wYMH84/in9+12FLKGVTwSHwJnSWLbtsutk6yFsCAFko1lnZzTn2dxCrwwPlYRdunLgJZ6OA1DC0Xdi1jgdaX+51CQvJIW+tVWgxgQAulGksrkKe+TmJVPlbR9q2tQIZ0bez27f780CxvvjoJWpPu97EALwd4Ftgxl2E1gAEtlPIstcK0Nh0X+7qKTJNAZjV4FdAdx66jdajou0reaAt6JtBaZMc/G8sBDGihlGepFdaXdRKrwpu99cqljqqBDPcqNt+0fi5Onz5Nr6N11roSxynmmiFAse9SsB7AgBZKOZZaYdCndRKrQgace/1SUCaQxRK8hsW4WLDVrsRxirlmLD0/hgAGtFDKsdQK09p04+GBTGFdRWa2QIb97JByjT93/411eOlg19Eq3F8xt/Zxj2CuWZGeH0sAA1ook6FCtDS5WWvTjYdB7RS7FAvDgSzm4FVAdxe7jlbF1JU4Dp4R3DuxBDCghVIOluIZt/WEL31eJ7GM1ANYAUEL3YYxB69hbaWG+xBjV2IqaKGU5zOQbdq0aZBZ5pbHtk4ivoOvFRr6EsBShKWa2DW1JvauxNjRQqmm60CGLKKPP/44/6jLn4clgbZt23blz2NYJxFBy13JoKtVBQoKYHHDvYIAwa6tJal0JcaKFkp1XQQyBK/Dhw/nP55/Jra4ePHFF02vO1fsUjsumGAeV9vLDSmApQHXkV1fS9SVGBYtlHraCmRPPvnk2ODlQmVtbYsLBGCsVO4e6zht7WCrAJYO3NfsGluB1HTda2HRQqmvSSBD8Nq3b1/+Y/jPLiPkFhdoESI1umkqe5MdbBXA0oJrablLEc+ae8ziFy2UZqoGMlTYTYOXy/dCqhjbco+hKazcUCUgK4ClqeoyST7FlIqeKloozZUJZAheb731VmcVr8+FVJG04X5+WzBnaNIOtgpg6UKgYNc8NHUl2kALpR2zBbLly5d3GrwKPhdSrTr+VQe6KdkOtgpgacO19blrcVnqSrSBFkp7hgMZKttdu3Z5m4yKsSX28LWti67EcXD+ih1sFcD6YcOGDfTeC0ldiTbQQmkXAtm7774bpLL1sZBql12J4+B8KoD1g7XNMtWVaActlHSg+409hG3y0ZUo4nOMdxJ1JdpBCyUdXS+kii499zNFumBps0x1JdpBCyUtXS6kirEK9/NEuuBrjHcSdSXaQgslLV0upIqxCvfzRLpiYbNMdSXaQgslLUhNZw9jU+pKFN98jPFOoq5EW2ihpAep6OyBbEJdieJb6M0y9eJmDy2U9HSxkKq6EiWEkJtl6sXNHloo6cFAdJsLqeqNVEIJuVmmXtzsoYWSpjYXUtUbqYTS1RjvJHpxs4kWSpqw+SR7OOvQG6mE1MUY7yR6cbOJFkqa0KXYxkKqeiOV0EJslqkXN5tooaSryv5cs9EbqYTW9hjvJPgsTXC2iRZKuvA2yR7SKtAt6f5cEd98bpaJ7kv388UGWihpQ3cge1DLwlwd92eK+IaFpzH52Qd1JdpFC0VERGJAC0VEROzLfvT/ACz8FsNBnMwXAAAAAElFTkSuQmCC;strokeColor=none;shadow=1;spacingTop=-2;spacingBottom=-2;spacingLeft=-2;spacingRight=-2;points=[];labelBackgroundColor=none;rounded=0;html=1;whiteSpace=wrap;" vertex="1" parent="D-f0g4XA8TNqZnRXPo1R-8">
            <mxGeometry x="7" y="7.169999999999959" width="50" height="50" as="geometry" />
          </mxCell>
        </UserObject>
        <UserObject label="&lt;div style=&quot;font-size: 1px&quot;&gt;&lt;br&gt;&lt;/div&gt;" tags="Arrière-plan" id="D-f0g4XA8TNqZnRXPo1R-13">
          <mxCell style="verticalAlign=top;align=center;vsdxID=112;fillColor=none;gradientColor=none;image;aspect=fixed;image=https://upload.wikimedia.org/wikipedia/commons/7/70/Solid_white.svg;strokeColor=none;shadow=1;spacingTop=-2;spacingBottom=-2;spacingLeft=-2;spacingRight=-2;points=[];labelBackgroundColor=none;rounded=0;html=1;whiteSpace=wrap;clipPath=inset(33.33% 33.33% 33.33% 33.33% round 50%);" vertex="1" parent="D-f0g4XA8TNqZnRXPo1R-8">
            <mxGeometry x="12" y="12.339999999999918" width="42.07" height="42.07" as="geometry" />
          </mxCell>
        </UserObject>
        <UserObject label="&lt;div style=&quot;font-size: 1px&quot;&gt;&lt;br&gt;&lt;/div&gt;" tags="Arrière-plan" id="D-f0g4XA8TNqZnRXPo1R-14">
          <mxCell style="verticalAlign=top;align=center;vsdxID=112;fillColor=none;gradientColor=none;image;aspect=fixed;image=https://upload.wikimedia.org/wikipedia/commons/7/70/Solid_white.svg;strokeColor=none;shadow=1;spacingTop=-2;spacingBottom=-2;spacingLeft=-2;spacingRight=-2;points=[];labelBackgroundColor=none;rounded=0;html=1;whiteSpace=wrap;clipPath=inset(33.33% 33.33% 33.33% 33.33% round 50%);" vertex="1" parent="D-f0g4XA8TNqZnRXPo1R-8">
            <mxGeometry x="36.129999999999995" y="36.33999999999992" width="21.94" height="21.94" as="geometry" />
          </mxCell>
        </UserObject>
        <UserObject label="&lt;div style=&quot;font-size: 1px&quot;&gt;&lt;br&gt;&lt;/div&gt;" tags="Arrière-plan" id="D-f0g4XA8TNqZnRXPo1R-15">
          <mxCell style="verticalAlign=top;align=center;vsdxID=112;fillColor=none;gradientColor=none;image;aspect=fixed;image=data:image/png,iVBORw0KGgoAAAANSUhEUgAAAbEAAAGxCAYAAADs0IixAAAAAXNSR0IArs4c6QAAAARnQU1BAACxjwv8YQUAAAAJcEhZcwAAFiUAABYlAUlSJPAAAEnPSURBVHhe7d35w1XFnSbw/JvTPZ3OJD3jZDqxu8ckbSeuKBHcVxb1ZRVfCCiLQECM4oq4A0E2RQQRBQGDUXBJzpznMgfuW/d57z1r1bfqPD98EAt477lnqe+pqm9V/SjLMhERkSjRQpFQvv7ub9n+L76m1h36opE3T3115Wd997e/5x/Hj0FE4kELRbpw8qtvBwFk54kvB0Fl0Z7Pstt2nciu2/lR9t82Hwrix1sPD44B7nnr5JWAh+M8fO6b/LD5dxERG2ihSB1o3aDy33jk7CAQICggOPx8x4c0gMQCx4/vMbXv8xktOvf7i4h/tFBkkuGA9eA7nwZtTYV0/UvHBi3KrUfPKbCJBEALRYYpYFWjwCbiDy2Ufjt/6fvBuJUCVnvm7f5k8BKgcTaRdtFC6R9UrtMHzwxaEawSlvYgmQTjhWipHfvLpfz082siIpPRQkkfUtlfO3lh0O0Ve+JF7H62/cig1YvrgeviXisRmR0tlDThrR9dWje9epxWpmIDWmk7jp3P0K3rXkMRmYkWSjpO/fXbQZfVqb9+N3jjZ5Wm2IXUfnQ7nv7mu/xy8mss0me0UOJ24dsfsg/PX8zw3+Hy907/lVaUEgeMVyKgqYUmchUtlDh9+OXF7NO85eWWD0MlyCpIiUsxhuZeX5G+oYUSj8++/i47fO5ipbUAV+w/TStGiQ+ScnA9saSXe51F+oAWim1fXvo+O3jum+zsxfrdSpi3xCpFiRcSdpAQogxH6RNaKDZhLtee039tZQV2VHSayJwmJPCgdaZkEOkDWii2HDz7TQZueVOo5JSxmDaMnWlCtaSMFooN6DKclKjRFNb2wwoSrAKUdCBVH6vvu9dfJHa0UMJBVyGyDP/ipMd3acexL2nFJ+m59vmjg3Ux2+iSFrGAFop/GKNqa7yrDmUs9guyGjHdQsFMYkcLxR9MXMXCuxibQqJFyEpFGYv9g2CGlpl7L4jEghZK9xC80Ppxx6PWHf4i/2P+b7qmjMX+KroZ3XtCxDpaKN1BSwuL8M6WFYigFnLiqjIW+w3BTAkgEhNaKN1A5YBKglUew2585eP8r/Of4YMyFgXrNGKtTffeELGGFkq7ME8HKc6sspgNMgbdn+PTiyf+Qo9L+gXjpJo0LZbRQmkHxr2m9n1OK4dJ0KUXerVyjM+xY5N+Qat83aEvlMkoJtFCaWbSuFdZWG3B/dm+LXzvFD026R90hauLUayhhVJf2XGvsixst6HUexmmLkaxhBZKdXXGvcrAPJ7Q3YpoWWKgnx2f9JO6GMUKWijl4SHGZGX2oLfFQrciAum1f2qvhSlpwLxC7K7g3i8ivtBCKQfzuXxNDrbQrYjvqzlkwuBFTq0yCYEWymRI3PA5l8pCtyIcOX9Rc8iEUqtMQqCFMju0RrCDLnuIu4YBdfd4QkDyCjs+EVCrTHyihcL5bn0xmITsHlcIWAGdHZ8IqFUmvtBCmQndeFbSzDEmZSW9efpAtwktEj+8+Ln3jUibaKFchZW9rSUzYG1FK901yJxkxyhSwAsgdkhw7x2RNtBCsdX6YrCNi3vMISCYdjE/TtKCxCR1L0oXaGHfYWmdGFLJrWyZoX3IpCx1L0rbaGGf7Th2nj58FlkaH8NxaDK0lKHuRWkTLewrdNGxh84yS+NjmgwdP7So0T08m7aur7oXpS20sG8QBO556yR92GJgZXwMsIakAlk4OPdFwEH2KLbTwWov2OgU18a9Xm3ABHj8/GH4XECrC8cy29QUTNVwf55IFbSwT9ANlsLitpa2lMeYolb16AbuVbxwFUEC5xpBI5ZV5RFIcbzY9BXHj+zWZX+28xIm8aGFfYEHCt0arLKIjZVlqQqoXNlxSjnoJi6CFV5QumpFWYCW3H1vfapxMqmFFvYBKobUWgvotnG/Z0hYXYQdp8yEcSi0SNC1hlaKex77AOOp89/QPmVSHS1MXcpLJuHN3f2+IWl5qlEYJ8J1QsDSGoNXoSdh7usnkm51SvtoYapQYUzt+5xWLCmx9jaPCpsdZ1+gaxBJFn1tZVWBLsXf54HM0hiv2EYLU4SHA91trJJJjbXxMZja9xk91hRhvhwyRlERa5ynOrxsFt2r7p+JuGhhatDP3rcVJayNj8HC907RY00BWlsbPzibYWzH/d5SD14E0HPilosMo4UpwYTKvs5bsjY+hjdsy+tRVoGkIGQPInnFWqs3JWiNLdrzWf5b/ucitDAVmq90aDCPyD0vISGQxdqti3sJ3VyYPOx+L+kOzvdje9UiE44WpkAB7DK0Qq11cWGcKKYJ5kWLS+Nb4eB5XvLnz5XNKSNoYewUwGZCooG1ChjHY3nBYLQWsaqEugrtQOr9Q++cUiCTGWhhzBTAOFTK1h5+ayvfI6sTqfCacGsXrs1jez5TIJMraGGsFMDGQ5q7e85CsxDIkGyica54oBW/ZJ+6FuUyWhijfWe+VgArweLcmxCBTK2uuCmQSYEWxub4hUvZra8dp5WVjEKL1T2HofkKZGp1pQP3DOYeKpD1Gy2MyYdfXhzcxKmsRu+DxYxFQKXU1Zw+VHZaky89uI+RteiWS3/QwligBXYmr/jQtcAqLpkdWj3WMhYBgaatQIafg1Uf1GWYNqxJqT3J+osWxgAV094zlxdURcXHKjEZz2LGIjQNZGiVYwkoi0FauoF1KtcdsrVCjfhBC61D5bT92Pn8t5f/H2McrDKTySxmLEKdQIbWJSYla4yknzCvT4sG9w8ttAwVFLqIhsvw1s0qNSnH6oNfNpAVwcv999I/WC9054kv89/yP5f00EKrEMAwQO92E/Vpm4+uWMxYBGxdP9vUCXQbIgCr5SXDMBna6v0s7aOFVmHwFm/nbnnKW3z4ghaP1W1E3EnsCl4yDu6Lu978RNmoPUELLUKlNVuXUayroltjNWMREMhwfApeUgbukflvfKK1L3uAFlqDCswdBxsW04ro1lnNWBSpCi9kWjA4fbTQEnRxzX19fMWKN3RWIUs92DPLPcciMcJUnCcPnMl/y/9c4kcLrcCb1A2vfDyxS4BVxNKM1dR7kaowNvanj5WxmCpaaAFaXujawmx898+G4e+xSliaQ7qye75FQsCLLOoCGExszu9NBos6o94AbGZalP/+9cl1icSJFlowte/zUvOX0F3AKmBpByaQuudcpE1FgMKiBQg4GP9GELrxlY/pPVkXslq1BFl6aGFoeNPCW5RbziiIdQ/Xwz3vIlVhfBtJWghUmBaDQMXuty4hCUyJHmmhhSEhKP0ufwMre6MpiHUPc7Q0eVSqwCR1tOIxttp2i6qpRXs03psSWhgKAtfvd39SadKtgpgfmAytyaPC4L6wGrBmo6Wp0kELQ0FfeNWuKwUxfxDIcL7dayD9gvErrFeKDUarLtJshe7ldNDCEBC8kFnklk+iIOYX5uRpFYR+QVdykfXH7olY3fTqcY2PJYAW+oZAdOebn+S/5X8+joKYfxgct7o8lTSHZwrdg0iumm3x5VRMH9RE6NjRQt/ufevT2pUiWgXs5pRu4a1cb7HpKJZ2u27nR/R6p0zzx+JGC3165oNzGTKZ3PIq2I0p3cOYiHstJA54acSC2lhiLPXW1iSYP6Yu8njRQl+Qhbjto6s7NNfV94cwJMz3ca+H2ISKGoEL3YTsWvaZXsjiRQt9wcBqG2MrWgA4rDoJOeIHAhfGt1JLyugCVgxxz5/YRwt92Hjk7CDTzS2vQ1uxhKdxBTswVokWlwJXNepWjBMt7Bq6EdEF2NaWH3pYw8GDr9U8bMB1QPeuutfr02oe8aGFXUM3Im6YMgv8loFg6N6M0j2MI+jNNSykw6M7V13q7dFLWVxoYZfQjVjcLE2zEgt4+xy+CaVbeNNv6wVEqisyC2NZ4ik21z5/VNNHIkILu4K3xqKrA/9t60bBqtjujSjdwDyiKmtbSntw3rE+YaxLPcUEW0G5519sooVdGU7tRTKG++d1KYj5gcmwekP1D1lzGvf17/C5b/LTz6+J2EELu4B+5uEbpK2kDsBDPvyzpV1K3vAPY414OcO5Z9dEutfmi7Z0hxa2DW/v7nI2bc4twlYQwz9b2qPkDb8wVUGJSnZo7Nc+Wti24WSOQpvb3mOg2/350oySN/xCokYf1y20TnPH7KOFbcINwOattD05Vt0u7UG6tpI3uoceCrwoKD3eNowFu9dO7KCFbZqtawSZiu7fbULpxu1AAkEbS4HJ7HB+Nd4VF+1qbhctbMu4sSr37zaF1GP2OVKe3ji7hV4JnGPWMyG24eXOvZ5iAy1sy2xrGqLv3/27TWG7dPZZMhkqVS1+2h30OmhCfvyw+7x7bSU8WtgGXHB2I0AXbzXjPk9mh/EYdZV0A+dV256kA92/midpDy1sw7iV5bvYuweJCOyzZHYa/+oGWl5Kk0+TMnbtoYVN7TzxJb0BCl1spIg3JPZZwmn8q33qNkyfWmP20MImcIEnZV0hCcP9d23QvmKTYfyrzTl6ooSNvlFrzBZa2AQuMLvww5Be7P67NihDcTy8XLS1c4BcTpVX8OoftcZsoYV1lWmFATIJ3X/bBqx6wD5PDg227dDKA+0o5nlpNfn+wipE7n0hYdDCusq0wgDBxv23bcCYBPu8vsM4jd4c24EXgTIvapI2tL71UmgDLayjbCsMugpioLfjmZTA0T6s6K8uRNGzZQMtrKNsKwy6DGKal3OVBqC7o0Amao3ZQAurqtIKgy6DWJVgmio8XF2eY7kMk5nV8u83jY2FRwurqho4uqxgkX3HPrMvEMC0gaU/CmT9pkzF8GhhVVXnZ3UZxHBD9bWbB5WplpDyT4Gs39RtHxYtrKLOmoVdzRMrYDkl9rkpwxqIbW9vI+UpkPUXXuLd+0H8oYVV1Fklo+sghqwh9rmpwjXQAHN4CmT9pRXuw6GFZR0+9w29oJN0HcSwazT73BRpEV9b0BrWTs39o9ZYOLSwrLordXcdxDAu1oc3Ypx/DSrbo0DWTxqPDoMWloHuq7oJFD4mCaa+mnhXiyhLOxTI+gdzVN37QLpHC8toMh/Lx8VOeZPMrluy0g4Fsn7R5OcwaGEZ1z5f/+HEYrTuz2tbqqn2CmBxUSDrF6Xb+0cLJ2naysFD7f7MLqS2BJUCWJyQeFMni1fic93Oj/JLzu8D6QYtnKSN4OD+zC5gUjX77BgpgMVNgaw/kB3tXn/pDi0cB90j7MJV5aPvGBUH++zYKIClQYGsHxbtUdKVT7RwHCx4yS5cVb7SUWNfvUMBrDq0wNFlbTHlGYGsjyvK9AnG4nGd3Wsv3aCF46DPl124qnwtUhvzqvYKYNWg4hju6kZlYnExZCQdzdv9yYxrLWlRgoc/tHA2eLNlF6wOX1uFtNX96ZsCWDUIVrNtB+TrXqtCgSxtWsHDH1o4m+mDZ+gFq2P6wJn8R/LPaRtS+tkxWKUAVh6CQZmJ7Rs/sLnvU+qT8vvs5Fff5peYX3dpDy2cTZWNLyfxObs9pi5FBbDy0DNQpXvb6ionCmRpWndIz7IPtJBpe1FdBET3M7rSZIksnxTAysOLSZ1ripcni+tNomeCHa/ES3PG/KCFDNJG2YVqwmcGT93Fin1RACsHLyRNx5KsrvyPe4Adr8RLXYrdo4WurpZw8pk5hs9ix2CBAlg56A1oq0sbA+9I+nE/I7SYs2lllLoUu0cLXV0FAN+D7RbXsPOxon8KumilWJ1LltJKM32nLsXu0ULX1L7P6QVqCl187md1yVp3DbrF3GOUmdy5X23DvnMWlwlSIEuHuhS7RQtdTVasH8f3W4qlBA90Z1lMMLAErSQfrWfcExa3l0cPSAwJSTKeuhS7RQuHtTnBmfE9wN7lW31ZqJgtjsdYsuPYl94rcHymexyhKZDF76ZXj+eXkl9faY4WDsNbBLswbfHdldP2VIGq0H1lcRzGCrROMZ+LnTsffE7CL+vI+YuD+4Ydr8TBYjZsKmjhMLxFsIvSlhArKVRZSRyVB1KyAWNqk6ACxt9l3WB4o/aZkRkbtE4trPKOycfusYWGFx8FsnjtPGGvlZ8KWljAGBK7IG1Che9+btfQbcSOBctTIRChtdZWdx9+Dn4ePtPiuIsVCO6WKmkk3Vgbs0SCgMUMW5lM27N0hxYW8PbALkib0DrxXVng81BhokJAywnBRc39cPDiwO6N0NAq9LHvXRV4KWprJwnxx+cKRX1DCwtdrNLBhOhiU9AKD9cALXF2T1iBFx1rY5g4bxa6XaUajYV3gxYW2lzwdxxN+O0fPNCxdI2h1W5tLBOBTFu5xAUbCrvXUZqjhYBKhl2ILmhWe7+g+zbGtHFrKfjoFrcwZUTKCTH+3we0EHyv4aZ5U/1gdfyrLIu9BtrKJQ4hxv/7gBaC7zc8i7vvSnvQ/ZVKqwHfw1plpK1c4mBxibPY0ULwne6MisE9BkmDlflfbbKYuagV8O3TuFj7aKHP8bACgqZ7HBI/vHlamv/VJouZi1o42Da9rLePFoZ6o8PyOu6xSLz60DKwmLmI49F6izbpZb19tDDU2AUmHrvHIvHBeFHI9Q9DsJa5mHILOHaaL9YuWtjV1iuT4KFT9k7cME6E5bvY9U2dtZcwVJYKZPZoHcV2jRQgi4ydeF9eO3khP4yZxyRxQKXpa4K8VZiAjGfIPTehIKlG6y3aonUU2zVSgP50duJ90W7HcYp1AnMXkLload4jWsdapsoOLe7QrpECpICyE++TtdRlGU+p3aPQIrU09oHWofV1KvtEwybtGSmwMCE1xB5jUk/fEjiqQMvU0vY7qDgtPN+i5I42jRSESuoYpua2fVqAtjxrL2Vapiq8HcfO55eCXx+pZsb/hE7qGKY5Y3aluAJH1x5851NTXUixr2EZO+3c0Z4Z/xM6qWOY5ozZpAzE+jD1wNJ472w7nEv3lMDWnhn/gyYuO+EhaM6YPVoJojlrCR/KKg1DK3e0Z8b/oInLTngImNuiIGaH3trbg6BhaT5kW6t7oIsZ3aboqgTcM/jZLmSz4s+x8j4yJjEGzn5e6pSF3Y4Z/2NpoB43+/CxSTiWXm5SgorcPdeh1Okmxosmuv0RkJtO8MY4K4Iesif70jK0tuZmrGb8j5U3ImRPDR+XhKGU7O5ZSvgos7oH6ggEm64ncyOxCy9PKS+bpQzFdlz5DR4kdqJ9w9ugpWV7+grXQBmIflha4WO2645uvxBz3nA8mKKQYjLR9MEz+Vfk31vKu/Kbk199S0+0b1o7MTwFMP9QSVuZVoIX2mJoAS1xC8eFY8JYWkrBDK1w93tKdVd+g7csdqJ9wgNTHI+EoQAWjqWEDwQNK63DYUUwS6Gb8aZXj+dfiX9PKe/Kb0KvmYibUtk6YSmA2aCJsJOh5yj2exWtSvd7SXVXfhM6Aw1vV8WxiH8KYLagVwLXxL1OchVaZbFnzuI7uN9LqrnyG/TPspPsA95IdDHDUQCzCdfEYpeeNRgKibV7ES1K9/tINVd+E3KbBnWfhIUXiBSzv1KAyllzJidDsI/xRUxzxZq78ptQq9djMFtjYeFpQVjb1N0+GXoUYtvFeueJL/ND599Hyrnym1Cz5JWRaANeJPqyUkKssAiAut3HQ4sspkC27pCdVVtiNfgFFRg7wT5oczg7tDqHfdZWwrcI40yxjJFpKKW5wS8IJOwEdw0P5PDBSFgYe2HXSWyxNDHaKtRpMQSyRXu05VRTg19C7SNmaet2uUxZinFA1y/WMHSvn1wVw9ZBSKhzj1uqGfyCwUV2gruEt6ThAxEbsE4du15iE1aR1zjZ7JAQw86bFXhpdI9Zqhn8EmIzTCV02ISBcXa9xC6Nk40XcvrQJMgKd49Xqhn8ggwZdoK7pJRhu2JLUxaNk42DAG95HqR7vFLN4JcQQUxZiXahi4pdM7EN4z8vnvhLfgn5de2zUOP+Zag7uJnBL8iQYSe3KxoPs83CjgZSn9K2OatTSLS0WDODX3wHMY2H2YaVD9h1k3hgHEgLCM8UairRJApizQx+8T3wqfEw+ywPhks5GNtUt/1MFltjCmLNDH7xXWHpwbJv+sAZeu0kLhgnUyV5lcXWmBZ4bmbwy3U7P6IntwsaD4sDEgTY9ZO4ICvPvbZ9Z62XQUGsmcEvPlewRxfH8AGITUjXZtdP4oLJ6+617TusdMLOVSgKYs0MfvEZxPAWNHwAYlPIRaGlHehK1CToUdbubS2/18zgF59BTJmJ8YhlJXDhsFu7e03lMktditpTrJnBLz6DGPZEGj4AsUuLAcdN3VSzs7SmooJYM4NffAYx7CA8fABiF97k2TUU+9CVqJUgZmcpS1FBrJnBLz6DmOaIxUNp9vHS2PN4CPDsvIWgINbM4BefQUxru8UDrWZ2DcU+9XhMZqW7XN2+zQx+8RnEdMHioSAWLz1nk1npLte1ambwi88ghtWkhw9A7FIQi5fWTZzMyv2tINbM4BefzWp1J8ZDQSxOWhWnHCuTnhXEmhn84nPOhFYQiIeCWJywjJx7LWWUlaXVFMSaGfziM4gh4234AMQuBbE4zdv9SX75+DWVqxA82PnzTQuiNzP4BTc9O7ld0GTneCiIxUnPWDlWgph2GWhm8IvPTTH1lhiPqX1+N0uVdiiIlWMliGl9y2YGv/gMYje+8nH+kfxgxBafLXRpj4JYOciUZufPN/e4pJrBLz6DmLZiiYfPfeakPQpi5VhI7MDyYO5xSTWDX6YP+lteSOm/8cADxq6h2KYgVo6FFHvM0XWPS6oZ/OJ7RWdl49in/cTipSBWjoXEJQWx5ga/YAFKdoK7okWA7bO0yrdUo3HnciwsO6WFmpsb/OI7S0cbY9pnZSKoVKcu+3IsLACsINbc4Bffb916yOxDlxS7dhIHpW2Ph61YLIz5IqnOPTapZvBLiPEPjYvZhixSdt0kDkfOX8wvI7+2Yqe7fN0hbZnT1JXfsBPcJY2L2YUVBNg1k3gg8869rnKVle7yHcfO54fDj1HKufKbn+/4kJ7krmhczC6Nh8VPGYrjWdlLTFtTNXflN74ntmJcDP3SxeeLHRoPi5+er9nhvOD8sPPmm4ZVmrvyG7SM2Enu0punvso/evSgJCyNh6VBW3xwVtZMBG1e2tyV36zYf5qe5C5pPos9SAhg10rigwWc3esrdha21pJT7bjyGwwwshPdNTWnbdHK9enAOLd7fVNw8eLF7NixY7XtP/JhNvePb2a/WPfaWP9z0z56XtuizUvbceU3oVZ01gC0HVbmzkh7Uuyyf+GFF7LHHnusc/c//Wz2Tx0+D9qWqh1XfhMqrRqVpiZm2qCsxPRgVQr3OsfswoUL2dTUFA06bVu8bEX2r891l7U9te/z/Cvx7ynlzfifUG/hGz84m3/8zAMT/zBGya6PxC2l1pivVljh1j++Q89pGzRXth0z/ifU/lHou1c6cFgnv/qWXhuJXyqtse+//95bK6zw4Lqt2U/+2M3LveaItWPG/4RIsy8o3T4szQ1LWwrP1/79+2mg6dKjS5Zl//5cN3PKNIzSjhn/EyLNvoC5SWqNhWFlHTnpDno7Yq80t27dSgNN136/5XV6TpvQIujtmfE/r528MHKyfZo+cCY/jJkHKN3TWFg/xJwNF6IrsfDwmk2tr/CRWsJNSDP+J/QbORJLMDYzfEzSLXQzsWshaYo1mSBEV+IVU0uyX/+p3XExrN3ofkepZ6Qg9DwhbRLnD7pvfS/8LGHh+Y5xm5ZQXYmFe7a+nv3DFn5O69h4RBnZbRkpsLDbKeYruccl7cPUBnb+JW0Yf8a8UPd+sCpkV2Jh/aZnsptfPU7PZx1KZGvPSAF2GmUn3acUBqFjgDHQ0C1vCSOmQLZ3714aWHw7++VXgy2k2PmsSgv/tmekAH3m7KT7psVL/cA4qLoU+wm9LjFUphs3bqRBxbf33nsvP5zLdWSTl79rnz86+DnSjpECS9sUaCsJP9DqtdCNLP5ZD2RY7Dd0V2Lh6aefzg/p8nFhXLHulkVK6mjXSAFuaHbiQ1C3oj9I8rCy2634ZTmQWelKLJw7dzW7E+esziIBWm6qXbTQ0lu5shX9atpVInHCXEGLgcxKV2Lh7bffzg9r5jEiEa3KPLLD574Z+RlSHy0MuXIHgwdMLTJ/0FWicbL+wTW3tJ6fpa7EwurVq/NDGz1WJMmUXTRAKxO1ixZanACLB0wTof3BWzlWeGDXQtKGLjILFa21rsTC55/PvoXKusNf0HNaQC+X+2+kGVoYam+xSZTo4d+kh1LShB0tQk+KttaVWHjllVfyw+PHDDhvs+0Igl4u9+9LM7QQkAbKLkIoGKdRMzwMvDy0vXacxCHUeqYWuxILq1atyn744Yf8MPmxA+oqnDv3fGqSc/toIViY9DxMCR5hYUxSCwX3E7ry0SL3OS5ttSuxcPz48fww+bEPwxDI8HNjNQs0ZrQQdp74csaNHBoeIvcYxS+8XVpL+hF/0BuC8TJMkHfvjbZZ7UosvPjii/lh8mNndhz7MrvltXKBT6qhhWBtXEzjYXagS0Tdi/2GnhEsW9ZFF7/lrsTCkiVLJnYpur75Xq2wLtDCgpVxMY2H2YNuEq3yIYDuMoz/4OWmaXcZWnkbX36DBg5rPvzww/yQ+fcQf2hhwUrXkcbDbMKLRZ0VCyRtyMzD2qcYAgDsloCeFBcmCePP8XwPZ/PdtWw1DRrWbNu2LX8M+LMRm+GVSGJDCwu40YZvzlA0HmYb+vu1ykdY1zz1Bi2PzU827Mkefdx2V2IBXYpffx33MMfRo0ezJ554Ivvtb387ceqAVbSwgDdtC5UTgql7bGILuoFmmxsj3brhic2DSvX+JSuz66afo38nFr+ZfnYkWFh24MCB/Pbnz4RlCF6PP/74IHgNO3ToUP7H/N9YRQuHtbV/Tl0aD4sHxkNC3y99wyr9h6eWRxvM7lk6PfJ9LEMWpfscWPbpp59my5YtGwlehTlz5mSnT8c1IZsWDgudaq/xsPhgrEPdi91DoGIVawHBDEHuH595n/57a9CVyL6HdRcuXMhve/4sWIHAVHQbTnLXXXdlyBB1f4ZVtHBY6FR7jYfFyZ3kKe2aFMCGLZhaml2/apv5YBZbV2Kh2CzTIiRsrFu3jgarcdDV+P33cSy6TgtdIVOp+zgehu7T0OvWtQUvIey6Sn3/sfp5WplOgmD22ye2Zj/e9Gf6c0OLrSuxsHbt2vxW5/d/KGgdbtiwgQaosvDv3Z9rES10rTsUpiLq23gYAjZS1ouJxFZWE29q3IKoUs0v17zcOHtv0eNLBskgloJZrF2JhS++sNFjhOC1ZcuW7KabbqKBqaoYMhZpoQtdQ+zG61ofxsOQ1Yf5eLPt34VzkMJ6awjGmlPWTBsBbBiC2c1PPDMIIOzzfEE3560rbS8zNcnzzz+fXbrU/XJcs8EY1nPPPTdIzGDBqAnrGYu0kAnRpZjieBiCFnZPRhZf2aWb0IrB2KT7s2KETRe14WZ1bQewYfi5CCK+g9lP17+bzVm+fhBM2XHFZvHixYNsRWQAuvd9VzBu1VXwKljPWKSFzMYjZ+mN2KWYty1AFxq6B7FaAYIxNphsst4g/m0q42RYDV0bbpaHicw+JgDjM+Yuf2oQXNhxtOXf1uyMZlWOOhYsWJCtWLEie+edd/LbnT8DTSF4oavvjjvuoIGnbZYzFmkhEyJL0efWD1UghZwdb9cwRohFV93jiZVS8SdDAAvRUmk7mGH8DUklSPtnn5cydDW2mYb/9ttvewtew6xmLNLC2dz06nF6g3YBLQ/3860I3YpIqZsV460Y92Pfs+9CBbBhdyxf22hJq5+v2zUIiD5akpYtXLgwe+aZZ7LDhw/ntz1/FiZB8EKLiAUYXyxmLNLC2WAsh92oXUCgcD/fArQOLbQeMKaW0gZ7aJU16W5NDVpBlsaK5i/7Q+lghkQNzGO7d+kq+rP66tFHH81uuOGG7L777st2795duntu//792UMPPUSDSgjWMhZp4WxQgbObtguhtkWfBIvdsuMNAQkfaMm4xxgr3F8PvvMp/a59ggBmtdsNY1m/WPfarMeNbEfMR2P/tu8QvIaDARIm0LKZLWkC6xtaCl7DLGUs0sJxfHWlWU3qsNb1hdZLSuNk0OcMRssBbBgmJhfBDJmT6HZkf0+uuuWWW2hAAKxnuGfPnvz2n31xXkssZSzSwnEQXNwHrwsWWxg+W6JVYa6Ze7wxQ1cpWuPsu6YqlgA2TK2uch555BEaDFxdpsq3zUrGIi0cB5NWu35LtprUYakrkUllYvSwvqz2gew9bKXCKkCJX4hsQh8sZCzSwkmmD3b7hmx1pY4YsujwgpHKfLJhmG+Xajq+AljaFi1alP3ud7+jQSAFoTMWaeEkXc8Zs9g1Zrkr0YXKHpmk7neIXYrp+Apg6bvnnnto5Z+SkBmLtLCMLhM8LCYqoCXAjtWy1NLwCxiXvfZPR+l3bgNeAhAscY9jTp4L5fhzaDotAMsusYpP0nHzzTfTij81oTIWaWEZXSZ4YH1B9/NCi3VvLFT2Fs9nUxibRUBpo4sR5wit/7rnqVgPE8Gt6vFg7hWr+CQNDz74IK3wUxQqY5EWltFVggcqAfezQgu9MWhTOKdISnG/VwrQzYsWJ/ve4yBZBEGwiyxYjEkiKJZtpWEiMasAJX633347rfBTFaJbkRaW1UWCB1o87ueEZj0rsSxMJE6xexGw2HKZnRZwf/lKfMGLHlpok1721BpLExI6WEWfKmRghshUpIVl4S24je6cYRaTOuq86VuFFkiK3YsFBA3WAkIgCTXWimCGZbXGjeOpNZaeO++8k1b2qdq+fXt+u/NnoEu0sAoEHfZQ1mWx26vp4L01ePFApep+z1SgtTm177Mr3xWTpq20QHF/sxc/tcbSgnUSb7zxRlrZpwg7Sbe5Un8VtLCKtseL0C3kfkZI6Hpix5kC7LSMVoL7nVOBFqfFzUQxDse6PtUaS8cDDzxAK/tUbdmyJb+1+f3eNVpYVZvdbeiidH9+SBj8Z8eZitQWEY4FXh7cXgy1xtIR0/JRTYVshQEtrApvvMMPY13oZnF/dmipTa5lUu9etAyLHQ93V6s1Fr+y6ySmYvXq1fmtzO9vH2hhHW1MfkYXi/tzQ8I4Chu/SBWuobWWcB+gy7NI+sAiwH3fQDJ28+fPp5V9qj799NP8Nub3tg+0sI42Jj+jW9L9uSH5WrHfErQK1CrzD70ZRYvs1pUbaeUo9iGhI+V1El1PPPFEfvvye9oXWlhXmXk641jbCLPtzMuYqFXmXxHIfrJhj1pjkbr33ntpZZ+q0K0woIV1NW25WEuv78MWIOOoVeYfxsjQha3WWJzGbXyZmoULF+a3LL+PfaKFTTRJhLCUXh/7UlNtUqvMLwSyf9mk1lhsHn74YVrZp2r//v357crvYZ9oYRNNMhUtVZRY3YEdY1+pVeYXutbVGovL3LlzaWWfooceeii/Tfm96xstbKrOvDFr6fV9Hg8bR60yPzCP7Nqtf1ZrLBKpb3zpstIKA1rYVJ3WGMaf3J8TUh/mh9WlVpkfWAfyt09spZWm2HL33XfTyj5FWOjXvVdDooVtqNoas5ZeX6Q7y+x8rgjfV/+188NswdRSWnGKHVi1glX4KQq5izNDC9uALqcqE4UtrV6PZZjYMQqHNRjVxdgNZPxev2obrTjFhj6tkxhqu5VxaGFbqowrWUqvV1JHdWi5bvzgbH76+DmV+m5/9ZhaY4b1aeNLa60woIVtwbJNZXd/Rlqx++9DUVJHfRjbtHQtU4AxZrXGbMJcKVbZpwhdptZaYUAL27TzRLldkfGguv82FCV1NIcxTovboMTqppeOqjVmUJ82vgy53co4tLBtN716nFZ0wyxVeErqaAfGRLGVTcp7lvmC7na1xmzp08aXobdbGYcWtq1Myr2Vik5JHe1DlzISFNxzLeXh+fjJlgPZg1MraIUq/t1///20wk+R1VYY0MIuTO37nFZwYGmis5I6uoNuWkvdxrFBF+2/rdlJK1Tx79Zbb6UVforOnTuX34L8vgyNFnYBKdizJXlgLyX374eC5X7YMUp7NF5WDyY/4/zdv2QlrVTFnz5tfGlhu5VxaGFXiofQZWkzzKqTtKU+zS+rpuiWV2ssvHnz5tEKP0UWtlsZhxZ2iSV5oJvJ/XuhNN0TTapBVzKmNGA6hnstZFSRdKTWWDh92vjSeisMaGGXkDjhruTx4Dt2In2VVUakPaickcmoYDYZlvpa/sKbtIKV7t1zzz20wk/R0aN2hnpmQwu7tvHI2RkV2NS+z/Ji/nd90h5i4WHcFN3OSsufbM2aNbSSlW71ZePLu+66K7/N+L1nCS3sGiqo4W47vIG7fycErDQxXKFKOEj20Ur54+3du5dWstId7KPFKvxUnT5tZ03b2dBCHzBIXXTd4c3b/fMQZks8kXCstNIt2rx5M61opTt9WicRLM8PK9BCX9Yd+mJQUVl549aaifYgg9G9TpL9CKsnTE1pw0yf+rbxJcyZM8fkeonDaKEv6Fa0tGAsdi1mFamEoyDGvfTSS7Sile70aePLYRZXrh9GC306fO6b7MDZb/Lf8j/3CeMwrCKVcBTERuHNeMUKLT/lW1/WSXRhHNC9By2hhb7tMdISY5WohKUgNmr//v20kpWZlvxhQ7Z0bW712mz15mezbS++mr306quDcZ7C8uXL6b919WnjS8Zyqj0tDOHjwGvqKb3eJgWxUWvXrqUVbZ9N/2Fdtu2l17KjH3+cXbpUrS5By/b48ePZnj17su3bt9Off9ttt9HKvS8sT3qmhSFc+PaHoHODMIGUVaISloLYTKdOnaKVbB8h4CDwfPVV/R0Svv1hdHI9gtr777+f/elPf8pWrVqVLViwgFbsfdL7rVjKCrkorOaI2YS1LN1r1WeztRT6Yv369dmBAwdayZi7RAIYc+LEiWzdunW0cu+T5557Lj8d/ByFRAtDCrXsENL8WSUqYSF71b1WfdXntPrp6ens8OH2tmz629+r9/pgOxJ0q7EKvg/uuOMOk+n2tLCPsGoIq0QlPC1Bddkbb7xBK/iUoTvv7bffzr8+PychYFX3ZcuW0Yo+dei+dc9HaLQwtG8DVFpYGYJVoBIeFo12r1cfoRXAKvoUIWvw9ddfzy5evJh/dX4+6rpcvfA/qwIZewsXLqSVfarwfd3zEBottODbH/wGMu0jZtebp+oP3Kfi4MGDtLJPEboOP/usm+XGvm/5BRnda30bL7O2vxgttKLtG24c7GnGKlAJb+MHZ/NLxK9bX/RlncRNmzZ10vqCHzqsT7CqBavwU7Rhw4b8K/PzEAIttOSHGgOwdWi1DrssbZoawpkzZ2iFn5oXXngh/7r8HDTlox5B9yLWGmQVf0qspdvTwj7SZpi2hZx+ERoqd1bpp2LJkiWdJwz4ehnG1iX33XcfrfxTYmk9RVpojY9uRVZxih1W9pzzDWMuS5cupZV/ChDAul7SqOx8sLagOzT1fccsbZhJCy3q+kZkFafYge5e95r1wbvvvksr/1R03QL76rsf8v/wP+sS5pSl3rW4e/fu/Kvy7+8TLbSqq0B2/tL3tOIUW/Z/8XV+ufg1TBHGwtasWUMr/xS8/PLL+dfk370Nfw0UwApoYWL8iAWAVGACNBI9Qi4QTAst66JvW4v/xqEP6yhiwByTmlMOXoAsxC5Xf/jLt2EDWAGtFVb5pyhUQKOF1rUdyBTE4oDkG7Sa3esXO4yh7N27N9u4cSOt8FODeWBdpdEDemx8Ts+ZBBU7q/RT5jOg0cK+6csK9v971Z9opVLWf67fRX+uT1hZxb1+scK+YFu3bu3VeohI5Pjii+6SdC5+byuAAVqcjz/+OK3s+6AIaF1NkqaFMWizNYaxFlZhpmbegsdpxVLWfWs205/r27HAe881cezYscEWIilnHI7z6quv5qeBn5umELwQxNxyC1CBswq+b5DViM1I2wxotDAWbQWyPgSx/7H6lWzx4sW0Yiltakn2v/7If75PN77ycX7Z+LW0CAkamOvVp7UPGXz/rsbBEMAufW+rBebq8wr4TFsBjRbGpI0VzrE2H6ssU/LrqadoxVLVTRteoT/fN+vzxs6fP5/t2rVrMP7DzmMfvfXWW/mp4eerqS+/tT9WionQqWcr1tUkoNHC2HzTsAuhD3uJ3bWgYSvs/3t4en32D1v4Z/iGsUz3WoaEZAXM68LGjezc9VmXrTDsCu+WWYWKmlXichUCGjbgRNB3zx9DC2N0scEcstSDWCtdiYWpJdm/bv0z/RzfMAE69HJUqJiRoNGXBXrr6qoVFlu2KqZQqDVWHpbwmhTQaGGs6s7OTz2ItdWVWLh9/U76OSGECmQffPDBIEGjrzstV4GtStzz14YvL8XTAhum1lg9CGhsg9QZ/5OCOoEs9SDWVldiYcGqtYM5W+yzQrhu50fZ1991n5V26tSpwVvhihUr6HkR7s0338xPHz+ndcUawACtMVZJSznobhwOZiMnOAVVK7SUg1irXYlD/mPrPvp5oVz/0rFOAhkyC7Fid98zC5tAkot7Xps4ezH+Ce992xG6C8W5HDm5qaiS7JFyEGu7K7Ew7+nn6eeFhH3H2shWHYYuQ/b9pZwnVq9pNQEnhQAGaNGzilnKK87lyMlNydclA1nKQaztrsTCohXT2U+3HaGfGRICWZuD/Qpizdz85FZ6nQpoQeOalXHw7Df5JeHXKTaa/NxccS5HTm5qygSyVINYV12Jhf/c+i793NB+tv1Ihrl/7nWuQ0GsmX996nV6jaraeeLL/HLwaxQrjO2wylnKKc7jyIlN0aQuplSDWFddiYV71z9nZs4Yg1Xvm46TKYjVt2Dpisb3BxKI3jv91/xS8OsTM2UpNlOcx5ETm6pvf5g9kKUaxO58hFcubVm8bEV2zbMf0M+2ApmLTcZkFMTqu33lBnpNyvr5jg+jXidzEqzwzipnKac4jyMnNmXf//3vdIXrrtdO/Mdn3qflXfrx2jeyRYsW0cqlTTdtfZt+fpd+Mv1K9j+XbKF/Nhusfl9nPpmCWH2/+sML9FqUgbGy0BPZu4aJ8qxylnKK8zhyYvvAzVzsMojd8Oh0tmjp8uyG1c9mP958gP6dLvzfJU/TiqVtD6zdmv2TpzljP1uxI/vV3Luv3MT4f/b3xrnnrZOVWmYKYvX9n5rjYfN2f+Jl3p8F2KZkuGKW8opzOHJS+2J4vbWughgC2PBD/eiSZdmt01uznzzT/bJNXXclFvCdfvFst1mKP33ypey6O+4buYn/64YbBy1O9m8mwUr4r528cOUemI2CWH3/XOM+X7Tns9anSVi2bNmykftayinO4chJ7ZNidY8uNsW8funsi8B2Hcx8dSUWbn/mNXocTSF4/d/5D9IbuPCbOb/P/nFj/YnXyGRE62zjB2dpC01BrJ6F+T3Ozvc4G4+cHTn/qevjrs9tKc7hyEntG3RbYAIle6jq+tWS9dmjjz5KH+5hCGZzntyS/cumvfTn1OWrK7Hw0B82Z/+jxTlj/7xmV/Yfdz1Cb1wGf5f9nDqQDYc5SdjqBaY3bqHfWcZ7eGo5Pb8MznmZVnGKNOm5vuIcjpzUPkLmIiou9oBVdd3STaUC2AxTS7K5T25uHMx+ueq5bN7jK/lndOzexUuya1dszf5hU/0kFgSvf797Eb1hJ/nXBdP0ZzY1d3m30xRSde+yctcDLWF057vPZF8oiNVXnMORk9pX6Ief2vc5fdDK+uXK7dUD2LAawQxdab9ZsTl74LEl/Gd69uCCxdlvlzyV/dO68lmL+Lt1g9ewOokekyiI1XPP0slB7Nrnj2Ynv/o2f/z4M9kHu3fvpveyTFacw5GT2nfo1qizQvsvVm5rdXWM+as2ZNdsfI9+Fvxs7evZrUvXZgsf5f8+NIzJ/fbhpdlPV86+xiKC17X3L6E3aB3X33hL7USP2SiI1TMpiN306vHeZCCOg9XY2b0skxXncOSkSvYjvB1ikix7+JifT7/Y2fJObjBDl+Gdjy2nf9cStEhvvPHGwc3269vmZ9dMbbrS1fjfn34v+8UDy0duyjbgs5okergUxOoZF8SQSNOnDMRx1J1YX3EOR06qXIaHDOm+7CEcds2TO720hu5c+XT20KOP0z+z6IEHHhi56dBSQrchUuPdP2sTPoNdqzoUxOq5f8Uaej6nD57JHy/+zPWRshPrK87hyEmVmXYcOz9r9+I1a17JFixuMAaWsDlz5tAbz5efL+SVaFUKYvU8smTFjPOIno3D59JZhb4t2KeO3b8yWXEOR06qjML6bW734r+s250tiKhl5NMjj5RPj+9SG4keCmL1YF3N4hz2bQJzFQ899BC9d2Wy4hyOnFThMAg93L3466Ub6MMrj2Xz58+nN51vbSR6KIjVd+32g8muQN8WLTtVX3EOR06qjId9qjC3BckJDy/0typGLJDQ8bvf/Y7edCE0nT+mIFbfsRMn80eGP0dyGbtnpZziHI6cVJkMOwdjkdLrH19LH94+u+eee+gNFwISSPCywYJTWQpi9b3//vv548KfIcl+dO7cOXrfSjnFeRw5sVLe9kOfqDXmuOWWW+gNFwLmoLHAVIWCWH0vvfRS/pjwZ0eyH+3Zs4fet1JOcR5HTqxUs3mbFogtPPzww/RmCwXLWLHAVIWCWH2rVq3KHxH+3Ej2o3Xr1tH7VsopzuPIiZVqLly44HXFeMvmzp1Lb7YQ2porpiDWzKlTp/LHhD87fYYNMUNPQ4ldcS5HTq5Ut2PHDvoA9wkCuaWEjjZaYaAg1szLL7+cPyL8uemzo0eP0vtWyivO5cjJlerUGnssu/vuqzsuh9bm1iwKYs2gy8x9XkQrdTRx0003zbivRk6u1IPVqNlD3BfFOokWtLmavYJYc1999VX+iPDnpq/uuusueu/K7LC6CZJh0BU7fC5nnFipDyd26dKl9CFOHVsnMZRfzb2bBqO6fjP97GCDR/a9pZz9+/fnjwh/bvro+PHj9N6VUY8//niGBsLFi6O7rhdoodSza9cu+hCn7rbbbqM3YAhd7CkG1zz1RnbDE5uzB6dW0HMgs3vqqafyx4M/M32krsTx7rvvvuyVV17JMI/OPXcMLZR60BrDmwN7kFO1YMECeiOG0HYrbDb/8vRbCmgVHTlyJH9E+HPTJ59++im9d/sO3avbt2/PTp8+nZ8mfu5mQwulvr61xqyskwjXPLqeBp0uKaCVg/EMdyyjj7Rq/VVYNxKtUnSvuuepCloo9fWpNYZ1Em+44QZ6g/r2n7fcdmXTzVAU0MZ755138keEPzd9cOjQIXrv9kmRWdjmOCktlGb60hq799576Y0aQohW2DgKaKOwgkefMxX7vO3KbJmFbaCF0kxfWmNW1km00AobRwHtKgzYu89LH/RxncQymYVtoIXS3IEDB+hDnApL6yQ23W7Fp74HtCVLltQavI8ZFkPoy75hVTML20ALpR1PPvkkfZBTYGmdxLaWmPKtrwFt9erV2aVLl/JHhD83KSl6Zdh9m4ommYVtoIXSjhUr0qycrK2T+POFa2iQiEnfAtrmzZt7ka24ZcsWes+mAC8jTTML20ALpTlsCIjsPfYAx87SxpdgfUysqr4EtNdeey1/VPjzk4K3336b3q8pQJahlZcQWijNYf4De3BTgBuY3dghdbVSR2jzl/2BXoNUHDx4MH9c+DMUM7RQLD4nbUEL0/3OodBCaQZ9w9ZXtcd6gHOWrx+88f9i3WsDP13/7qBFU/z/f6z8Y3b9ik3ZnY8tzxYvXjz4d5bWSRx23R330SAQu1+ueXnk2qUEiR6fffZZ/tjwZylGSGpIPZEDK4+43zsUWijNWN1fDIELQQvrALIKc5z//vR72S9Xbs+uv/9RelNbEGuCxySpdysikKWyLBVaYKkHMCSquN87JFoo9aGfmD2oISF4XTf9HK0g60CwwM7J7AYP6RcPLKfHG7vrV22j1zU1r7/+ev4I8ecqBpgLlnIXYsHargS0UOqztFoHtoZ54403si/+ejHbcex8Nm/3J7SSrOunT7406MZjN3oI/3XDjdk/btxHjzVGP9t+JHvwnU+zF459kU1NTdFrnBr0YsSYfp9yFuIwtDLd7x4aLZT6Vq5cSR9O36anp7MzZ87khzTz+L7+7m/ZzhNfDirHH289TCvPKgZjaHkLiN3wIVhbfqqq63Z+lK3Yfzrb/8XXM67dCy+8QK9zitauXet1smwTWI0i9Xlgw3bu3Jl/bX4uQqGFUs9HH31kIq0ec3DKLPXy3d/+nr156qtsat/ng8qTVaplXTO1adASYje+T7++bT49PqvwInHPWycHLeXT33yXXxZ+rU6dOkWvdaqWL1+e7d271/RcMnQf9mUlDkBXKVYfcc9DaLRQ6nn66afpA+kTZs67x1UWKlG00hbt+Sz7+Y4PaaU7zk9XPm8ikOE42PFZUbS23jv91/y082vBrF+/nl7zlGFCrbU0/KNHj2Z9XMwX18I9FxbQQqnuxIkTgw0i2YPoC7ph2nxzPfnVt4MWAloKGJ9hFbIL3XnsAfDpN3N+P1jF48drq2dhduH6l44NXgwmtbYmQWXOrnsf4AXx448/zk8DPzc+IK182bJl9J7rAwurczC0UMpBv/3LL7882GaAPXg+4Ri6buojqL128kI2ffBMdtuuE7OOqVkaI0P3os+AhlYWxhu3Hj03Mq7VFF5QUl3KrCzsRYV9udxz0yVU3miFsPurL9DydM+LFbRQZodAgc391qxZQx+yUD755JP88Pgxd4kFNiR7/Gru3fRhCAkttF88/ERr88muff7oIGBtPHJ2ELAwxuien7b1bedwV7H9D8ZnEFiwtFPbW33gZQFp5AiYfRrzGgfn2T1PVtBCmQk3NQZxN23aZHI9xK1bt+aHyY89BFTmO97cSx8GK8oGNHQFIjgj+WXdoS8GARsBC1me7vf2AS9RfUm3dz3yyCP0WgIyBLEFCMar3HNWBroKUVGjR6MPc72qQCC3nGBDC+Uy7Am2bZvtiaao0CxmDAEqBPZQWPO72+/I7n1iXbZy14FBskXIIFUGXlrYvZC6Kq0i/F0ENkCy03PPPTcDxrbwZ9j/iv17ucrSOokMLewzJGg8++yzgxRf9iBZg/lD7newAm+37KGwDHsj4aG1vHEjuo7ZvZAya9v/9In1OXu0sG9QYSFBw8pE5SrOnz+ffwX+vSyIeSLowoULTS10OszamGzXrG3/0xfoTXHvPWtoYZ/EvPsyUurd72MNxinYwxELqwPamAjM7olUaZwqDN+ZoHXQwj7B2zZ7aGKAAOF+H2vQFcEejlhYDWJ9Sre3uv1P6tC17t53FtHCPok5iGEpIvf7WBTz6gaWU4v7sp7i7bffTq+NdM9qd/owWtgnsQYxvIW738UqZIexByQGloMYdihg90ZKkNDBrov4gTFt976zhhb2SaxBDAP77nexKuZxMXUnhnXnnXfS6yL+WNs/zEUL+yTWILZx48b88Pl3sgYTxdnDEQOrQawP6yhiYYEbbwy/oHTfYWxMk50NizWINVmt3jesosAejhhYDWJ9SLG///776TUR/ywnkdHCPok1iMWQmViIOUPRYhDry2r2t956K70m4p/VvcSAFvZJrEHM8kodrhhX7ihYDGJ9aIWNWydRwtiwYUN++/F7MiRa2CexBjFri/6OgwmT7KGIgbUg1pdW2Lx58+j1kLAsptzTwj6JNYhhk0D3u1iFQMAeiBhYC2J9aIUtXrxY6yQaZTHlnhb2SaxBLIY1zQpYNZw9EDGwFMT60grTOom2WUu5p4V9EmsQW7JkSeubAXYl5l1xLQWx9evX03shNcXGl2KTtZR7WtgnsQYxsD4JEXCzz5kzhz4MMbASxLDEGLsHUhPzEmV9Yik7mhb2ScxBbMeOHflX4N/LipiTOsBKENu8eTO9B1KjdRLjYCnlnhb2ScxBDBt3Wp5JD0jLZQ+BZdgVGMdtJROrL60wbXwZFysp97SwT1BBvPPOO4PdfNmDZd3hw4fzr8G/W2gIsFW2lA8JXZ7r1q0zuX9SX1phGGth10bssvCiRwv7CpXun//856gCGipe93tYEcPCv0g6wdqOVlu0fWmFaZ3EOFlIuaeFEldAQ+q1e/yhIXPSaisMDx7GumLI7uxLK0wbX8YrdIIZLZSZrAe0VatWmWtJ4FyxGz6U++67b5BRhXUc3WO16syZM/R6pyjmDNa+C51yTwtldrhYBw4cyLZt25ZNTU3RBzKEl19+OT88fsy+YdV6ZC+xG94nPFxY7f/06dP5YfFjtawvOzcvWLCAXj+JR8iUe1oo5VkKaBbmjaGlE7obcdmyZdnx48fzw+HHGAOkL1t6SerS/Pnz6XWUeIRMuaeFUh1aaHijZA+pL1jF4+TJk/nh8GPsGs6BhcmqFhcpraovrTAkdNxwww30OkpcQqXc00KpB5OP2YPqE+aOffLJJ/nh8GPsCpIkkDDBbm6fLC5QWlWfWmH33nsvvY4SpxAvkLRQ6sHYCyZssofVt3fffTc/JH6cbcONa2WOTwxLcU3Sl1YYaJ3EtIR4iaSFUh/mbbGHNQSsHn/p0qX8sPixtgGp6haSOABjcdayNKvqUyvs4YcfptdR4ub7RZIWSn3vv//+oJ+fPbQhoHvxvffea71yRwYiluxiN3EoCNruccamT62wuXPn0usocfOdck8LpZmlS5fShzak6enpbO/evY1vLmT9YS8zdvOGZGlB0rpwbSzeO13QOolp85lyTwulmddff50+uKFhs0FU9ghC6AYsW+ljPUFkHlle2y6mTUJn88Ybb9DrlqK7776bXkdJg8+XSloozeDiWUnwGHbzzTfTGw6DsYDxPEwOLv4/lsV7IfZ5YWiFrVixgl63FFkZR5Xu+Eq5p4XSHIIBe3hDefDBB+mNlgLMTXPPf2z61ArTOon94SPlnhZKc7h4ixcvpg9xCClvNrh79+78lPPrEIO+tcK08WV/YPUc935vGy2Udqxdu5Y+xL6ha5PdYKmIvSsRc/rYdUuRtYxW6Q66jH3sz0cLpTlLmWZ33nknvclSEWKCZZuw2smaNWvotUuN1knsB18BDGihNIcuLvYQ+9aXzQZjX6mjD4FMG1/2g88ABrRQmkErDK0D9iD7dv/999MbLTUprNaReiDDnm7s2kk6fAcwoIXSzK5du+hDHMKtt95Kb7YUpbBiR2yBDEtkYZWRY8eODc7/uCWztE5iORg3xDzOPXv2mNgVoqwQAQxoodRnqRX2yCOP0JstVXiIYl+1A2IJZJhGcv78+fyQZx47ElWw2/jw3+3bvVgV7l3M02Qp6VjiDXUK+3dWhApgQAulPkutsHnz5tEbLmUprNwBlgMZC17Mhx9+mG3dunXwb/p4L5aBVXB27tyZ4Xq758+FAGd1ybdQAQxoodRjqRWGOWp9XZsOb67utYmRtUC2efPm7NSpU/mh8eOdDQLes88+m82ZM4derz7C/Km6yUjYPR2tNvZzfQsdwIAWSj2WWmFYJ5HddH2QwgoeBQuBrG7wcuElD2M9MY3ztAlBHEsxIQi556YOdJ1v2bJlEEjY53XNQgADWij1WGmFwWzrJPZF7Kt4DAsVyNavXz9I2HCPpw2YoG6lNdE1ZGXifuwqexb3B5JqfLZ0rQQwoIVS3YEDB2hFEELK6ySWhZT7MuMMsfAZyLoMXi60JjAmFNNi02WtXr3aa9c2giS2QOn6XFoKYEALpTo3GyskrU13Gbpa3OsUs64DGX72wYMH84/in9+12FLKGVTwSHwJnSWLbtsutk6yFsCAFko1lnZzTn2dxCrwwPlYRdunLgJZ6OA1DC0Xdi1jgdaX+51CQvJIW+tVWgxgQAulGksrkKe+TmJVPlbR9q2tQIZ0bez27f780CxvvjoJWpPu97EALwd4Ftgxl2E1gAEtlPIstcK0Nh0X+7qKTJNAZjV4FdAdx66jdajou0reaAt6JtBaZMc/G8sBDGihlGepFdaXdRKrwpu99cqljqqBDPcqNt+0fi5Onz5Nr6N11roSxynmmiFAse9SsB7AgBZKOZZaYdCndRKrQgace/1SUCaQxRK8hsW4WLDVrsRxirlmLD0/hgAGtFDKsdQK09p04+GBTGFdRWa2QIb97JByjT93/411eOlg19Eq3F8xt/Zxj2CuWZGeH0sAA1ook6FCtDS5WWvTjYdB7RS7FAvDgSzm4FVAdxe7jlbF1JU4Dp4R3DuxBDCghVIOluIZt/WEL31eJ7GM1ANYAUEL3YYxB69hbaWG+xBjV2IqaKGU5zOQbdq0aZBZ5pbHtk4ivoOvFRr6EsBShKWa2DW1JvauxNjRQqmm60CGLKKPP/44/6jLn4clgbZt23blz2NYJxFBy13JoKtVBQoKYHHDvYIAwa6tJal0JcaKFkp1XQQyBK/Dhw/nP55/Jra4ePHFF02vO1fsUjsumGAeV9vLDSmApQHXkV1fS9SVGBYtlHraCmRPPvnk2ODlQmVtbYsLBGCsVO4e6zht7WCrAJYO3NfsGluB1HTda2HRQqmvSSBD8Nq3b1/+Y/jPLiPkFhdoESI1umkqe5MdbBXA0oJrablLEc+ae8ziFy2UZqoGMlTYTYOXy/dCqhjbco+hKazcUCUgK4ClqeoyST7FlIqeKloozZUJZAheb731VmcVr8+FVJG04X5+WzBnaNIOtgpg6UKgYNc8NHUl2kALpR2zBbLly5d3GrwKPhdSrTr+VQe6KdkOtgpgacO19blrcVnqSrSBFkp7hgMZKttdu3Z5m4yKsSX28LWti67EcXD+ih1sFcD6YcOGDfTeC0ldiTbQQmkXAtm7774bpLL1sZBql12J4+B8KoD1g7XNMtWVaActlHSg+409hG3y0ZUo4nOMdxJ1JdpBCyUdXS+kii499zNFumBps0x1JdpBCyUtXS6kirEK9/NEuuBrjHcSdSXaQgslLV0upIqxCvfzRLpiYbNMdSXaQgslLUhNZw9jU+pKFN98jPFOoq5EW2ihpAep6OyBbEJdieJb6M0y9eJmDy2U9HSxkKq6EiWEkJtl6sXNHloo6cFAdJsLqeqNVEIJuVmmXtzsoYWSpjYXUtUbqYTS1RjvJHpxs4kWSpqw+SR7OOvQG6mE1MUY7yR6cbOJFkqa0KXYxkKqeiOV0EJslqkXN5tooaSryv5cs9EbqYTW9hjvJPgsTXC2iRZKuvA2yR7SKtAt6f5cEd98bpaJ7kv388UGWihpQ3cge1DLwlwd92eK+IaFpzH52Qd1JdpFC0VERGJAC0VEROzLfvT/ACz8FsNBnMwXAAAAAElFTkSuQmCC;strokeColor=none;shadow=1;spacingTop=-2;spacingBottom=-2;spacingLeft=-2;spacingRight=-2;points=[];labelBackgroundColor=none;rounded=0;html=1;whiteSpace=wrap;" vertex="1" parent="D-f0g4XA8TNqZnRXPo1R-8">
            <mxGeometry x="14" y="14.169999999999959" width="50" height="50" as="geometry" />
          </mxCell>
        </UserObject>
        <mxCell id="D-f0g4XA8TNqZnRXPo1R-16" style="edgeStyle=orthogonalEdgeStyle;rounded=1;orthogonalLoop=1;jettySize=auto;html=1;fontFamily=Helvetica;fontSize=12;fontColor=default;endArrow=classic;endFill=1;startArrow=none;startFill=0;startSize=10;endSize=6;jumpStyle=arc;" edge="1" parent="1" source="D-f0g4XA8TNqZnRXPo1R-15" target="D-f0g4XA8TNqZnRXPo1R-3">
          <mxGeometry relative="1" as="geometry">
            <mxPoint x="520" y="979.1700000000001" as="targetPoint" />
            <Array as="points">
              <mxPoint x="600" y="972" />
              <mxPoint x="600" y="900" />
            </Array>
          </mxGeometry>
        </mxCell>
        <mxCell id="D-f0g4XA8TNqZnRXPo1R-17" style="edgeStyle=orthogonalEdgeStyle;orthogonalLoop=1;jettySize=auto;html=1;fontFamily=Helvetica;fontSize=12;fontColor=default;startArrow=none;startFill=0;endArrow=classic;endFill=1;sourcePerimeterSpacing=0;startSize=4;endSize=6;rounded=1;jumpStyle=arc;" edge="1" parent="1" source="D-f0g4XA8TNqZnRXPo1R-9" target="D-f0g4XA8TNqZnRXPo1R-7">
          <mxGeometry relative="1" as="geometry">
            <mxPoint x="390" y="930" as="sourcePoint" />
            <Array as="points">
              <mxPoint x="450" y="890" />
            </Array>
          </mxGeometry>
        </mxCell>
        <mxCell id="D-f0g4XA8TNqZnRXPo1R-18" style="edgeStyle=orthogonalEdgeStyle;rounded=1;orthogonalLoop=1;jettySize=auto;html=1;fontFamily=Helvetica;fontSize=12;fontColor=default;endArrow=classic;endFill=1;endSize=6;startArrow=none;startFill=0;startSize=10;" edge="1" parent="1" source="D-f0g4XA8TNqZnRXPo1R-20" target="D-f0g4XA8TNqZnRXPo1R-3">
          <mxGeometry relative="1" as="geometry">
            <Array as="points">
              <mxPoint x="710" y="901" />
            </Array>
          </mxGeometry>
        </mxCell>
        <mxCell id="D-f0g4XA8TNqZnRXPo1R-19" style="edgeStyle=orthogonalEdgeStyle;rounded=1;orthogonalLoop=1;jettySize=auto;html=1;fontFamily=Helvetica;fontSize=12;fontColor=default;endArrow=classic;endFill=1;endSize=6;jumpStyle=arc;" edge="1" parent="1" source="D-f0g4XA8TNqZnRXPo1R-20" target="D-f0g4XA8TNqZnRXPo1R-21">
          <mxGeometry relative="1" as="geometry">
            <Array as="points">
              <mxPoint x="600" y="1095" />
              <mxPoint x="600" y="1140" />
              <mxPoint x="420" y="1140" />
              <mxPoint x="420" y="1010" />
            </Array>
          </mxGeometry>
        </mxCell>
        <UserObject label="&lt;div style=&quot;&quot;&gt;&lt;font style=&quot;font-family: &amp;quot;Segoe UI&amp;quot;; color: rgb(0, 120, 215); direction: ltr; letter-spacing: 0px; line-height: 120%; opacity: 1; font-size: 12px;&quot;&gt;Front Web App Service&lt;/font&gt;&lt;/div&gt;" tags="Arrière-plan" id="D-f0g4XA8TNqZnRXPo1R-20">
          <mxCell style="verticalAlign=top;align=center;vsdxID=111;fillColor=none;gradientColor=none;image;aspect=fixed;image=data:image/png,iVBORw0KGgoAAAANSUhEUgAAAbEAAAGxCAYAAADs0IixAAAAAXNSR0IArs4c6QAAAARnQU1BAACxjwv8YQUAAAAJcEhZcwAADsMAAA7DAcdvqGQAAC0vSURBVHhe7Z3PimTLda/1CP0I9Qj1CP0INfWs4c5FTS542OCxaM/usEBjQ09sYw9EYU88OFzKXNAF23BaIGSLc4XaRlgYIXPu+lXF7pO1OzJz5874s1bE98E36c7M2n8iYu2IWBH7RwAAAAAAAAAAAAAAAAAAAAAAAOH4k7/8p7cr3x/xo/m40Q9m7jfemYd/6yYdBgAAwAsWHN4cBIolgBwGoe8d+tlcB8F7U+dwm04NAABGwBr2m9TAq6FXg6/G/8nMBYhRXAKdAvKXnl26JAAA4A1rpJdelYLVg+m1J9XbT6auDcENAKAH1vAuAWsZ/lPDnGuwcbvqnSr4Pw9NpksNAADXYo3qbWpc1cgSsNqpwKZ5N/XYSC4BANiCNZhLL0vDXprfyTWw2F49QKjnqwcKkkgAAIQaxNQwqoHMNZ7oUwU19Y7pqQHAPFiDpzmtu9QAMjw4jsvw41261QAAY2ANm1Ld1dsia3AONQysnrV6aW9SMQAA8M/333//xnxnfvw//+8/1ZCNvi4Lz6syoIcYhh0BwB+Hgct8xf/6x3/LNWo4rwQ0APCBxag78+E5Wp3gz/7hl7nGDFEBjSFHAGiHxaRb84P5WQFqC//5h//+/k///he5Rgxx8XkOLRUzAIByWBxahgufFJT2oED2P/72X3KNF+KhSgpRliNr0QDgOiz2qNel4cLNva5T/OI//otAhpfIcCMAXI7FG/W6Hp8jT2G++fXvco0V4inVO9O6QnpnAJDH4ouGDN+bnxRsavJ3v/yPXEOFuEWtNWTuDABesJhyYxYbMtzKT3/+Xa6BQtyqdnvRHpsMNQLMiMWRt+bZ9PiasIYMC7gkgrDuDGAGLHYoeFWZ79oDqfdYUM2bEcwARsTihYYN3QSvBdaQYQU1b8bLPQFGQRVaFfu73/8hhQ5fkHqPlSSYAURGFThV5OdKre2fvEIgw4oSzAAiYRVWrz75ErwO1Totr7CGDCurOsFaMwCvWAVV8NLkdq4CP6vejuahvMIaMmwgCSAAnrAKqbcla81MrsJ+pVLbPcMaMmykUvNZZwbQE6uEejeT1srkKulR/+9vfp9Chk9YQ4aNVN15n6oTALTCKp6SNrRrQa5invXHP/vW9bCiIPUeG6q6dJeqFwDUwira0aSNS9WwnWdYQ4YdJPkDoAZWsS6a99qqUts9w3vIsJPMlwGUwirTnbl76PCU6ul4hzVk2EnNl7FjPsBerAJp6FCvbc9VsGL+xT//JoULvyiQ5Y4dsYEaYiQlH+ASrNLsyjrcq/dhRcEaMuwsWYwA57CKUixx4xIjZCsKAhl29slkCyuAHFY5iiduXKL3bMUF1pChA0n8AFiwyqDel57wcpWlqd4XQS8QyNCBSraiVwZzY5Wg6dzXOaMMKwrtyp87B8TGfkjVGWAerOB3mfva4k+++VUKE75hMTQ6UiMpLJKGObDCrnVfbnpfOT2/suUQAhk68z5Vc4DxsAKuXTdOvirFi1pc7PVN0GtYDI3O1AgLSR8wFlaob00XyRtb9fwm6DUEMnSmRlpI+oAxsML8LhXqXGF3bYTdPBaUWZk7B8SOkvQBcbECHGb48JQRdvNYYDE0OlQjMGxbBbGwQhtu+PCYkdLuBYEMHcrwIsTBCmvY4cNjRkm7X9DuI7nzQOws+y+Cb6yQajuaXOENr3o4kWBXD3Sq3kxB9iL4QoXSdLl4uZTK/os0PyYIZOOpcqjMWan7q+SjRSX3HFqqvGo4ff3beqhb/q56/ssxbVy3yOJo8IMKo1nlpZXeVAWNND/GYuhYLgFKw9frwBSp3C0oiB4GPAVdnV9aDqIph7vUjAD0QYUwFcavKuSoqiJGgkDmT92PJVBpdxg19DOSzvuDyfAitMcqozbvzVbS0Y02P0Yg66MyWw+DVbTh6IY8mQQyaIdV0PDrv64x4vyYjjcN42AFDwNW1OG/znwymSeDulhlHT6BY6vR1o8JAlk51bNVQoN6WFH22QzAZ5NABnWwiuvm5ZVejLZ+TBDI9qmEhKWXBdV5l5odgDJYJVYG4lQJHFv9629/m+pdHNjV47xLT4ug1Q0CGZTBKjQB7IwRGzoC2WvVO1Xmqa4L81luYANhuA6r3NpCKlvp8QfVAEZs+GYPZEtvi6xB1zyk5gjgMqySE8AuUA1iRGbbZ1FzWxoCJhkjFAQyuAyr7ASwHUZbCL2g486dzygqAYdhwvA8mqwlg/NYpR92E98WqrGMyGiBTD0uAtdwsCgaTmOVf+pFzKWMOseiHkvufKKoIV2GCoeHQAZ5rBEggBUyaqKHjlmBIHdOXtWic5IzpoNABq+xxoAAVlgFAwJZPdVr1G4ZMC0EMnjBGgQCWCWjJnp4DWTqdWm4MOLDAVSBQDYzdvNv/+KffzPFe8B6GnFHD6FA4WV7Kj0MsHMGHIFANiN202/Nz8rgyjUaWNaow14991nU39VehSRpwAYIZDNhN/vG1G7R4Sbxo6oGOWriQetApjIZdZkCdIVANgO6yelmP5NrRLCOEV/dstAikDFkCAV4TE0djIjd4FcBTA1TrjHBeqqXERUFmNw5XaMCo4IXQ4ZQELaoGhW7uV8CmKjRKOF5o2YsilIbBi/zXWQZQiUIZKOhm/pyb39AWXO5BgbrGzVjUVwTyEiRh4bwGpdRsJv5VQATehLONTTYxsjJC5cGMgUvkjWgA7xYMzp2E+9f7uXXaFgr1+BgGyNnLIotgYzgBQ4gkEVFN+/lHuZhjVh/FcgiJzUcexcZwQscoeVEt6lZhCjopqWbdxSCmA+VsRh5juiwR0/wAqeoLbxJzSN4Rzcr3bSTHDak2Fc9UERGPTLNsQI4hsXQEdBNSjfrLLnGFPsZOfUeIAgfU1MJXrGbpFd4byLXkGJf6c0AVIfUe6/o5rzco/NoDibXiGJ/mVMCqA4Zi97QTXm5N9tgtw7fsocgQFXIWPSEbsbzbbkAgphvo68hA2iNRpfUrp1yxSeTRI/e6CaYZzMR1+iG5hpP9GP0NWQAe1CZX4KO5oilsl+VwbuoupGrM5f64599+z41pdALu+ebEzkOIYjFMPoaMoA1S5DSHpoKUD/55ldFA9MO71JzCq2x8rA5kWMNQSyOBDKIiIbD9UbzJVCpHOfKtwM/myyEbo2VkbuXorIPglgs1QgAeGSZi1Kw0lpHx8HqlE8m82OtsHKzaUeOUxDE4sliaPDAErD0YKVtxnJlNai8g6wVVo427chxCoJYTDXBDdAKzV9p3aLKXdAe1qWyfqw2Vq52z4MdQhCLK4uhoRaax1L5Uq9/sF7WVpkfq4mVsbcvRe16CGKxJZBBCZae1sRBK+dTanKhJFbedq0HOwZBLL7K/AK4BCVhqNxoeJCgdVL2VyyNlb+PL8WwDASx+LKrB2xBZURrsrQWK1eO8KhvU/ML12Ll8P6lOJaDIDaGBDLIQW+riJ9M0u5LYGXy6mzENQSxcSSQwTJMqLmtjjtfjCjvH7uW//l3ny7anX4rmtDN3DAMqhoudvWYC91vJWVovVauTGAx2ZZqL3bxbv78f/9rsWSONasbhcFle6rxIXB1UWn3DCvuwS7co1bG1+LgJuEA1iwr0JdlqDB337GJDCteil20e108zV3V4uAGYWA1eV+znEAfdE+Z43Ilw4pbsYv1xlQXturw0CTbyAythpUYQhwHzVWrR01WoUsZVtyKXaiPumgqyDVh3Uhc9XSutT8Qn2Wei/oYQoYVz2EX6W65YCrUNaHSxFQ9aFLq46N7yHBhSBlWPIZdHA0jaoHd88WqPVGvxZDL38IYqtFj+DAuS6+LofzQsgj6GHZhPhxcqOfCXhMFycO/h37V03rt8gD1oNc1nOytuMYuyu3qIlXPOFOjuP6b6E+GD+PCXNfQ3qbmG4RdkMfVBUrVoB5sPeVfhg/joftFhuEUPqbmG+xivFtdnOdhh9qw9ZRfGT6MxzJkmLufOKy8Cdouwpc1YYfWzkxcWP9d7K+e4Bk+jIN202DIcFpZO2YX4FUyx6IWsbaAIQ9fsng5DuopU3/QnDfJw07+ZnUxvthqHzyeIP3Y6p7Dfpb5LrIMceVNatbnwk78q2SOxVYNGmvF+qsGUUNS4JdlOyiCFx5xviQPO+m3q4vwylaNmrYuyv19bCPp875R8CJZAzf6NjXvc2An/LS6AK9stSs5afb9ZP7LLwQv3OFTat7Hx072q5T6ta2CmBrR3N/HujL/5ROCF17pHCn3dqJf9kc8ZssndMb528n6L58QvLCQ4++raCf4/uCEj9oSMhTbqADG/JcvCF5YwfepuR8PO7nswuacLdHQVu4YsJxK4GD+yw8EL6zouAug7cQ29cJkS5QJmTsGLKMaSwKYD3QfWFaCDRyvN2YntbkXpmGnluipNHcceL0kcPhAwYt1XtjQ8XpjdkKbe2Gt9k08hMpdXhI4fMHwITZ2nN6YnczmXpjsEcRI7ignCRx+IZBhQ8fpjdmJbO6FyR5BjOSOMrIDvX8IZNjQ+L0xO4mLemGyRxBj547rJQMxDgQybGT83pidwEW9MNkjiIncseA22UIqHgQybGTc3pgd/MW9MNkriKknkTsePK0aQ4gJgQwbGLc3Zgd+do/EnL2CGOtnLpcU+vgQyLCBMXtjduBn90jM2SuIsej5MkmhHwcCGVb2UwoLcbCD3tULk72CmOZ0cseDr1UKPQFsPAhkWNlYO9zbAZ98X9gpW+/YcYgCaO6Y8EXWgI0NgQwrGqc3Zgd78q3NW+wF68WOSwCbAwIZVjTG25/tQB9WB36xvVAjnTue2WUR81wQyLCSjylM+MUO8mZ10LvsiXocuWOaVRYxzwmjEljJmxQufGIHePHi5pw94Sn0Bwlgc6MEnly5QLzChxQufGIHePHi5pzaBqoXVNwXCWAgqA9YWL+Ln+3AdqfVr+0ZxEi1J4DBawhkWFif6fZ2YI+rA91tzyAmtBdg7rhmUMsMCGCwhkCGBfWXbm8HVSShY7H3dkazVljNBwIcg0CGBfWVbm8H9GF1gFfZO4jNOKRIAKuPyrUCQWQIZFhIXwkedkBFEjoWPTSoM+3eQQCry3e//8Or8qTNpiNDIMMC+knwsAMpltCx2Gv/xENmqagEsLqoHOXWHka/7towmzWVeKU+EjzsQD6uDuxqtUNEb2YYUiSA1UPl51yCUPTrr11cCGR4hU8pjPTDDqJoQsehHhg5S5EAVg9l125t3KMvZyCQ4ZX23cHDDuB+dUDF1DxCb0YdUiSA1WPPy1UJZDixH1I46YMdwO5Xrpyz91oxoYZltMpJAKuDGnIFo9w136K+G3mTZQIZ7rTfmjH747ergylq7zT7BTX6ueOLKAGsDseSNy5Vv0Egwwnts2bM/nDRtWFrvaQhq0eYO75ospVUeXQ9Sz/kKAh4GIXYi6YBrumR4pT2WTNmf/jT6kCK6iHNfkHZkrljjCIBrDzqddQsF+rdRUVljUCGF/g5hZV22B+tOpQo9UTqhcjvViKAleevv/1t9lqXlkCGE3mXwksb7A9WHUpc9JChKHQcuePzLgGsLLqWrZddRJ7HJJDhBbYdUrQ/WHUocVG7Angh2poxDXURwMpRe/jwlAQynMB2Q4r2x6oPJS56yVAUkRI8ome5eaNU9uE1Ru5V67hHyvLFarYZUrQ/9H71h6vpKblDREjwIICVw1vjG314mECGZ2yz8Nn+ULUFzms9JXeIVhP61xg5PdsTXlPFoz+kEMjwhPUXPtsfqbZX4jG9JHcIPQX3HlY6ZeRsNk/oQcDzfSaQ4cDepnBTB/sD1fZKPKa3hrlUBVRDpOHSLea+v1a9RLieSMspIj+0RF62glV9n8JNHewPFH/tyjkVNDxxSbq95tCU1agKq0xLPeFfM6ehv63fUOOl31SAUzD0do0iovsS8a0FkR9eVI5z54RTW/f1LJk/WF3NS3jjWGOnoKLgcm2wgrZoaC5yGnjkhxgCGWas83oW++G71R9qpreAoCCl41p6QeplEbRiMsobivVgFbUMEshwZZ03PtsPN9mlI6fHsX8FMojNaPMykVPwR3mYwCLW2b3DfrjJLh05mfOBkqihV5nKlbXoah42auaijptAhmb53TvsR5un1h+qiglQAgWwyPNfW1QgiDpSQCDDZNlUe/vBd6s/0FxP68UgJrM1kB6H4bdAIEPzPoWfMtgPPqz+QHNZBwXXMGvygOb9IjJDjxlP+pjCTxnsB7vNhy0q+wpgD6MlcFxq1DllAtncpvBzPfZjXefDDo2aeQV9GDmB41KjZi4SyKb2bQpD12E/1H0+bNHT+8XANzR+X6vrETFzkYeRaS2zBZX9UPf5sEVS7WELaqgjvDanh5EzFwlk0/kxhaHrsB/qPh+2qAoIcAo10GS2nTdq5iKBbCqvXy9mP/Jm9aPdZUgRjsH2RZf5059/l65cLCK81w+Led16MfuBbvslHpMhRcihBjlXXvC0qk8REz54YJnG6/ZRtB94v/rB7jKkCGsYYrrOqJmLBLIpvG4fRfuBx9UPupAhRRBkIJZTD4cRMxfZ3WN4r3u/mP3A59UPupCFz0AAK6+CQcSEDwLZ2KZwdDn25dv1j3ky4vAHlIFGq64Rt3hjWcXQ7lv0bF90l9RxaNQUYbgOAlgbIyZQ0Tsf1n2bAdsX3SV1HKrCCnOhBxcCWDsjJnwQyIZ0X3KHfdFlUsehvJ5lHshE62PEl2wqkGnePHc+GNJ9yR32RZdJHYdGXawJlzH7LvS9Ve83YkYwSy/GMYWl7diX3O3UkVOVC8aGhsiPEd9NRvkZxst27rAvvF39gFtJ8BgXGiB/6p5EmyerORSt4dY/+4dfPl8XBflT6jP6LFmUu7xL4Wkb9oX71Q+4lYXP48Gchm8jJnyUCGQKPgpE+q0SbwLQXKN+S79JYDvrZa9lsS98WP2AS3XzYSzILouhhvKjJXzsecOByqLWzbVIItPfUFDjAS7rZa9lsS+4z0zUk0u0p0E4DQEsnmp0I7FlnaHallaB6xiqCzoGemhfvCxD0b7gPjMx6ov9IA8BLK7RsoQVyHJlTfNVHqcn1Nbp2NbHO5spPG0j9wOeJLV+LAhg8VUjG2lk5LDM6dgjPBSrZzh5MLtJIeo09kHXmYkaCohUWeA0BLBx1H2MNE+mshdxREfHPGmd2baHon2QPROhCQSw8dRDJhnDbdCc2aWJKsHdtoeifdDtnonqSsMYEMDGNuJO+BGZbIhxW5q9ffBh9UU3kswxBgSwOdQSGN1rqI8WU+fuwWA+pjB1Gn1w9UUX0gsbByXm5O4xjqceVnqmqs+EHvIHH17cHMSeVl90IRVhHHQvc/cYx1QNK6MobTi2fGAUU5g6Te6LvaUXNh4aasrdaxxX5snaMPJwfQpTp8l9sbc8xY2H7mnuXuPYMk/WhoED2end7O0D7taI6UbAmEy+cHNamSdrw6CB7PRaMX1g9YXusi5sXHRvc/ccx5d5sjYMGMhOv5LFPuDqFSwq6DA2ky3WxJXMk9VHvd6B6tnptWL6wOoLXWWPxPEh3R6ZJ6uPshZz1z6gsYJYpH3YYB8DVS68QubJ6qNeb+7aB/Mhhas89oGPqy90U+/RgTngnUkomSerzwAv3Dy94FkfWH2hmwwlzgNDingo82T10LBt8PmxOEGMocR5YM0YrlWPgXmyOugtA7lrHsTTb3i2D3xafaGLZCXOB1mKuFbzZDzM1iHyGs0UrvLkvtBDZSvBXAwwVo8V1MMN7ycrT+T9S1O4ypP7Qg9Z4Dwfg2ROYSWZIy9P1P1LU7jKk/tCD0m1nQ9S7fGcGgJjnqwcUXtjKVzlyX2htcyHzUuuPCAequUYPOSWI2hvLL9/ov3H7eqDXeS1K/PChsC4RYJYOYL2xo4GMReb/+o12zAnrBfDc5L0VZ6ASVW+gxiZSPNCcgeekx09yhNw3ZjvIEYhnRcWPeMp2YquHsHWafoOYjAvyjzLlQlESZp9PYIN5RPEwC+5MoEo2b2jHsGGFP0GMTITgR3tMSdDifUJNKRIEAO/kGaPOclKrE+gLEW/QUwXEeaGIIY52YquPoGyg+9S2HqN/Uf3IMYaMWAjYMzJAuf6BMoOfp/C1mvsPwhi0B2VgVzZwHllK7p25K6/Q9+lsPUa+w+CGHSHIIZrmStvR5DEKr9zYgQxIIjhWtaHtSPInDRBDPxCEMO1tAvtCLLomSAGfiGI4Vq2omtHkPpHEAO/EMRwLUGsHUHS7Ali4BdS7HEt2021I0iavd8gxgQusNgZ10I7CGJXSiotEMRwLbQjehB7s/pgcwli8Kd//4ts2cB5hXaEDmIi8+GmslM15MoFzi20I0IQS+EqT+4LrYV54aWYmBPaQRArIBt9zkuQoQxsLG1COyIscUnhKo994PP6C61VQwZzotdt5MoEzi1tQjtGCGKP6y+0VovtYE5Y6Iw5CWLtCLDt1FMKV3nsA92DGG9wnRfS6zEnD7btCFAHH1O4yqMPrL7QXKVYw5zovVG5MoFzy04+7QjwKpazQezD6gtdhPnQ5H2uLCCyfrQduevvzIcUrvLYB96vvtBFxsDng6QOPCbrR9sQJDv4fQpXefSB1Re6yPDBfGguNFcWECVp9vUJsoP92SDWff9EybzYfAR5LTp28ptf/y6VFKhFkDdI3KVwlcc+4CKISe3eAHOgV23kygDiIm+4qE+QxKrj+yYK+8DN6gvd1BwJzAHrw/CczIvVJch8mLxN4eo4mS91UV1bmAN2rsct8nLMegRY5PxsClOnsQ9233pqkSHF8SG1HrfKkGI9osxJpzB1Gvtg9wXPiwwpjk+UJ0DsL0OKddCDZJD5sNMLnRfsgx9XX+wmWYrjQ1YiXiJrSOugodoAw/qbg5iLtWKLrA8ZF6VN5+454jHZW7Uemr5xnmZ/eo3Ygn3wfvXFrlJoxyXIuhR0Jg+2dXE8xH+fwtRp7INu1opJjdWS4DEeJHTgXnmwrY/yERzOk51eI7ZgH3SzVmyRbajGg22m8BrpjdVH82TO5qxvUpg6T+bLXaU3Nhb0wvBa6Y21Qe2ul3eMpfC0DfvC0/oHektvbBzohWEJWfzcDgfzZKff6LzGvuAmzX6R3tgY0AvDUvKesbZ0nif7mMLTNuwLrtLsF+mNxYdeGJZUrw+BdnScJ9uWXr9gX7hb/YAL9RTAhG5cAm0yikFUm8CwYls6zZOdfgXLGvvC7eoH3MjGwHHxMkGMY8nOPn1o/PaJ87vXr8n8iBvZeiYe7M6BNSVbsQ+q1y3myVJYugz7opuNgNdqTJYkj3hoYjh3PxFLyIbhfWiw7+JlmYkL9sWH1Q+5ktcyxES96I4ZTji4jNL0QZ2KitvIPaSwdBn2RVd7KOakwMakwZMbTiqJHn1Rtmjuvlzptj0T19gXXe2hmFMFlmHFmHTKcMIJJJD1pcJoy7Y9E3NkfsydLHiMDevGsIYEsr7oIbXUaEsKR/uwH3C3/VRO5sdiQ8IH1lCBbLYph2VuyksAL7Bd1b6kjgX7AdfJHYeSmRQbVbrCQxCIz87SNqx7P152OLoyDX9fUseC/cC71Q+6luGD2Gg3FhI+sIajryM7Nnynf/Owy5Ha5p11+10KR/uwH3C7c0dOxsHjo8rIPBnWUI3oiO3DuZ6O/s9Db3Rn3b58p4419iOfVz/qWt0w9leMD/NkWEO1D6NsGqygcMmck+bK9J3eXFC3P6cwdB32Q+5ey3JOemNjoPt46gkTca/Re2V755n0HX23N7r2G3bDv+z1K8ewH3L5WpZj6sLAOBwb60csoYa3Io3cKNuyxPpK9eB698r098/s8nHZ61eOYT/kftHzoaNP4M5KgVRdxKN6D2algteheuD30Bs9scvH/kXOazI/7lYPXWWow5WpuohnVTDztLZM80e1d7bxkIqfG15M4acM9oNud7Rf62HiEuqhws7wItZWDap6CD16ZyrjGnlo+cDmYY5wNbz4mMJPGewH3W8GLHUjYHxU2Hek6iLuUu2KgopGAmo8JOs39dsq0xuSHaqpoOkhczMNL5aZD1uwHwyxXszLCnVog4ZaGF7E1iqoKeCovdHQ49bhRwUrfVYBS99Vr6Nn0Dqmhi8dzA9evz5sjZ2c+/VinsayoQ0MLyKWt3Mqfpn1YWvsxNyvF4M50RMu2YuI5e2xQPrf/+uPZdaHrbETcr2PIq9kAbIXEcurOtV4lOu6/RKPYSdzsz45T46ylQxch8bya6ckI85owwXSNynslMdOxO37xXqnh4IvNHGeKyeIuF8lolTulV33/rBz2El8WJ+UFwHW6MHGY/YXYnTVK6vEhxRu6mAH7zLVnvkwOIaGP1hThljeSguky201dQw7+E/rk+kt68O2E2mz05KQ9IFYx4Ltb53U+jV20A/rk+gt68NOo97I4R5seoJqnTbrAZ0zSR+I5S3UK3tIYaYudsB36xPoLXzNEriOvepAhW7WXpkyWemVIZZVderKLPG7FGbqYwfsZvcO5sN+QD1Sde239jZU6GbN6iQVH7GOqlc7H5DfpBBTHztQN0OKFbNkXKOApZ6Wzv+axliBTL8zK/TKEMu7o1dWZ5eOY9hBuhlS7Li/19UoeKjndM4lUMlaDe7Mi8XplSHW8YJeWZ1dOk5hB+hiSDHqvI7mrHLn01Olos8MvTLE8m4c7Wk3lLhgB9d9SFELWaOim5o7p97qyWnGzMUFemWIdTyxmXDbocQFO6juQ4q6KFHx/PqQmTMXF/SQQa8MsayqU5kpoHZZiWvsoLoufNZ8UUQUIHLn40kVttn3o9RT47ElCoi434NeWZsFzsewg+m6l2LURc6ae8mdj0dnzlxc0JMjezAillUPyn/17W/r7pV4DjuQrnspRp278TyUmHPWZQyHqKzpOuSuDyLu9jaFk37YQXR5PUvUpI4IQ4k5T0zKToWGWEn8QCzipxRG+mIHcr86sCZGTeqINJS4ttD+aENAOj7i1d6nMNIXO5A3qwNrYtSkjmhDiWvVcLPh8gvqmfKaF8Td1nuD86XYwTRfMxaxIY06lJhz5h0+1qgsRn84QWxsn7Vhx7ADers6wOpGnJ+JPJSYk3my1/QaYlQA1TydPNyubFH3afn/3PcRO9hvbdgx7KCarRmLmtQx4tM682SvqT3EuAQqpf3vXZCuY1TvcQlwzO1hY30kdKyxA2uW4KGKHI2RhhLXqhFkPdlrSmUx6oFNqf21N7rW8ervsB4OG/g+hQ1f2IE1S/DQE2Q0vO6VWFLWk33N3oXS6s3VDlzHUEDT36eHhpX0k9Cxxg6uSYJHxKd+DdvkzmU0Nby4d5hrZPTgdS4o6P/1OS/XT8OOmuejd4YFfUjhwid2gE128Ig4B5M7j1FVY9yrF+GZY/NlS/DynCTDujgs5NsULvxiB/m4OujiRkMNeu48RpfhxTzqaS3zZeqhR+m5Ksiy9RZe4VMKE76xA323OvCiargqGjMviGV48ThRr4tGQkbMtMXqtn97817sYKul20fMTJx9TkHDUGQvjge9MrzAvq9cuRQ74Grp9tEyE/W0nTuPGWVx9HhoqJy5Mtygz7T6Y9gBK93+88EJFDPaE/1ou3Rcq3ql7L04FhpeJIMRT6hY8CaFhzjYQb8/OIliRmsAZ0mtv9SIa/3gOOphM0+GR/SdVn8MO/AqvbFow1EMtRyXpI+xIJDhEf0ubj6HHXzRxc8KCJFQrzF3HviDuqcacoUxIJDhypi9sAU7gZvVCV1ltMxEDZnlzgO/VveWXtkYEMjwwLi9sAU7iWK9Mc0vRaLEBrAzSSr+OCjZg6H06Y3dC1uwEynWG4uWDJA7BzwvqfhjMOtONfjF+L2wBTuZIr2xSE/pzIddJ72yMWBIfVrH6IUt2AkV6Y1FSq9nfVgZmSuLD/NjUzpOL2zBTurq3likxoz1YeUkgzE2mh/L3Vcc1rF6YQt2YuqNXbVuLBJMapdXvbKIr+EBhhUnc7xe2IKd3O5dPLStTRTYL7Gu7PYRDyXqsDXVFI7ZC1uwE9y9i0ekNWJKSMidA5aTPRjjQb2YwnF7YQt2krt6Y5HWiPGKinbqXW2k48eB3tjQxtqp/hrsZC9+31ikISQWObeVxI840Bsb1pg71e/FTvbitz9HCmK548f6KpWbIUb/0Bsb0vvUvM+DnfTj6iKcNErjRDpxfxli9A2ZisP5KTXrc2En/nZ1IU4aJYgxXOJDhhj9QvbucN6lZn0+7OQ3L4COstCZpA5fMsToEzYDGMbH1JzPiV2AzQugo0BSh0/VaLJ9lR8YsRjG29Scz4tdhE0p91HIHTv6UfMxzJf1R/cgd38wlB9SMw52MU6m3EdZ6MxYfwyZL/MBGwOHdq6U+nPYxTiZ5BEliPH+pFgq1Vv3DPrA/HFo36XmGxbsonxcXaQvRglipA7HVOWL5I/28NAX1rmTOY5hF+bovopRFjqTcRVbBTOSP9qi660kD9Ud3vwQxvH3R9yLXZz71cV6NkoQUyOYO36MpRZLE8z6oM0CVN+pS26dZ3/EvdhF+monjyhBbH3cGFuCWX80zEtQc+OcO3Ncil2or9aOabjBO2QmjivbWPlhCWoMP3bxbWqm4Rx2sV6tHYsw6a5jPDxmHEs1mGo8CWa+WObUlOlIyn5VWRN2KXbRnpYLGCGIad3Rcrw4rgwv+kftheqjetAMQxZR63hZE3YpdtFul4sYIYjpKX05XhxXiIkSRtRjW+bXeB3MRTKMuBe7eM/ZihGefnnim0MYCz0ga73aMs82ez3W+asHq55s6jwwjHgtdmEfn0ubcwhicwjzcBjglh6cjJ5QorlDnYfmEXVeOs9cR+F3f/gjw4glsIt4k66paw4LCY4rwIIafgUAqZ7LEuyWubiWQe/w76lHuRyLhlCXY9wBO9SXwi7m55dr6pdcwcLxBCjFElwuseHUCouaS2IX9P7luvpEhSvX4OF4AkzAU2p6oSR2YT+9XF9/EMTmEWBwNOrF3og1sAv77vkSO4Q1YvOoBxaAgblPTS6Uxi7uG9Pl3JgmUHMNHo4nQQwG5mNqbqEWdpE/vFxrXygbKdfg4Xiq1w0wIOogkE5fG7vILtPtldaaa/BwPLW2BmBA2JWjFXax379ccz8QxOZR9xpgMNiVozV20Z9err0PeCXEXAIMBOn0PbAL7yrJI9fQ4bhqM1mAASCdvid28W+fb4MDcg0djivJHTAI71JzCr3QTXi5F/3QNjC5hg7HlXkxGICH1IxCb+xmdE27Z7eOOeUNzxAY5RSQTu8JuyEPz7emAwSxOdXu4AAB0TwYu9N7w26KEj26ZCwSxOZU72QCCAjzYF6xm9MlkLFv4rxGeOM4wAHMg3nHblLz1Hv2TZxXbTcGEATmwaJgN0qp980CGUFsbknwgAAwDxYN3bB046pDEJtb3X8A5zAPFhG7cU0CGUFsbrXlGHNj4Bj2RYyM3cDqgYwghsyNgVMeU1MIkbEbWTWQsYM9Sl6WCc74ZJLIMQp2M6sFMoIYStaNHUcLwzVioUBPIkwT1NaRyDEauqnp5haFIIaLJHl8jeYL168q+vHPvn0egtUaS3qwVSCRY1Ts5hYPZAQxPJRG+TXqoeau01p97iff/Ioe2/Xcp+YORsVuctFARhDDQ9XroAF+4ac//y57jbaqa6n6pcCmIUkeEM7CjhyzYDe7WCAjiOFa9SpmD2QKOrlrU0INRy7BbRmS5MHh+4+peYNZsJuuQHb1XosEMcypobFZUVDJXZMWqj6uA9wEb+JmS6lZ0Y1PBWA3BDE85ozrxxQw1okcXlyGJ5e5t2X+LXhPjgA2OyoAqSDsgiCGp5wpkHkOYFtdAp3UvVuC3TIn56xn92gSwOAFKwy7XqxJEMNz6sl/9DmbEQLYXpc5usXDnt6h3/z6d18CYc4LgqPm89+npgvgB6xgXBzICGK4xZGTPWomceArn0x6XnAaq5PvXqrmNghiuFX1VPTEPRLXptHjZh9NAhhsw+qmAtmmFHyCGF6qhpaio504KPvNZP0XXI7V001ryajIuEcNLzpKELgIpa7POv/VQQIY7Mfq69nMRT1VZwoe4iY1HBdlrkxBl4e2pvIuMLgeq7sKZB+fa3EGghheq3o1Kkdeg5mGDpVunjt2rCab+EJZrC5/eKnSryGIYSm9BTP1vAhezf1sEsCgDlavv8pcJIhhDRU8emQyKoAqZZ5hwy4qgPEeMKiL1fNXCR8EMaypFtJq3kwLZWuxBC4t0s0dAzZRa8AIYNAGq/dfEj5Y6IktVQ9JD04KanuzG9XDU7lVb2/r+76wqqwBg/ZYW6BA9qAGYVUgEZuquTQFt3PmvovdJYUe+vI3nz7fZwomIuI5SeAAH1hhvDM1KZsrqIiIh6qteJuaDwAfWKG8NTU5myu0iIhSbcRNajYAfGGF8435MRVWRMRDH0wSOMA/VlCZJ0PEQ5n/glhYoX1rMk+GOLefTNZ/QUys8Gp4UWtAcoUbEcdWUwsMH0J8rCC/PyjYiDi+96n6A4yBFWplL2poIVfgEXEM2T4KxsUKN9mLiOP6wWT4EMbHCjqLoxHHUXX5LlVvgDmwQn9jkvSBGFuSN2BurAJoTRm9MsRYqs6SvAEgrDLQK0OMo+oqW0cBrLGKQa8M0a+qm+y8AXAKqyTqlZHBiOhL5r4ALsEqjDIYWVeG2FfVQTIPAfZglUfryrT2JFe5ELGu2mmH3hfAtVhF0m4fJH4gtlF1jV03AEpjFeudSeIHYh01dEjiBkBNrJJpiJENhRHLytAhQEuswpHFiHi9etsya74AemEVUC/fZL4M8TJVZ96magQAvbEKSUo+4nlJmQfwjFVQJX8QzBBfS9IGQCRUYVPFzVVoxFkkeAFERhU4VeRcBUccVS1FIeMQYBSsMhPMcAbpeQGMjCp4qui5BgAxqgQvgJmwCq9sRlLzMboqwwQvgFmxBkDrzLTgM9dAIHpVC/1Z5wUAL1iDoB1AtGM+ezOiV1U2VUbZYQMAjmONhObNnsxcQ4LY2uf5LpNMQwDYjjUaegWMhhrpnWEPVfYYMgSA67CGRDvn0zvDFqqM3Zv0ugCgPNa4LHNnpOljKdXTV6+LF1ECQDus0VGaPsONuFdlGLIZLwD0R41RapRyjRXiosoISRoA4BM1TiY9NDyUwAUAMbGGawlozKHN4zLHReACgHGwBk0p+9pZnCzH8dQ9VcIPKfEAMD7W2B0OO9JLi+dhb4sdNABgbtQQpgaRoOZTBS3NbWkNF6nwAACnsIZyCWoaomL4sb16kNADBUELAKAE1phqx33NqalHQG+tnOpl6ZUmurYa4iUZAwCgNmpsTQU29RbUa+D9aOdVr1YPAQpYunbMZwEAeEINc2qg1VBrOFLBbbaem85ZgX3pXTEkCAAQHTXm5tJ7UwO/9OAizbspIOuYpc5h6VWR3g4AMDsWDJaenFQvZgkUcunZ5cwFnJwKmLnvL8N8iwq0y3EQoAAAAADG4Uc/+v/18eLAe9R9BwAAAABJRU5ErkJggg==;strokeColor=none;shadow=1;spacingTop=-2;spacingBottom=-2;spacingLeft=-2;spacingRight=-2;points=[];labelBackgroundColor=none;rounded=0;html=1;whiteSpace=wrap;" vertex="1" parent="1">
            <mxGeometry x="636" y="1066.5" width="50" height="50" as="geometry" />
          </mxCell>
        </UserObject>
        <mxCell id="D-f0g4XA8TNqZnRXPo1R-21" value="Queue storage" style="aspect=fixed;html=1;points=[];align=center;image;fontSize=12;image=img/lib/azure2/general/Storage_Queue.svg;rounded=0;shadow=1;labelBackgroundColor=none;fontFamily=Segoe UI;fontColor=#0078D7;fillColor=none;gradientColor=none;whiteSpace=wrap;fontSource=https%3A%2F%2Ffonts.googleapis.com%2Fcss%3Ffamily%3DSegoe%2BUI;" vertex="1" parent="1">
          <mxGeometry x="230" y="985.5" width="49.02" height="39.83" as="geometry" />
        </mxCell>
        <mxCell id="D-f0g4XA8TNqZnRXPo1R-22" style="edgeStyle=orthogonalEdgeStyle;orthogonalLoop=1;jettySize=auto;html=1;fontFamily=Helvetica;fontSize=12;fontColor=default;endArrow=classic;endFill=1;startArrow=none;startFill=0;startSize=10;endSize=6;rounded=1;jumpStyle=arc;" edge="1" parent="1" source="D-f0g4XA8TNqZnRXPo1R-9" target="D-f0g4XA8TNqZnRXPo1R-21">
          <mxGeometry relative="1" as="geometry">
            <Array as="points">
              <mxPoint x="350" y="970" />
              <mxPoint x="350" y="1010" />
            </Array>
          </mxGeometry>
        </mxCell>
        <mxCell id="D-f0g4XA8TNqZnRXPo1R-23" style="edgeStyle=orthogonalEdgeStyle;rounded=1;orthogonalLoop=1;jettySize=auto;html=1;fontFamily=Helvetica;fontSize=12;fontColor=default;jumpStyle=arc;" edge="1" parent="1" source="D-f0g4XA8TNqZnRXPo1R-25" target="D-f0g4XA8TNqZnRXPo1R-6">
          <mxGeometry relative="1" as="geometry">
            <Array as="points">
              <mxPoint x="570" y="817" />
              <mxPoint x="570" y="1046" />
            </Array>
          </mxGeometry>
        </mxCell>
        <mxCell id="D-f0g4XA8TNqZnRXPo1R-24" style="edgeStyle=orthogonalEdgeStyle;rounded=1;orthogonalLoop=1;jettySize=auto;html=1;fontFamily=Helvetica;fontSize=12;fontColor=default;" edge="1" parent="1" source="D-f0g4XA8TNqZnRXPo1R-25" target="D-f0g4XA8TNqZnRXPo1R-3">
          <mxGeometry relative="1" as="geometry" />
        </mxCell>
        <mxCell id="D-f0g4XA8TNqZnRXPo1R-25" value="&lt;font data-font-src=&quot;https://fonts.googleapis.com/css?family=Segoe+UI&quot; color=&quot;#0078d7&quot;&gt;Bot&lt;/font&gt;" style="aspect=fixed;html=1;points=[];align=center;image;fontSize=12;image=img/lib/azure2/ai_machine_learning/Bot_Services.svg;rounded=0;shadow=1;labelBackgroundColor=none;fontFamily=Segoe UI;fontColor=default;fillColor=none;gradientColor=none;labelPadding=0;noLabel=0;container=0;autosize=0;imageBackground=none;whiteSpace=wrap;spacingTop=0;spacing=2;fontSource=https%3A%2F%2Ffonts.googleapis.com%2Fcss%3Ffamily%3DSegoe%2BUI;" vertex="1" parent="1">
          <mxGeometry x="500.87" y="794.38" width="44.25" height="44.25" as="geometry" />
        </mxCell>
        <mxCell id="D-f0g4XA8TNqZnRXPo1R-26" style="edgeStyle=orthogonalEdgeStyle;rounded=1;orthogonalLoop=1;jettySize=auto;html=1;fontFamily=Helvetica;fontSize=12;fontColor=default;jumpStyle=arc;" edge="1" parent="1" source="D-f0g4XA8TNqZnRXPo1R-9" target="D-f0g4XA8TNqZnRXPo1R-25">
          <mxGeometry relative="1" as="geometry">
            <Array as="points">
              <mxPoint x="315" y="960" />
            </Array>
          </mxGeometry>
        </mxCell>
      </root>
    </mxGraphModel>
  </diagram>
</mxfile>
